<svg xmlns="http://www.w3.org/2000/svg" xmlns:xlink="http://www.w3.org/1999/xlink" width="2048" height="2048" viewBox="0 0 2048 2048"><title>Enter Panic</title><defs><linearGradient id="H"><stop offset="0" stop-color="#060200" stop-opacity="0"/><stop offset="1" stop-color="#a00"/></linearGradient><linearGradient id="G"><stop offset="0" stop-color="#a00"/><stop offset="1" stop-color="#0a0301" stop-opacity="0"/></linearGradient><linearGradient id="F"><stop offset="0" stop-color="#060200"/><stop offset="1" stop-color="#0a0301"/></linearGradient><linearGradient id="E"><stop offset="0" stop-color="#f90400" stop-opacity="0"/><stop offset=".053" stop-color="#be0c03"/></linearGradient><linearGradient id="D"><stop offset="0" stop-color="#f90400" stop-opacity="0"/><stop offset=".0547" stop-color="#be0c03"/></linearGradient><linearGradient id="C"><stop offset="0" stop-color="#f90400" stop-opacity="0"/><stop offset=".053" stop-color="#be0c03"/></linearGradient><linearGradient id="B"><stop offset="0" stop-color="#f90400" stop-opacity="0"/><stop offset=".0974" stop-color="#be0c03"/></linearGradient><linearGradient id="A"><stop offset="0" stop-color="#f90400" stop-opacity="0"/><stop offset=".1487" stop-color="#be0c03"/></linearGradient><linearGradient id="z"><stop offset="0" stop-color="#f90400" stop-opacity="0"/><stop offset=".2017" stop-color="#be0c03"/></linearGradient><linearGradient id="y"><stop offset="0" stop-color="#f90400" stop-opacity="0"/><stop offset=".2496" stop-color="#be0c03"/></linearGradient><linearGradient id="x"><stop offset="0" stop-color="#f90400" stop-opacity="0"/><stop offset=".2974" stop-color="#be0c03"/></linearGradient><linearGradient id="w"><stop offset="0" stop-color="#f90400" stop-opacity="0"/><stop offset=".3487" stop-color="#be0c03"/></linearGradient><linearGradient id="v"><stop offset="0" stop-color="#f90400" stop-opacity="0"/><stop offset=".4017" stop-color="#be0c03"/></linearGradient><linearGradient id="u"><stop offset="0" stop-color="#f90400" stop-opacity="0"/><stop offset=".3983" stop-color="#be0c03"/></linearGradient><linearGradient id="t"><stop offset="0" stop-color="#f90400" stop-opacity="0"/><stop offset=".4496" stop-color="#be0c03"/></linearGradient><linearGradient id="s"><stop offset="0" stop-color="#f90400" stop-opacity="0"/><stop offset=".5009" stop-color="#be0c03"/></linearGradient><linearGradient id="r"><stop offset="0" stop-color="#f90400" stop-opacity="0"/><stop offset=".5538" stop-color="#be0c03"/></linearGradient><linearGradient id="q"><stop offset="0" stop-color="#f90400" stop-opacity="0"/><stop offset=".053" stop-color="#be0c03"/></linearGradient><linearGradient id="p"><stop offset="0" stop-color="#f90400" stop-opacity="0"/><stop offset=".0496" stop-color="#be0c03"/></linearGradient><linearGradient id="o"><stop offset="0" stop-color="#f90400" stop-opacity="0"/><stop offset=".0513" stop-color="#be0c03"/></linearGradient><linearGradient id="n"><stop offset="0" stop-color="#f90400" stop-opacity="0"/><stop offset=".1" stop-color="#be0c03"/></linearGradient><linearGradient id="m"><stop offset="0" stop-color="#f90400" stop-opacity="0"/><stop offset=".1" stop-color="#be0c03"/></linearGradient><linearGradient id="l"><stop offset="0" stop-color="#f90400" stop-opacity="0"/><stop offset=".147" stop-color="#be0c03"/></linearGradient><linearGradient id="k"><stop offset="0" stop-color="#f90400" stop-opacity="0"/><stop offset=".2017" stop-color="#be0c03"/></linearGradient><linearGradient id="j"><stop offset="0" stop-color="#f90400" stop-opacity="0"/><stop offset=".2496" stop-color="#be0c03"/></linearGradient><linearGradient id="i"><stop offset="0" stop-color="#f90400" stop-opacity="0"/><stop offset=".3009" stop-color="#be0c03"/></linearGradient><linearGradient id="h"><stop offset="0" stop-color="#f90400" stop-opacity="0"/><stop offset=".3521" stop-color="#be0c03"/></linearGradient><linearGradient id="g"><stop offset="0" stop-color="#f90400" stop-opacity="0"/><stop offset=".4017" stop-color="#be0c03"/></linearGradient><linearGradient id="f"><stop offset="0" stop-color="#f90400" stop-opacity="0"/><stop offset=".4513" stop-color="#be0c03"/></linearGradient><linearGradient id="e"><stop offset="0" stop-color="#f90400" stop-opacity="0"/><stop offset=".5" stop-color="#be0c03"/></linearGradient><linearGradient id="d"><stop offset="0" stop-color="#f90400" stop-opacity="0"/><stop offset=".5538" stop-color="#be0c03"/></linearGradient><linearGradient id="c"><stop offset=".6" stop-opacity=".97"/><stop offset="1" stop-opacity="0"/></linearGradient><linearGradient id="b"><stop offset="0" stop-color="#0f0000" stop-opacity="0"/><stop offset="1"/></linearGradient><linearGradient id="a"><stop offset=".1487" stop-color="#a00" stop-opacity="0"/><stop offset="1" stop-color="#aa2305"/></linearGradient><linearGradient xlink:href="#a" id="M" x1="121.283" x2="1926.717" y1="1024" y2="1024" gradientUnits="userSpaceOnUse"/><linearGradient xlink:href="#b" id="L" x1="121.283" x2="1926.717" y1="1024" y2="1024" gradientUnits="userSpaceOnUse"/><linearGradient xlink:href="#c" id="ap" x1="121.283" x2="1926.717" y1="1024" y2="1024" gradientUnits="userSpaceOnUse"/><linearGradient xlink:href="#d" id="N" x1=".0003" x2="835.0997" y1="199.9921" y2="199.9921" gradientUnits="userSpaceOnUse"/><linearGradient xlink:href="#e" id="O" x1="0" x2="835.1" y1="259.9508" y2="259.9508" gradientUnits="userSpaceOnUse"/><linearGradient xlink:href="#f" id="P" x1=".0003" x2="835.0997" y1="319.9932" y2="319.9932" gradientUnits="userSpaceOnUse"/><linearGradient xlink:href="#g" id="Q" x1=".0003" x2="835.0997" y1="379.9938" y2="379.9938" gradientUnits="userSpaceOnUse"/><linearGradient xlink:href="#h" id="R" x1=".0003" x2="835.0997" y1="439.9944" y2="439.9944" gradientUnits="userSpaceOnUse"/><linearGradient xlink:href="#i" id="S" x1=".0003" x2="835.0997" y1="499.995" y2="499.995" gradientUnits="userSpaceOnUse"/><linearGradient xlink:href="#j" id="T" x1=".0003" x2="835.0997" y1="559.9955" y2="559.9955" gradientUnits="userSpaceOnUse"/><linearGradient xlink:href="#k" id="U" x1=".0003" x2="835.0997" y1="619.9961" y2="619.9961" gradientUnits="userSpaceOnUse"/><linearGradient xlink:href="#l" id="V" x1=".0003" x2="835.0997" y1="679.9967" y2="679.9967" gradientUnits="userSpaceOnUse"/><linearGradient xlink:href="#m" id="W" x1=".0003" x2="835.0997" y1="739.9973" y2="739.9973" gradientUnits="userSpaceOnUse"/><linearGradient xlink:href="#n" id="X" x1=".0003" x2="835.0997" y1="799.9979" y2="799.9979" gradientUnits="userSpaceOnUse"/><linearGradient xlink:href="#o" id="Y" x1=".0003" x2="835.0997" y1="859.9985" y2="859.9985" gradientUnits="userSpaceOnUse"/><linearGradient xlink:href="#p" id="Z" x1=".0003" x2="835.0997" y1="919.999" y2="919.999" gradientUnits="userSpaceOnUse"/><linearGradient xlink:href="#q" id="aa" x1=".0003" x2="835.0997" y1="979.9996" y2="979.9996" gradientUnits="userSpaceOnUse"/><linearGradient xlink:href="#r" id="ab" x1=".0003" x2="835.0997" y1="1840.0083" y2="1840.0083" gradientUnits="userSpaceOnUse"/><linearGradient xlink:href="#s" id="ac" x1=".0003" x2="835.0997" y1="1780.0078" y2="1780.0078" gradientUnits="userSpaceOnUse"/><linearGradient xlink:href="#t" id="ad" x1=".0003" x2="835.0997" y1="1720.0063" y2="1720.0063" gradientUnits="userSpaceOnUse"/><linearGradient xlink:href="#u" id="ae" x1=".0003" x2="835.0997" y1="1660.0059" y2="1660.0059" gradientUnits="userSpaceOnUse"/><linearGradient xlink:href="#v" id="af" x1=".0003" x2="835.0997" y1="1600.0055" y2="1600.0055" gradientUnits="userSpaceOnUse"/><linearGradient xlink:href="#w" id="ag" x1=".0003" x2="835.0997" y1="1540.005" y2="1540.005" gradientUnits="userSpaceOnUse"/><linearGradient xlink:href="#x" id="ah" x1=".0003" x2="835.0997" y1="1480.0045" y2="1480.0045" gradientUnits="userSpaceOnUse"/><linearGradient xlink:href="#y" id="ai" x1=".0003" x2="835.0997" y1="1420.0042" y2="1420.0042" gradientUnits="userSpaceOnUse"/><linearGradient xlink:href="#z" id="aj" x1=".0003" x2="835.0997" y1="1360.0035" y2="1360.0035" gradientUnits="userSpaceOnUse"/><linearGradient xlink:href="#A" id="ak" x1=".0003" x2="835.0997" y1="1300.0031" y2="1300.0031" gradientUnits="userSpaceOnUse"/><linearGradient xlink:href="#B" id="al" x1=".0003" x2="835.0997" y1="1240.0017" y2="1240.0017" gradientUnits="userSpaceOnUse"/><linearGradient xlink:href="#C" id="am" x1=".0003" x2="835.0997" y1="1180.0013" y2="1180.0013" gradientUnits="userSpaceOnUse"/><linearGradient xlink:href="#D" id="an" x1=".0003" x2="835.0997" y1="1120.0009" y2="1120.0009" gradientUnits="userSpaceOnUse"/><linearGradient xlink:href="#E" id="ao" x1=".0003" x2="835.0997" y1="1060.0002" y2="1060.0002" gradientUnits="userSpaceOnUse"/><linearGradient xlink:href="#F" id="I" x1="0" x2="2048" y1="1024" y2="1024" gradientUnits="userSpaceOnUse"/><linearGradient xlink:href="#G" id="aq" x1="0" x2="2048" y1="0" y2="0" gradientUnits="userSpaceOnUse"/><linearGradient xlink:href="#H" id="ar" x1="0" x2="2048" y1="2048" y2="2048" gradientUnits="userSpaceOnUse"/><linearGradient xlink:href="#b" id="J" x1="121.283" x2="1926.717" y1="1024" y2="1024" gradientUnits="userSpaceOnUse"/><linearGradient xlink:href="#a" id="K" x1="121.283" x2="1926.717" y1="1024" y2="1024" gradientUnits="userSpaceOnUse"/><filter id="as" width="1.0216" height="1.6192" x="-.0107" y="-.3735" color-interpolation-filters="sRGB"><feFlood flood-color="rgb(145,81,255)" flood-opacity="1" result="flood"/><feGaussianBlur in="SourceGraphic" result="blur" stdDeviation="5.5"/><feOffset dy="-7.5" in="blur" result="offset"/><feComposite in="offset" in2="flood" operator="in" result="comp1"/><feComposite in="comp1" in2="SourceGraphic" operator="out" result="comp2"/></filter></defs><path fill="url(#I)" fill-rule="evenodd" d="M0 0h2048v2048H0Z"/><g fill-rule="evenodd"><path fill="url(#L)" stroke="url(#M)" stroke-linecap="square" stroke-linejoin="round" stroke-width="5.434" d="M1210.2246 143.6836v1758.5078A900 900 0 0 0 1924 1024a900 900 0 0 0-713.7754-880.3164Zm-372.4121 2.1172A900 900 0 0 0 124 1024a900 900 0 0 0 713.8125 878.1992Z"/><path fill="#241c1c" d="m835.0898 149.145 377.855-2.145-.01 1751.8481H835.0862Z" opacity=".128" style="mix-blend-mode:multiply"/></g><g fill-rule="evenodd" stroke="#8c0000" stroke-linecap="square" stroke-linejoin="round" stroke-width="5.434" opacity=".5" style="mix-blend-mode:color-dodge"><path fill="#180000" d="M1302.717 1024a900 900 0 0 1-900 900 900 900 0 0 1-900-900 900 900 0 0 1 900-900 900 900 0 0 1 900 900z"/><path fill="#1c0100" d="M1452.717 1024a900 900 0 0 1-900 900 900 900 0 0 1-900-900 900 900 0 0 1 900-900 900 900 0 0 1 900 900z"/><path fill="#200200" d="M1602.717 1024a900 900 0 0 1-900 900 900 900 0 0 1-900-900 900 900 0 0 1 900-900 900 900 0 0 1 900 900z"/><path fill="#240201" d="M1752.717 1024a900 900 0 0 1-900 900 900 900 0 0 1-900-900 900 900 0 0 1 900-900 900 900 0 0 1 900 900z"/><path fill="#2a0301" d="M1902.717 1024a900 900 0 0 1-900 900 900 900 0 0 1-900-900 900 900 0 0 1 900-900 900 900 0 0 1 900 900z"/><path fill="#300401" d="M2052.717 1024a900 900 0 0 1-900 900 900 900 0 0 1-900-900 900 900 0 0 1 900-900 900 900 0 0 1 900 900z"/></g><g fill="none" stroke-linecap="square" stroke-width="5.4182" style="mix-blend-mode:normal"><path stroke="url(#N)" d="M835.0997 199.992H.0003Z"/><path stroke="url(#O)" d="m835.0997 259.909-835.0994.0837Z"/><path stroke="url(#P)" d="M835.0997 319.9932H.0003Z"/><path stroke="url(#Q)" d="M835.0997 379.9938H.0003Z"/><path stroke="url(#R)" d="M835.0997 439.9944H.0003Z"/><path stroke="url(#S)" d="M835.0997 499.995H.0003Z"/><path stroke="url(#T)" d="M835.0997 559.9956H.0003Z"/><path stroke="url(#U)" d="M835.0997 619.9961H.0003Z"/><path stroke="url(#V)" d="M835.0997 679.9967H.0003Z"/><path stroke="url(#W)" d="M835.0997 739.9973H.0003Z"/><path stroke="url(#X)" d="M835.0997 799.9979H.0003Z"/><path stroke="url(#Y)" d="M835.0997 859.9985H.0003Z"/><path stroke="url(#Z)" d="M835.0997 919.999H.0003Z"/><path stroke="url(#aa)" d="M835.0997 979.9996H.0003Z"/><path stroke="url(#ab)" d="M835.0997 1840.0083H.0003Z"/><path stroke="url(#ac)" d="M835.0997 1780.0078H.0003Z"/><path stroke="url(#ad)" d="M835.0997 1720.0064H.0003Z"/><path stroke="url(#ae)" d="M835.0997 1660.0059H.0003Z"/><path stroke="url(#af)" d="M835.0997 1600.0055H.0003Z"/><path stroke="url(#ag)" d="M835.0997 1540.005H.0003Z"/><path stroke="url(#ah)" d="M835.0997 1480.0045H.0003Z"/><path stroke="url(#ai)" d="M835.0997 1420.0041H.0003Z"/><path stroke="url(#aj)" d="M835.0997 1360.0036H.0003Z"/><path stroke="url(#ak)" d="M835.0997 1300.0031H.0003Z"/><path stroke="url(#al)" d="M835.0997 1240.0017H.0003Z"/><path stroke="url(#am)" d="M835.0997 1180.0013H.0003Z"/><path stroke="url(#an)" d="M835.0997 1120.0008H.0003Z"/><path stroke="url(#ao)" d="M835.0997 1060.0003H.0003Z"/></g><g fill="none" stroke="#af1903" stroke-linecap="square" stroke-width="5.4182"><path d="M2048.0007 199.9921h-835.1004ZM2048.0007 259.909l-835.1004.0837zM2048.0007 319.9932h-835.1004ZM2048.0007 379.9937h-835.1004ZM2048.0007 439.9945h-835.1004ZM2048.0007 499.995h-835.1004ZM2048.0007 559.9956h-835.1004ZM2048.0007 619.996h-835.1004ZM2048.0007 679.9967h-835.1004ZM2048.0007 739.9972h-835.1004ZM2048.0007 799.998h-835.1004ZM2048.0007 859.9985h-835.1004ZM2048.0007 919.999h-835.1004ZM2048.0007 979.9996h-835.1004ZM2048.0007 1840.0086h-835.1004ZM2048.0007 1780.0071h-835.1004ZM2048.0007 1720.0061h-835.1004ZM2048.0007 1660.0061h-835.1004ZM2048.0007 1600.0049h-835.1004ZM2048.0007 1540.0049h-835.1004ZM2048.0007 1480.0049h-835.1004ZM2048.0007 1420.0043h-835.1004ZM2048.0007 1360.0037h-835.1004ZM2048.0007 1300.0037h-835.1004ZM2048.0007 1240.0012h-835.1004ZM2048.0007 1180.0012h-835.1004ZM2048.0007 1120.0006h-835.1004ZM2048.0007 1060h-835.1004Z"/></g><g fill-rule="evenodd" stroke="#8c0000" stroke-linecap="square" stroke-linejoin="round" stroke-width="5.434" opacity=".451" style="mix-blend-mode:color-burn"><path fill="#180000" d="M1002.717 1024a900 900 0 0 1-900 900 900 900 0 0 1-900-900 900 900 0 0 1 900-900 900 900 0 0 1 900 900z"/><path fill="#1c0100" d="M1152.717 1024a900 900 0 0 1-900 900 900 900 0 0 1-900-900 900 900 0 0 1 900-900 900 900 0 0 1 900 900z"/><path fill="#200200" d="M1302.7169 1024a900 900 0 0 1-900 900 900 900 0 0 1-900-900 900 900 0 0 1 900-900 900 900 0 0 1 900 900z"/><path fill="#240201" d="M1452.717 1024a900 900 0 0 1-900 900 900 900 0 0 1-900-900 900 900 0 0 1 900-900 900 900 0 0 1 900 900z"/><path fill="#2a0301" d="M1602.717 1024a900 900 0 0 1-900 900 900 900 0 0 1-900-900 900 900 0 0 1 900-900 900 900 0 0 1 900 900z"/><path fill="#300401" d="M1752.717 1024a900 900 0 0 1-900 900 900 900 0 0 1-900-900 900 900 0 0 1 900-900 900 900 0 0 1 900 900Z"/></g><g fill-rule="evenodd" stroke="#8c0000" stroke-linecap="square" stroke-linejoin="round" stroke-width="5.434" style="mix-blend-mode:exclusion"><path fill="#180000" d="M-47.283 1024a900 900 0 0 0 900 900 900 900 0 0 0 900-900 900 900 0 0 0-900-900 900 900 0 0 0-900 900Z"/><path fill="#1c0100" d="M-197.283 1024a900 900 0 0 0 900 900 900 900 0 0 0 900-900 900 900 0 0 0-900-900 900 900 0 0 0-900 900z"/><path fill="#200100" d="M-347.283 1024a900 900 0 0 0 900 900 900 900 0 0 0 900-900 900 900 0 0 0-900-900 900 900 0 0 0-900 900z"/><path fill="#240101" d="M-497.283 1024a900 900 0 0 0 900 900 900 900 0 0 0 900-900 900 900 0 0 0-900-900 900 900 0 0 0-900 900z"/><path fill="#2a0201" d="M-647.283 1024a900 900 0 0 0 900 900 900 900 0 0 0 900.0001-900 900 900 0 0 0-900-900 900 900 0 0 0-900 900z"/><path fill="#300201" d="M-797.283 1024a900 900 0 0 0 900 900 900 900 0 0 0 900-900 900 900 0 0 0-900-900 900 900 0 0 0-900 900z"/></g><g fill-rule="evenodd" stroke="#8c0000" stroke-linecap="square" stroke-linejoin="round" stroke-width="5.434" style="mix-blend-mode:color-dodge"><path fill="#180000" d="M2102.717 1024a900 900 0 0 1-900 900 900 900 0 0 1-900-900 900 900 0 0 1 900-900 900 900 0 0 1 900 900z"/><path fill="#1c0100" d="M2252.7169 1024a900 900 0 0 1-900 900 900 900 0 0 1-900-900 900 900 0 0 1 900-900 900 900 0 0 1 900 900z"/><path fill="#200200" d="M2402.7169 1024a900 900 0 0 1-900 900 900 900 0 0 1-900-900 900 900 0 0 1 900-900 900 900 0 0 1 900 900z"/><path fill="#240201" d="M2552.7169 1024a900 900 0 0 1-900 900 900 900 0 0 1-900-900 900 900 0 0 1 900-900 900 900 0 0 1 900 900z"/><path fill="#2a0301" d="M2702.7169 1024a900 900 0 0 1-900 900 900 900 0 0 1-900-900 900 900 0 0 1 900-900 900 900 0 0 1 900 900z"/><path fill="#300401" d="M2852.717 1024a900 900 0 0 1-900 900 900 900 0 0 1-900-900 900 900 0 0 1 900-900 900 900 0 0 1 900 900z"/></g><path fill="url(#ap)" fill-rule="evenodd" stroke="#a00" stroke-linecap="square" stroke-linejoin="round" stroke-width="5.434" d="M1924 1024a900 900 0 0 1-900 900 900 900 0 0 1-900-900 900 900 0 0 1 900-900 900 900 0 0 1 900 900z"/><g fill="none" stroke-linecap="square" stroke-width="6"><path stroke="url(#aq)" d="M0 0h2048Z"/><path stroke="url(#ar)" d="M2048 2048H0Z"/></g><g fill="#e6e6e6" fill-rule="evenodd" font-family="Geist" font-size="99.3333" font-weight="100" letter-spacing="4" word-spacing="0"><path d="M569.7495 977v85.4267h15.198v-2.98h-12.0193V979.98h12.0193V977zm101.1747 6.9534v-2.98h-43.508v2.98h40.0313l-41.72 64.5666v2.98h45.9913v-2.98h-42.5146zm17.3107-2.98V1051.5h42.4153v-2.98h-39.2366v-30.694h37.25v-2.98h-37.25v-30.8926h38.442v-2.98zm84.6586 0H749.153V1051.5h3.1786v-30.8927h20.562c12.6154 0 18.3767 3.0794 18.9727 10.2314l1.5893 20.6613h3.278l-1.6886-20.7607c-.596-6.4566-4.8674-10.6286-12.218-11.92 8.4433-2.1853 13.9066-8.4433 13.9066-17.4826 0-13.0127-8.5426-20.3633-23.84-20.3633zm-20.562 36.6539v-33.674h20.562c13.708 0 20.4627 5.7614 20.4627 17.3834 0 10.43-7.3507 16.2906-20.4627 16.2906zm88.3339 35.462c18.8733 0 30.4953-14.2046 30.4953-36.7533 0-22.7473-11.622-36.952-30.4953-36.952s-30.4953 14.2047-30.4953 36.952c0 22.5487 11.622 36.7533 30.4953 36.7533zm-27.118-36.7533c0-20.7606 10.3307-33.7733 27.118-33.7733s27.118 13.0127 27.118 33.7733c0 20.6613-10.3307 33.5747-27.118 33.5747s-27.118-12.9134-27.118-33.5747zm95.188-35.3626h-20.0653V1051.5h20.6613c20.562 0 31.9853-12.6153 31.9853-35.164 0-22.648-11.7213-35.3626-32.5813-35.3626zm-16.8866 67.5466v-64.5666h16.8866c18.774 0 29.204 11.622 29.204 32.3826 0 20.6613-10.43 32.184-29.204 32.184zm58.832 2.98h3.278l8.5426-23.3433h32.3827l8.5426 23.3433h3.278l-26.1246-70.5266h-3.7747zm12.9133-26.3233 15.0986-41.0247 15.0987 41.0247zm44.9253-44.2033 25.5286 41.7199V1051.5h3.1787v-28.8067l25.4293-41.72h-3.6753l-23.3433 38.6407-23.3434-38.6406zm55.9514 70.5266h3.278l8.5426-23.3433h32.3827l8.5426 23.3433h3.278l-26.1246-70.5266h-3.7747zm12.9133-26.3233 15.0987-41.0247 15.0986 41.0247zm58.534-44.2033V1051.5h3.1787v-67.348l43.7067 67.348h4.6686v-70.5266h-3.1786v67.3479l-43.7067-67.348zm122.8027 45.8919V980.874h-3.1787v45.9913c0 14.8007-7.748 23.0454-21.6547 23.0454-13.9066 0-21.6546-8.2447-21.6546-23.0454V980.874h-3.1787v45.9913c0 16.7874 8.94 26.224 24.8333 26.224 15.8934 0 24.8334-9.4366 24.8334-26.224zm21.582 24.6347h25.5287c15.2973 0 22.8467-6.258 22.8467-18.774 0-9.238-6.258-15.496-16.39-16.7873 8.046-1.49 13.41-7.748 13.41-16.092 0-12.6153-7.9467-18.8733-23.84-18.8733h-21.5554zm3.1787-2.98v-30.694h22.35c11.92 0 19.4693 5.7613 19.4693 14.9 0 10.5293-6.4566 15.794-19.4693 15.794zm0-33.674v-30.8926h18.3767c13.708 0 20.4626 5.2646 20.4626 15.8933 0 9.6353-7.3506 14.9993-20.4626 14.9993zm64.196-33.8726V1051.5h3.1787v-70.5266zm24.9594 48.4746-3.278.298c0 12.814 11.324 22.946 25.628 22.946 14.006 0 24.3367-8.1453 24.3367-18.476 0-9.238-7.152-15.2973-23.542-19.966-16.2907-4.768-21.754-8.8407-21.754-16.39 0-9.4366 7.3507-15.2973 19.1713-15.2973 12.218 0 20.86 7.748 20.86 18.774l3.3773-.298c0-12.1187-10.43-21.6547-23.244-21.6547-14.5026 0-23.5419 7.152-23.5419 18.476 0 8.94 6.7546 14.5027 22.3499 18.6747 15.9927 4.2713 22.946 9.6353 22.946 17.6813 0 8.5427-9.0393 15.2973-20.4626 15.2973-12.814 0-22.8467-8.8406-22.8467-20.0653zM1478.2815 977h-15.198v2.98h12.0193v79.4667h-12.0193v2.98h15.198z" aria-label="[ ZERODAYANUBIS ]" style="-inkscape-font-specification:&quot;Geist Thin&quot;"/><path d="M569.7495 1016v85.4267h15.198v-2.98h-12.0193V1018.98h12.0193V1016Zm101.1747 6.9534v-2.98h-43.508v2.98h40.0313l-41.72 64.5666v2.98h45.9913v-2.98h-42.5146zm17.3107-2.98V1090.5h42.4153v-2.98h-39.2366v-30.694h37.25v-2.98h-37.25v-30.8926h38.442v-2.98zm84.6586 0H749.153V1090.5h3.1786v-30.8927h20.562c12.6154 0 18.3767 3.0794 18.9727 10.2314l1.5893 20.6613h3.278l-1.6886-20.7607c-.596-6.4566-4.8674-10.6286-12.218-11.92 8.4433-2.1853 13.9066-8.4433 13.9066-17.4826 0-13.0127-8.5426-20.3633-23.84-20.3633zm-20.562 36.6539v-33.6739h20.562c13.708 0 20.4627 5.7613 20.4627 17.3833 0 10.43-7.3507 16.2906-20.4627 16.2906zm88.3339 35.462c18.8733 0 30.4953-14.2046 30.4953-36.7533 0-22.7473-11.622-36.952-30.4953-36.952s-30.4953 14.2047-30.4953 36.952c0 22.5487 11.622 36.7533 30.4953 36.7533zm-27.118-36.7533c0-20.7606 10.3307-33.7733 27.118-33.7733s27.118 13.0127 27.118 33.7733c0 20.6613-10.3307 33.5747-27.118 33.5747s-27.118-12.9134-27.118-33.5747zm95.188-35.3626h-20.0653V1090.5h20.6613c20.562 0 31.9853-12.6153 31.9853-35.164 0-22.648-11.7213-35.3626-32.5813-35.3626zm-16.8866 67.5466v-64.5666h16.8866c18.774 0 29.204 11.622 29.204 32.3826 0 20.6613-10.43 32.184-29.204 32.184zm58.832 2.98h3.278l8.5426-23.3433h32.3827l8.5426 23.3433h3.278l-26.1246-70.5266h-3.7747zm12.9133-26.3233 15.0986-41.0247 15.0987 41.0247zm44.9253-44.2033 25.5286 41.7199V1090.5h3.1787v-28.8067l25.4293-41.7199h-3.6753l-23.3433 38.6406-23.3434-38.6406zm55.9514 70.5266h3.278l8.5426-23.3433h32.3827l8.5426 23.3433h3.278l-26.1246-70.5266h-3.7747zm12.9133-26.3233 15.0987-41.0247 15.0986 41.0247zm58.534-44.2033V1090.5h3.1787v-67.348l43.7067 67.348h4.6686v-70.5266h-3.1786v67.3479l-43.7067-67.3479zm122.8027 45.8919v-45.9913h-3.1787v45.9913c0 14.8007-7.748 23.0454-21.6547 23.0454-13.9066 0-21.6546-8.2447-21.6546-23.0454v-45.9913h-3.1787v45.9913c0 16.7874 8.94 26.224 24.8333 26.224 15.8934 0 24.8334-9.4366 24.8334-26.224zm21.582 24.6347h25.5287c15.2973 0 22.8467-6.258 22.8467-18.774 0-9.238-6.258-15.496-16.39-16.7873 8.046-1.49 13.41-7.748 13.41-16.092 0-12.6153-7.9467-18.8733-23.84-18.8733h-21.5554zm3.1787-2.98v-30.694h22.35c11.92 0 19.4693 5.7613 19.4693 14.9 0 10.5293-6.4566 15.794-19.4693 15.794zm0-33.674v-30.8926h18.3767c13.708 0 20.4626 5.2646 20.4626 15.8933 0 9.6353-7.3506 14.9993-20.4626 14.9993zm64.196-33.8726V1090.5h3.1787v-70.5266zm24.9594 48.4746-3.278.298c0 12.814 11.324 22.946 25.628 22.946 14.006 0 24.3367-8.1453 24.3367-18.476 0-9.238-7.152-15.2973-23.542-19.966-16.2907-4.768-21.754-8.8407-21.754-16.39 0-9.4366 7.3507-15.2973 19.1713-15.2973 12.218 0 20.86 7.748 20.86 18.774l3.3773-.298c0-12.1187-10.43-21.6547-23.244-21.6547-14.5026 0-23.5419 7.152-23.5419 18.476 0 8.94 6.7546 14.5027 22.3499 18.6747 15.9927 4.2713 22.946 9.6353 22.946 17.6813 0 8.5427-9.0393 15.2973-20.4626 15.2973-12.814 0-22.8467-8.8406-22.8467-20.0653zM1478.2815 1016h-15.198v2.98h12.0193v79.4667h-12.0193v2.98h15.198z" aria-label="[ ZERODAYANUBIS ]" opacity=".78" style="-inkscape-font-specification:&quot;Geist Thin&quot;;mix-blend-mode:hard-light"/><path d="M569.7495 1055v85.4267h15.198v-2.98h-12.0193V1057.98h12.0193V1055Zm101.1747 6.9534v-2.98h-43.508v2.98h40.0313l-41.72 64.5666v2.98h45.9913v-2.98h-42.5146zm17.3107-2.98V1129.5h42.4153v-2.98h-39.2366v-30.694h37.25v-2.98h-37.25v-30.8926h38.442v-2.98zm84.6586 0H749.153V1129.5h3.1786v-30.8927h20.562c12.6154 0 18.3767 3.0794 18.9727 10.2314l1.5893 20.6613h3.278l-1.6886-20.7607c-.596-6.4566-4.8674-10.6286-12.218-11.92 8.4433-2.1853 13.9066-8.4433 13.9066-17.4826 0-13.0127-8.5426-20.3633-23.84-20.3633zm-20.562 36.6539v-33.6739h20.562c13.708 0 20.4627 5.7613 20.4627 17.3833 0 10.43-7.3507 16.2906-20.4627 16.2906zm88.3339 35.462c18.8733 0 30.4953-14.2046 30.4953-36.7533 0-22.7473-11.622-36.952-30.4953-36.952s-30.4953 14.2047-30.4953 36.952c0 22.5487 11.622 36.7533 30.4953 36.7533zm-27.118-36.7533c0-20.7606 10.3307-33.7733 27.118-33.7733s27.118 13.0127 27.118 33.7733c0 20.6613-10.3307 33.5747-27.118 33.5747s-27.118-12.9134-27.118-33.5747zm95.188-35.3626h-20.0653V1129.5h20.6613c20.562 0 31.9853-12.6153 31.9853-35.164 0-22.648-11.7213-35.3626-32.5813-35.3626zm-16.8866 67.5466v-64.5666h16.8866c18.774 0 29.204 11.622 29.204 32.3826 0 20.6613-10.43 32.184-29.204 32.184zm58.832 2.98h3.278l8.5426-23.3433h32.3827l8.5426 23.3433h3.278l-26.1246-70.5266h-3.7747zm12.9133-26.3233 15.0986-41.0247 15.0987 41.0247zm44.9253-44.2033 25.5286 41.7199V1129.5h3.1787v-28.8067l25.4293-41.7199h-3.6753l-23.3433 38.6406-23.3434-38.6406zm55.9514 70.5266h3.278l8.5426-23.3433h32.3827l8.5426 23.3433h3.278l-26.1246-70.5266h-3.7747zm12.9133-26.3233 15.0987-41.0247 15.0986 41.0247zm58.534-44.2033V1129.5h3.1787v-67.348l43.7067 67.348h4.6686v-70.5266h-3.1786v67.3479l-43.7067-67.3479zm122.8027 45.8919v-45.9913h-3.1787v45.9913c0 14.8007-7.748 23.0454-21.6547 23.0454-13.9066 0-21.6546-8.2447-21.6546-23.0454v-45.9913h-3.1787v45.9913c0 16.7874 8.94 26.224 24.8333 26.224 15.8934 0 24.8334-9.4366 24.8334-26.224zm21.582 24.6347h25.5287c15.2973 0 22.8467-6.258 22.8467-18.774 0-9.238-6.258-15.496-16.39-16.7873 8.046-1.49 13.41-7.748 13.41-16.092 0-12.6153-7.9467-18.8733-23.84-18.8733h-21.5554zm3.1787-2.98v-30.694h22.35c11.92 0 19.4693 5.7613 19.4693 14.9 0 10.5293-6.4566 15.794-19.4693 15.794zm0-33.674v-30.8926h18.3767c13.708 0 20.4626 5.2646 20.4626 15.8933 0 9.6353-7.3506 14.9993-20.4626 14.9993zm64.196-33.8726V1129.5h3.1787v-70.5266zm24.9594 48.4746-3.278.298c0 12.814 11.324 22.946 25.628 22.946 14.006 0 24.3367-8.1453 24.3367-18.476 0-9.238-7.152-15.2973-23.542-19.966-16.2907-4.768-21.754-8.8407-21.754-16.39 0-9.4366 7.3507-15.2973 19.1713-15.2973 12.218 0 20.86 7.748 20.86 18.774l3.3773-.298c0-12.1187-10.43-21.6547-23.244-21.6547-14.5026 0-23.5419 7.152-23.5419 18.476 0 8.94 6.7546 14.5027 22.3499 18.6747 15.9927 4.2713 22.946 9.6353 22.946 17.6813 0 8.5427-9.0393 15.2973-20.4626 15.2973-12.814 0-22.8467-8.8406-22.8467-20.0653zM1478.2815 1055h-15.198v2.98h12.0193v79.4667h-12.0193v2.98h15.198z" aria-label="[ ZERODAYANUBIS ]" opacity=".5" style="-inkscape-font-specification:&quot;Geist Thin&quot;;mix-blend-mode:hard-light"/></g></svg>