<svg xmlns="http://www.w3.org/2000/svg" xmlns:xlink="http://www.w3.org/1999/xlink" width="297mm" height="420mm" viewBox="0 0 1122.52 1587.402">
  <defs>
    <linearGradient id="d">
      <stop offset="0" style="stop-color:#fa0046;stop-opacity:1"/>
      <stop offset=".5" style="stop-color:#ff0036;stop-opacity:1"/>
      <stop offset="1" style="stop-color:#eb004b;stop-opacity:1"/>
    </linearGradient>
    <linearGradient id="c">
      <stop offset="0" style="stop-color:#710d13;stop-opacity:1"/>
      <stop offset="1" style="stop-color:#19141a;stop-opacity:1"/>
    </linearGradient>
    <linearGradient id="b">
      <stop offset="0" style="stop-color:#272228;stop-opacity:.34509805"/>
      <stop offset="1" style="stop-color:#272228;stop-opacity:0"/>
    </linearGradient>
    <linearGradient id="a">
      <stop offset="0" style="stop-color:#272228;stop-opacity:0"/>
      <stop offset="1" style="stop-color:#272228;stop-opacity:.34901962"/>
    </linearGradient>
    <linearGradient xlink:href="#a" id="f" x1="264.567" x2="415.748" y1="793.701" y2="793.701" gradientUnits="userSpaceOnUse"/>
    <linearGradient xlink:href="#b" id="g" x1="812.598" x2="963.78" y1="793.701" y2="793.701" gradientUnits="userSpaceOnUse"/>
    <linearGradient xlink:href="#c" id="h" x1="235.724" x2="789.832" y1="1091.491" y2="1091.491" gradientTransform="translate(203.647 -56.98)" gradientUnits="userSpaceOnUse"/>
    <linearGradient xlink:href="#d" id="e" x1="0" x2="1122.52" y1="793.701" y2="793.701" gradientUnits="userSpaceOnUse"/>
    <filter id="i" width="1" height="1" x="0" y="0" style="color-interpolation-filters:sRGB">
      <feColorMatrix result="result1" values="0 0 0 0 0 0 0 0 0 0 0 0 0 0 0 -0.21 -0.72 -0.07 1 0"/>
      <feColorMatrix result="result3" values="1 0 0 0 0 0 1 0 0 0 0 0 1 0 0 0 0 0 2 -1"/>
      <feColorMatrix in="SourceGraphic" result="result2" values="0 0 0 0 0 0 0 0 0 0 0 0 0 0 0 0.21 0.72 0.07 0 0"/>
      <feColorMatrix result="result9" values="1 0 0 0 0 0 1 0 0 0 0 0 1 0 0 0 0 0 1.5 -0.5"/>
      <feMerge result="result11">
        <feMergeNode in="result3"/>
        <feMergeNode in="result9"/>
      </feMerge>
      <feFlood flood-color="rgb(186,22,91)" flood-opacity="1" result="result10"/>
      <feComposite in2="result11" operator="out" result="result12"/>
      <feFlood flood-color="rgb(1,171,171)" flood-opacity="1" result="result13"/>
      <feComposite in2="result3" operator="in" result="result14"/>
      <feComposite in2="result12" k2="1" k3="1" operator="arithmetic" result="result17"/>
      <feFlood flood-color="rgb(255,255,0)" flood-opacity="1" result="result15"/>
      <feComposite in2="result9" operator="in" result="result16"/>
      <feComposite in2="result17" k2="1" k3="1" operator="arithmetic" result="result18"/>
      <feComposite in2="SourceGraphic" operator="in"/>
    </filter>
  </defs>
  <rect width="1122.52" height="1587.402" style="display:inline;fill:url(#e);stroke-width:1.4"/>
  <path d="m16.62-2.189 1109.088 1199.734Z" style="display:inline;fill:none;stroke:#191420;stroke-width:8.57953;stroke-linecap:butt;stroke-linejoin:round;stroke-dasharray:none;stroke-dashoffset:0;stroke-opacity:1;paint-order:normal"/>
  <path d="M-2.889 1514.731 1125.393 443.017Z" style="display:inline;fill:none;stroke:#191420;stroke-width:8.57953;stroke-linecap:butt;stroke-linejoin:round;stroke-dasharray:none;stroke-dashoffset:0;stroke-opacity:1"/>
  <path d="M75.59 0v1587.402z" style="fill:none;stroke:#140f15;stroke-width:5.55590561;stroke-opacity:1;stroke-dasharray:none"/>
  <path d="M124.724 0v1587.402z" style="fill:none;stroke:#221d23;stroke-width:2.91023627;stroke-opacity:1;stroke-dasharray:58.20472717,37.83307266,14.55118179;stroke-dashoffset:0"/>
  <path d="M1039.37 1587.402v-340.158z" style="fill:none;stroke:#19141a;stroke-width:56.9575;stroke-dasharray:none;stroke-dashoffset:0;stroke-opacity:1"/>
  <path d="M1067.849 1190.551v56.768h-56.958z" style="fill:#19141a;stroke-width:4.04409"/>
  <path d="M170.079 0h56.693v94.648l-56.693-.005z" style="display:inline;fill:#19141a;stroke-width:4.04409"/>
  <path d="m170.079 94.148 56.693.266-56.693 56.767z" style="fill:#19141a;stroke-width:4.04409"/>
  <path d="M264.567 0h151.272L264.614 1587.401Z" style="display:inline;fill:url(#f);stroke-width:4.04409;stroke-linejoin:round"/>
  <path d="M415.748 0v1587.401H264.567Z" style="display:inline;fill:#272228;fill-opacity:1;stroke-width:4.04409;stroke-linejoin:round"/>
  <path d="M812.598 0H963.78L812.598 1587.402z" style="display:inline;fill:#272228;stroke-width:4.04409;stroke-linejoin:round;fill-opacity:1"/>
  <path d="M963.78 0v1587.402H812.598Z" style="display:inline;fill:url(#g);stroke-width:4.04409;stroke-linejoin:round;fill-opacity:1"/>
  <path d="m465.862 565.562-20.245-19.274v19.274h-7.21v-29.605h7.21l20.245 19.275v-19.275h7.21v29.605zm-28.357 27.063q0-4.784 2.461-8.736 2.462-3.917 6.587-6.275 4.16-2.322 9.187-2.322 3.813 0 7.106 1.352 3.328 1.352 5.824 3.709 2.53 2.392 3.952 5.547 1.421 3.154 1.421 6.725 0 3.987-1.664 7.315-1.629 3.328-4.54 5.685-2.878 2.357-6.657 3.467-3.744 1.109-7.973.658v-26.728q-2.392.451-4.333 1.734-1.907 1.317-3.016 3.328-1.11 2.045-1.144 4.541 0 2.635 1.317 4.784 1.317 2.184 3.64 3.57l-1.699 7.315q-4.61-2.08-7.557-6.274-2.912-4.195-2.912-9.395zm21.216-9.845v19.69q2.496-.346 4.507-1.768 2.045-1.386 3.224-3.501 1.213-2.08 1.213-4.576 0-2.461-1.179-4.576-1.178-2.08-3.224-3.467-2.01-1.352-4.541-1.802zm-20.315 38.225h34.667v7.21h-3.675q2.15 1.803 3.397 4.438 1.248 2.635 1.248 5.685 0 1.942-.52 3.848l-7.28-2.877q.52-1.352.52-2.704 0-2.288-1.143-4.195-1.11-1.906-3.016-3.05-1.907-1.144-4.23-1.144h-19.968zm-.901 44.257q0-4.784 2.461-8.736 2.462-3.917 6.587-6.274 4.16-2.323 9.187-2.323 3.813 0 7.106 1.352 3.328 1.352 5.824 3.71 2.53 2.391 3.952 5.546 1.421 3.155 1.421 6.725 0 4.784-2.46 8.702-2.462 3.952-6.622 6.274-4.16 2.358-9.221 2.358-3.78 0-7.072-1.352-3.294-1.352-5.824-3.744-2.496-2.358-3.918-5.512-1.421-3.12-1.421-6.726zm7.21 0q0 2.878 1.526 5.166 1.525 2.288 4.021 3.605 2.53 1.352 5.478 1.352 3.016 0 5.546-1.387 2.53-1.352 4.022-3.64 1.525-2.288 1.525-5.096 0-2.842-1.525-5.165-1.526-2.288-4.056-3.64-2.531-1.317-5.512-1.317-3.086 0-5.582 1.386-2.496 1.387-3.986 3.675-1.456 2.323-1.456 5.061zm45.691 55.385v7.211h-52v-7.21h5.096q-2.704-1.7-4.368-4.438-1.63-2.739-1.63-6.413 0-3.779 1.422-7.072 1.422-3.294 3.918-5.824 2.53-2.496 5.824-3.918 3.293-1.42 7.072-1.42 3.778 0 7.072 1.42 3.328 1.422 5.824 3.918 2.53 2.53 3.952 5.824 1.42 3.293 1.42 7.072 0 3.674-1.663 6.413-1.63 2.739-4.299 4.437zm-45.933-10.78q0 3.05 1.49 5.338 1.526 2.288 4.091 3.536 2.566 1.282 5.686 1.282 3.154 0 5.72-1.282 2.565-1.283 4.056-3.57 1.525-2.254 1.525-5.305 0-3.016-1.525-5.512-1.526-2.461-4.091-3.952-2.565-1.456-5.685-1.456-3.155 0-5.72 1.49-2.531 1.526-4.056 3.987-1.491 2.496-1.491 5.443zm28.6 58.331v7.21h-34.667v-7.245l5.027-.277q-2.67-1.525-4.299-4.125-1.63-2.6-1.63-6.136 0-3.814 1.422-7.176 1.456-3.363 4.022-5.928 2.565-2.53 5.893-3.952 3.363-1.422 7.21-1.422 3.71 0 6.969 1.387 3.293 1.387 5.754 3.848 2.462 2.461 3.848 5.685 1.422 3.26 1.422 6.968 0 3.78-1.734 6.656-1.698 2.912-4.368 4.82zm-28.6-10.747q0 3.051 1.49 5.34 1.526 2.287 4.091 3.535 2.566 1.283 5.686 1.283 3.154 0 5.72-1.283 2.565-1.283 4.056-3.57 1.525-2.254 1.525-5.305 0-3.016-1.525-5.512-1.526-2.496-4.091-3.952-2.565-1.456-5.685-1.456-3.155 0-5.72 1.491-2.531 1.525-4.056 3.987-1.491 2.496-1.491 5.442zm28.6 52.647v7.696l-52-18.997v-7.662l17.333 6.275 34.667-12.445v7.87l-24.787 8.18zm0 44.153v7.211h-34.667v-7.245l5.027-.278q-2.67-1.525-4.299-4.125-1.63-2.6-1.63-6.136 0-3.813 1.422-7.176 1.456-3.363 4.022-5.928 2.565-2.53 5.893-3.952 3.363-1.421 7.21-1.421 3.71 0 6.969 1.386 3.293 1.387 5.754 3.848 2.462 2.462 3.848 5.686 1.422 3.258 1.422 6.968 0 3.778-1.734 6.656-1.698 2.912-4.368 4.818zm-28.6-10.746q0 3.05 1.49 5.338 1.526 2.288 4.091 3.536 2.566 1.283 5.686 1.283 3.154 0 5.72-1.283 2.565-1.282 4.056-3.57 1.525-2.254 1.525-5.304 0-3.016-1.525-5.512-1.526-2.496-4.091-3.952-2.565-1.456-5.685-1.456-3.155 0-5.72 1.49-2.531 1.526-4.056 3.987-1.491 2.496-1.491 5.443zm15.67 61.59h-21.737v-7.21h19.968q2.323 0 4.23-1.144 1.906-1.11 3.016-3.016 1.144-1.872 1.144-4.23 0-2.288-1.144-4.194-1.11-1.907-3.016-3.05-1.907-1.145-4.23-1.145h-19.968v-7.21h34.667v7.21h-3.675q2.15 1.803 3.397 4.437 1.248 2.635 1.248 5.686 0 3.848-1.872 7.002-1.871 3.155-5.026 4.992-3.155 1.872-7.003 1.872zm-8.737 11.047h21.667v7.21h-19.899q-2.322 0-4.23 1.145-1.906 1.144-3.05 3.05-1.11 1.907-1.11 4.195 0 2.323 1.11 4.195 1.144 1.906 3.05 3.016 1.908 1.144 4.23 1.144h19.899v7.21l-34.667.035v-7.21l3.744-.035q-2.15-1.768-3.397-4.403-1.248-2.635-1.248-5.65 0-3.849 1.872-7.003 1.872-3.155 5.027-5.027 3.154-1.872 7.002-1.872zm22.637 61.903q0 5.061-2.46 9.186-2.462 4.16-6.622 6.622-4.125 2.461-9.187 2.461-3.778 0-7.106-1.421-3.294-1.422-5.824-3.952-2.496-2.496-3.918-5.824-1.421-3.294-1.421-7.072 0-3.64 1.664-6.379 1.699-2.704 4.333-4.437h-5.096v-7.21h52v7.21h-22.36q2.67 1.733 4.334 4.437 1.664 2.739 1.664 6.379zm-29.535-.07q0 3.016 1.525 5.512 1.525 2.496 4.09 3.952 2.566 1.491 5.651 1.491 3.155 0 5.72-1.49 2.566-1.491 4.056-3.987 1.526-2.496 1.526-5.478 0-3.016-1.526-5.304-1.525-2.288-4.09-3.57-2.566-1.283-5.686-1.283t-5.685 1.283q-2.565 1.282-4.09 3.57-1.491 2.288-1.491 5.304zm28.565 28.797v7.21h-34.667v-7.21zm5.027 3.674q0-1.664 1.074-2.773 1.075-1.11 2.704-1.11 1.595 0 2.67 1.11 1.109 1.11 1.109 2.739 0 1.594-1.11 2.704-1.074 1.109-2.669 1.109-1.63 0-2.704-1.11-1.074-1.074-1.074-2.669zm-40.352 27.306q.173-2.74 1.109-5.34.936-2.6 2.53-4.575 1.63-1.941 3.814-2.912l2.635 6.136q-.936.45-1.838 1.56-.901 1.144-1.49 2.67-.555 1.525-.555 3.189 0 1.629.45 3.016.486 1.42 1.457 2.322.97.902 2.322.902 1.526 0 2.358-1.04.866-1.006 1.317-2.531.45-1.525.867-3.05.762-3.398 2.08-6.24 1.352-2.809 3.432-4.473 2.114-1.664 5.165-1.664 3.328 0 5.755 1.803 2.46 1.803 3.778 4.715 1.317 2.946 1.317 6.274 0 4.16-1.767 7.627-1.768 3.467-4.854 5.304l-3.397-5.72q1.04-.52 1.872-1.56.832-1.04 1.317-2.357.52-1.318.59-2.74.069-1.767-.416-3.292-.451-1.491-1.456-2.392-1.006-.902-2.566-.902-1.525 0-2.288 1.075-.728 1.075-1.178 2.704-.451 1.664-1.006 3.397-.97 3.086-2.392 5.79-1.386 2.704-3.432 4.368-2.045 1.664-4.992 1.594-3.258 0-5.72-1.976-2.461-1.941-3.744-5.061-1.282-3.12-1.074-6.621z" aria-label="zerodayanubis" style="font-weight:600;font-size:69.3333px;font-family:Urbanist;-inkscape-font-specification:&quot;Urbanist Semi-Bold&quot;;letter-spacing:5.5px;word-spacing:0;writing-mode:tb-rl;direction:rtl;text-orientation:sideways;fill:#ff0038;stroke:url(#h);stroke-width:2.15433;stroke-linejoin:round;stroke-dasharray:30.1606,4.30866"/>
  <path d="M867.02 76.25v6.657h-32v-6.688l4.64-.256q-2.464-1.408-3.968-3.808t-1.504-5.664q0-3.52 1.312-6.624 1.344-3.104 3.712-5.472 2.368-2.336 5.44-3.648 3.104-1.312 6.656-1.312 3.424 0 6.432 1.28 3.04 1.28 5.312 3.552 2.272 2.272 3.552 5.248 1.312 3.008 1.312 6.432 0 3.488-1.6 6.144-1.568 2.688-4.032 4.448zm-26.4-9.92q0 2.817 1.376 4.929 1.408 2.112 3.776 3.264 2.368 1.184 5.248 1.184 2.912 0 5.28-1.184 2.368-1.184 3.744-3.296 1.408-2.08 1.408-4.896 0-2.784-1.408-5.088-1.408-2.304-3.776-3.648-2.368-1.344-5.248-1.344-2.912 0-5.28 1.376-2.336 1.408-3.744 3.68-1.376 2.304-1.376 5.024zm42.4 51.765v6.656h-48v-6.656h4.704q-2.496-1.568-4.032-4.096-1.504-2.528-1.504-5.92 0-3.488 1.312-6.528 1.312-3.04 3.616-5.376 2.336-2.304 5.376-3.616 3.04-1.312 6.528-1.312 3.488 0 6.528 1.312 3.072 1.312 5.376 3.616 2.336 2.336 3.648 5.376 1.312 3.04 1.312 6.528 0 3.392-1.536 5.92-1.504 2.528-3.968 4.096zm-42.4-9.952q0 2.816 1.376 4.928 1.408 2.112 3.776 3.264 2.368 1.184 5.248 1.184 2.912 0 5.28-1.184 2.368-1.184 3.744-3.296 1.408-2.08 1.408-4.896 0-2.784-1.408-5.088-1.408-2.272-3.776-3.648-2.368-1.344-5.248-1.344-2.912 0-5.28 1.376-2.336 1.408-3.744 3.68-1.376 2.304-1.376 5.024zm-5.6 28.788h32v6.656h-3.392q1.984 1.664 3.136 4.096 1.152 2.432 1.152 5.248 0 1.792-.48 3.552l-6.72-2.656q.48-1.248.48-2.496 0-2.112-1.056-3.872-1.024-1.76-2.784-2.816-1.76-1.056-3.904-1.056H835.02zm32 27.764v6.656h-32v-6.656zm4.64 3.392q0-1.536.992-2.56t2.496-1.024q1.472 0 2.464 1.024 1.024 1.024 1.024 2.528 0 1.472-1.024 2.496-.992 1.024-2.464 1.024-1.504 0-2.496-1.024-.992-.992-.992-2.464zm2.624 23.668h-7.264v9.024h-6.656v-9.024H835.02v-6.656h25.344v-3.808h6.656v3.808h7.264q2.624 0 4.768 1.28 2.176 1.28 3.456 3.424 1.28 2.176 1.28 4.832 0 1.92-.768 3.744-.768 1.824-2.368 3.264l-4.704-4.768q.576-.352.864-.992.32-.608.32-1.248 0-1.184-.832-2.048-.832-.832-2.016-.832zm-13.92 36.66v-6.72l-25.344-.032v-6.656l25.344.032v-5.088h6.656v5.088l10.048-.032v6.656l-10.048.032v6.72zm6.656 30.088v6.656h-32v-6.656zm4.64 3.392q0-1.536.992-2.56t2.496-1.024q1.472 0 2.464 1.024 1.024 1.024 1.024 2.528 0 1.472-1.024 2.496-.992 1.024-2.464 1.024-1.504 0-2.496-1.024-.992-.992-.992-2.464zm-16.576 44.052H835.02v-6.656h18.432q2.144 0 3.904-1.056 1.76-1.024 2.784-2.784 1.056-1.728 1.056-3.904 0-2.112-1.056-3.872-1.024-1.76-2.784-2.816-1.76-1.056-3.904-1.056H835.02v-6.656h32v6.656h-3.392q1.984 1.664 3.136 4.096 1.152 2.432 1.152 5.248 0 3.552-1.728 6.464-1.728 2.912-4.64 4.608-2.912 1.728-6.464 1.728zm0 59.56H835.02v-6.656h18.432q2.144 0 3.904-1.056 1.76-1.024 2.784-2.784 1.056-1.728 1.056-3.904 0-2.112-1.056-3.872-1.024-1.76-2.784-2.816-1.76-1.056-3.904-1.056H835.02v-6.656h32v6.656h-3.392q1.984 1.664 3.136 4.096 1.152 2.432 1.152 5.248 0 3.552-1.728 6.464-1.728 2.912-4.64 4.608-2.912 1.728-6.464 1.728zm-20.896 24.34q0-4.416 2.272-8.064 2.272-3.616 6.08-5.792 3.84-2.144 8.48-2.144 3.52 0 6.56 1.248 3.072 1.248 5.376 3.424 2.336 2.208 3.648 5.12 1.312 2.912 1.312 6.208 0 4.416-2.272 8.032-2.272 3.648-6.112 5.792-3.84 2.176-8.512 2.176-3.488 0-6.528-1.248-3.04-1.248-5.376-3.456-2.304-2.176-3.616-5.088-1.312-2.88-1.312-6.208zm6.656 0q0 2.656 1.408 4.768 1.408 2.112 3.712 3.328 2.336 1.248 5.056 1.248 2.784 0 5.12-1.28 2.336-1.248 3.712-3.36 1.408-2.112 1.408-4.704 0-2.624-1.408-4.768-1.408-2.112-3.744-3.36-2.336-1.216-5.088-1.216-2.848 0-5.152 1.28-2.304 1.28-3.68 3.392-1.344 2.144-1.344 4.672zm19.52 42.388v-6.72l-25.344-.032v-6.656l25.344.032v-5.088h6.656v5.088l10.048-.032v6.656l-10.048.032v6.72zm6.656 9.812v6.656h-32v-6.656zm4.64 3.392q0-1.536.992-2.56t2.496-1.024q1.472 0 2.464 1.024 1.024 1.024 1.024 2.528 0 1.472-1.024 2.496-.992 1.024-2.464 1.024-1.504 0-2.496-1.024-.992-.992-.992-2.464zm-37.472 28.948q0-4.416 2.272-8.064 2.272-3.616 6.08-5.792 3.84-2.144 8.48-2.144 3.52 0 6.56 1.248 3.072 1.248 5.376 3.424 2.336 2.208 3.648 5.12 1.312 2.912 1.312 6.208 0 4.416-2.272 8.032-2.272 3.648-6.112 5.792-3.84 2.176-8.512 2.176-3.488 0-6.528-1.248-3.04-1.248-5.376-3.456-2.304-2.176-3.616-5.088-1.312-2.88-1.312-6.208zm6.656 0q0 2.656 1.408 4.768 1.408 2.112 3.712 3.328 2.336 1.248 5.056 1.248 2.784 0 5.12-1.28 2.336-1.248 3.712-3.36 1.408-2.112 1.408-4.704 0-2.624-1.408-4.768-1.408-2.112-3.744-3.36-2.336-1.216-5.088-1.216-2.848 0-5.152 1.28-2.304 1.28-3.68 3.392-1.344 2.144-1.344 4.672zm14.24 54.484H835.02v-6.656h18.432q2.144 0 3.904-1.056 1.76-1.024 2.784-2.784 1.056-1.728 1.056-3.904 0-2.112-1.056-3.872-1.024-1.76-2.784-2.816-1.76-1.056-3.904-1.056H835.02v-6.656h32v6.656h-3.392q1.984 1.664 3.136 4.096 1.152 2.432 1.152 5.248 0 3.552-1.728 6.464-1.728 2.912-4.64 4.608-2.912 1.728-6.464 1.728zm-20.672 20.5q.16-2.528 1.024-4.928t2.336-4.224q1.504-1.792 3.52-2.688l2.432 5.664q-.864.416-1.696 1.44-.832 1.056-1.376 2.464-.512 1.408-.512 2.944 0 1.504.416 2.784.448 1.312 1.344 2.144.896.832 2.144.832 1.408 0 2.176-.96.8-.928 1.216-2.336.416-1.408.8-2.816.704-3.136 1.92-5.76 1.248-2.592 3.168-4.128 1.952-1.536 4.768-1.536 3.072 0 5.312 1.664 2.272 1.664 3.488 4.352 1.216 2.72 1.216 5.792 0 3.84-1.632 7.04t-4.48 4.896l-3.136-5.28q.96-.48 1.728-1.44t1.216-2.176q.48-1.216.544-2.528.064-1.632-.384-3.04-.416-1.376-1.344-2.208-.928-.832-2.368-.832-1.408 0-2.112.992-.672.992-1.088 2.496-.416 1.536-.928 3.136-.896 2.848-2.208 5.344-1.28 2.496-3.168 4.032-1.888 1.536-4.608 1.472-3.008 0-5.28-1.824-2.272-1.792-3.456-4.672-1.184-2.88-.992-6.112z" aria-label="adrift in notions" style="font-weight:600;font-size:64px;font-family:Urbanist;-inkscape-font-specification:&quot;Urbanist Semi-Bold&quot;;letter-spacing:4.5px;word-spacing:0;writing-mode:tb-rl;fill:#262127;stroke:#ff003b;stroke-width:2.15433;stroke-linejoin:round;stroke-dasharray:30.1606,4.30866"/>
  <path d="M321.26 2.253V44.78zM321.26 50.108v42.526zM318.898 47.324h-42.526zM366.148 47.324h-42.526zM994.016 1572.283l-37.796-37.795zM956.22 1526.93l37.796-37.796zM948.661 1534.488l-37.795 37.795zM948.661 1526.93l-37.795-37.796z" style="fill:none;fill-opacity:1;stroke:#39343a;stroke-width:1.02047;stroke-linecap:butt;stroke-linejoin:round;stroke-dasharray:none;stroke-dashoffset:0;stroke-opacity:1;paint-order:normal"/>
  <g style="opacity:.11;mix-blend-mode:hard-light;filter:url(#i)">
    <rect width="1122.52" height="46.814" style="fill:#4537fb;fill-opacity:1;stroke:none;stroke-width:1.02047;stroke-linecap:butt;stroke-linejoin:round;stroke-dasharray:none;stroke-dashoffset:0;stroke-opacity:1;paint-order:normal"/>
    <rect width="1122.52" height="14.613" y="1572.789" style="fill:#4537fb;fill-opacity:1;stroke:none;stroke-width:1.02047;stroke-linecap:butt;stroke-linejoin:round;stroke-dasharray:none;stroke-dashoffset:0;stroke-opacity:1;paint-order:normal"/>
    <rect width="1122.52" height="56.133" y="1058.268" style="fill:#4537fb;fill-opacity:1;stroke:none;stroke-width:1.02047;stroke-linecap:butt;stroke-linejoin:round;stroke-dasharray:none;stroke-dashoffset:0;stroke-opacity:1;paint-order:normal"/>
    <rect width="1122.52" height="26.099" y="308.362" style="fill:#4537fb;fill-opacity:1;stroke:none;stroke-width:1.02047;stroke-linecap:butt;stroke-linejoin:round;stroke-dasharray:none;stroke-dashoffset:0;stroke-opacity:1;paint-order:normal"/>
  </g>
</svg>
