<svg xmlns="http://www.w3.org/2000/svg" xmlns:xlink="http://www.w3.org/1999/xlink" width="3508" height="4961" viewBox="0 0 3508 4961">
  <title>Wretched Witness</title>
  <defs>
    <linearGradient id="q">
      <stop offset="0" style="stop-color:#ae365f;stop-opacity:.50116009"/>
      <stop offset="1" style="stop-color:#55206f;stop-opacity:1"/>
    </linearGradient>
    <linearGradient id="p">
      <stop offset="0" style="stop-color:#ff4550;stop-opacity:1"/>
      <stop offset="1" style="stop-color:#fa3c4b;stop-opacity:.84686774"/>
    </linearGradient>
    <linearGradient id="o">
      <stop offset="0" style="stop-color:#cd316b;stop-opacity:.92807424"/>
      <stop offset="1" style="stop-color:#ff4550;stop-opacity:1"/>
    </linearGradient>
    <linearGradient id="n">
      <stop offset="0" style="stop-color:#eb142d;stop-opacity:1"/>
      <stop offset="1" style="stop-color:#eb142d;stop-opacity:.75174016"/>
    </linearGradient>
    <linearGradient id="m">
      <stop offset="0" style="stop-color:#eb142d;stop-opacity:1"/>
      <stop offset="1" style="stop-color:#eb142d;stop-opacity:.84686774"/>
    </linearGradient>
    <linearGradient id="l">
      <stop offset="0" style="stop-color:#d2001e;stop-opacity:1"/>
      <stop offset="1" style="stop-color:#9f2096;stop-opacity:.35266823"/>
    </linearGradient>
    <linearGradient id="k">
      <stop offset="0" style="stop-color:#7d2769;stop-opacity:.87006962"/>
      <stop offset="1" style="stop-color:#700a60;stop-opacity:.20185615"/>
    </linearGradient>
    <linearGradient id="j">
      <stop offset="0" style="stop-color:#3c0532;stop-opacity:.4037123"/>
      <stop offset="1" style="stop-color:#420638;stop-opacity:1"/>
    </linearGradient>
    <linearGradient id="i">
      <stop offset="0" style="stop-color:#410a3c;stop-opacity:1"/>
      <stop offset="1" style="stop-color:#3c0537;stop-opacity:.25058007"/>
    </linearGradient>
    <linearGradient id="h">
      <stop offset="0" style="stop-color:#1e0444;stop-opacity:1"/>
      <stop offset="1" style="stop-color:#16043c;stop-opacity:.39907193"/>
    </linearGradient>
    <linearGradient id="g">
      <stop offset="0" style="stop-color:#1a0438;stop-opacity:.4013921"/>
      <stop offset="1" style="stop-color:#16043c;stop-opacity:1"/>
    </linearGradient>
    <linearGradient id="f">
      <stop offset="0" style="stop-color:#ff334e;stop-opacity:.54988396"/>
      <stop offset="1" style="stop-color:#ff6955;stop-opacity:.67285383"/>
    </linearGradient>
    <linearGradient id="e">
      <stop offset="0" style="stop-color:#3d41ac;stop-opacity:.59628773"/>
      <stop offset="1" style="stop-color:#30203d;stop-opacity:1"/>
    </linearGradient>
    <linearGradient id="d">
      <stop offset="0" style="stop-color:#ff2d89;stop-opacity:.30394432"/>
      <stop offset="1" style="stop-color:#6d3466;stop-opacity:1"/>
    </linearGradient>
    <linearGradient id="c">
      <stop offset="0" style="stop-color:#9a1340;stop-opacity:1"/>
      <stop offset="1" style="stop-color:#23004d;stop-opacity:.62645012"/>
    </linearGradient>
    <linearGradient id="b">
      <stop offset="0" style="stop-color:#c12fba;stop-opacity:.45243621"/>
      <stop offset="1" style="stop-color:#eb3a47;stop-opacity:1"/>
    </linearGradient>
    <linearGradient id="a">
      <stop offset="0" style="stop-color:#eb3a47;stop-opacity:1"/>
      <stop offset="1" style="stop-color:#7c297d;stop-opacity:.56612527"/>
    </linearGradient>
    <linearGradient xlink:href="#a" id="y" x1="560" x2="2400" y1="1160" y2="480" gradientUnits="userSpaceOnUse"/>
    <linearGradient xlink:href="#b" id="z" x1="3800" x2="1720" y1="2120" y2="3040" gradientUnits="userSpaceOnUse"/>
    <linearGradient xlink:href="#c" id="r" x1="-200" x2="2480" y1="4240" y2="2000" gradientUnits="userSpaceOnUse"/>
    <linearGradient xlink:href="#d" id="s" x1="840" x2="3240" y1="1640" y2="3480" gradientUnits="userSpaceOnUse"/>
    <linearGradient xlink:href="#e" id="t" x1="1760" x2="3508" y1="1240" y2="1240" gradientUnits="userSpaceOnUse"/>
    <linearGradient xlink:href="#f" id="u" x1="0" x2="1760" y1="3720.5" y2="3720.5" gradientUnits="userSpaceOnUse"/>
    <linearGradient xlink:href="#g" id="A" x1="40" x2="1560" y1="280" y2="2280" gradientUnits="userSpaceOnUse"/>
    <linearGradient xlink:href="#h" id="B" x1="1760" x2="3508" y1="3720.5" y2="3720.5" gradientUnits="userSpaceOnUse"/>
    <linearGradient xlink:href="#i" id="C" x1="2322.886" x2="3374.709" y1="1591.692" y2="178.12" gradientUnits="userSpaceOnUse"/>
    <linearGradient xlink:href="#j" id="D" x1="0" x2="1760" y1="3720.5" y2="3720.5" gradientUnits="userSpaceOnUse"/>
    <linearGradient xlink:href="#k" id="v" x1="19.115" x2="626.922" y1="4933.968" y2="4487.763" gradientUnits="userSpaceOnUse"/>
    <linearGradient xlink:href="#l" id="G" x1="2280" x2="3400" y1="1320" y2="0" gradientUnits="userSpaceOnUse"/>
    <linearGradient xlink:href="#m" id="E" x1="960" x2="-345.989" y1="2480" y2="1497.695" gradientUnits="userSpaceOnUse"/>
    <linearGradient xlink:href="#n" id="F" x1="2461.996" x2="3508" y1="2360" y2="809.028" gradientUnits="userSpaceOnUse"/>
    <linearGradient xlink:href="#o" id="w" x1="1640.364" x2="3421.121" y1="3600" y2="3600" gradientUnits="userSpaceOnUse"/>
    <linearGradient xlink:href="#p" id="x" x1="140" x2="2080" y1="2151.719" y2="2151.719" gradientUnits="userSpaceOnUse"/>
    <linearGradient xlink:href="#q" id="K" x1="217.708" x2="1880" y1="4464.185" y2="2600" gradientUnits="userSpaceOnUse"/>
    <linearGradient xlink:href="#q" id="L" x1="217.708" x2="1880" y1="4464.185" y2="2600" gradientTransform="matrix(-1 0 0 1 2280 -601)" gradientUnits="userSpaceOnUse"/>
    <linearGradient xlink:href="#q" id="M" x1="217.708" x2="1880" y1="4464.185" y2="2600" gradientTransform="translate(1539.818 -1975.467)" gradientUnits="userSpaceOnUse"/>
    <linearGradient xlink:href="#q" id="N" x1="217.708" x2="1880" y1="4464.185" y2="2600" gradientTransform="matrix(-1 0 0 1 1930.182 -2480.5)" gradientUnits="userSpaceOnUse"/>
    <linearGradient xlink:href="#m" id="H" x1="960" x2="-345.989" y1="2480" y2="1497.695" gradientTransform="matrix(1 0 0 -1 -12 4961)" gradientUnits="userSpaceOnUse"/>
    <linearGradient xlink:href="#n" id="I" x1="2461.996" x2="3508" y1="2360" y2="809.028" gradientTransform="matrix(1 0 0 -1 -12 4961)" gradientUnits="userSpaceOnUse"/>
    <linearGradient xlink:href="#l" id="J" x1="2280" x2="3400" y1="1320" y2="0" gradientTransform="matrix(1 0 0 -1 -12 4961)" gradientUnits="userSpaceOnUse"/>
    <filter id="O" width="1" height="1" x="0" y="0" style="color-interpolation-filters:sRGB">
      <feTurbulence baseFrequency="0.002 0.107"/>
      <feColorMatrix result="result91" values="2 0 0 0 0 0 0 0 0 0 0 0 0 0 0 0 0 0 0.5 0.5"/>
      <feDisplacementMap in="SourceGraphic" in2="result91" scale="14.3" xChannelSelector="R"/>
    </filter>
  </defs>
  <g style="display:inline">
    <path d="M0 0h3508v4961H0Z" style="fill:#0b0001;stroke-width:2"/>
  </g>
  <g style="display:inline;mix-blend-mode:normal;opacity:.982">
    <path d="M0 0h3120v4600H0Z" style="display:inline;fill:url(#r);stroke-width:2"/>
    <path d="M360 360h3148v4601H360Z" style="display:inline;fill:url(#s);stroke-width:2"/>
    <path d="M1760 0h1748v2480H1760Z" style="display:inline;fill:url(#t);stroke-width:2"/>
    <path d="M0 2480h1760v2481H0Z" style="display:inline;fill:url(#u);stroke-width:2"/>
    <path d="M360 4786.42V4961H0Z" style="display:inline;fill:#cc3252;fill-opacity:1;stroke-width:12;stroke-dasharray:48,48,216"/>
    <path d="m0 4600 763.128-8.87L0 4961Z" style="display:inline;fill:url(#v);stroke-width:2"/>
  </g>
  <g style="display:inline;opacity:.5;mix-blend-mode:lighten">
    <path d="M1640.364 2360h1780.757v2480H1640.364Z" style="fill:url(#w);stroke-width:2"/>
    <path d="M140 823.438h1940V3480H140Z" style="fill:url(#x);stroke-width:2"/>
  </g>
  <g style="display:inline;opacity:.97;mix-blend-mode:normal">
    <path d="m280 80 2480 280L400 4080Z" style="fill:url(#y);stroke-width:2"/>
    <path d="m3080 680-160 3800-2520 360Z" style="fill:url(#z);stroke-width:2"/>
  </g>
  <g style="display:inline;mix-blend-mode:normal">
    <path d="m0 0 1520 737.656L1640.364 2360 280 1646.877Z" style="fill:url(#A);stroke-width:2"/>
    <path d="m1880 2600 1360 400 268 1961-1228-601z" style="fill:url(#B);stroke-width:2"/>
    <path d="M1964.379 737.656 3508 0l-388 1684.533L1880 2360Z" style="fill:url(#C);stroke-width:2"/>
    <path d="M280 3001.711 1631.19 2600 1240 4360 0 4961Z" style="fill:url(#D);stroke-width:2"/>
  </g>
  <g style="display:inline;opacity:.091;mix-blend-mode:color-dodge">
    <path d="m0 0 1360 880 400 1600-1280-960Z" style="fill:url(#E);fill-opacity:1;stroke-width:2"/>
    <path d="M3520 0 2160 880l-400 1600 1280-960Z" style="display:inline;fill:url(#F);fill-opacity:1;stroke-width:2"/>
    <path d="M960-40h1600l-800 2520z" style="fill:url(#G);stroke-width:2"/>
  </g>
  <g style="display:inline;opacity:.061;mix-blend-mode:color-dodge">
    <path d="m-12 4961 1360-880 400-1600-1280 960Z" style="fill:url(#H);fill-opacity:1;stroke-width:2"/>
    <path d="m3508 4961-1360-880-400-1600 1280 960Z" style="display:inline;fill:url(#I);fill-opacity:1;stroke-width:2"/>
    <path d="M948 5001h1600l-800-2520z" style="fill:url(#J);stroke-width:2"/>
  </g>
  <g style="display:inline;opacity:.091;mix-blend-mode:overlay">
    <path d="M140 2937.63 1640.364 2480 1520 4840 0 4961Z" style="fill:url(#K);stroke-width:2"/>
    <path d="M2140 2336.63 639.636 1879 760 4239l1520 121Z" style="fill:url(#L);stroke-width:2"/>
    <path d="m1679.818 962.164 1500.364-457.63-120.364 2360-1520 121z" style="fill:url(#M);stroke-width:2"/>
    <path d="M1790.182 457.13 289.818-.5l120.364 2360 1520 121z" style="fill:url(#N);stroke-width:2"/>
  </g>
  <g style="display:inline;opacity:.75;mix-blend-mode:darken">
    <path d="m590.07 2413.887-34.731 33.45h30.037l-.64 4.608h-36.437l.64-4.608 34.73-33.45h-30.037l.64-4.608h36.437zm31.546 39.168q-5.888 0-10.325-3.03-4.395-3.029-6.571-8.106-2.133-5.12-1.28-11.307.64-4.693 2.859-8.747 2.26-4.096 5.632-7.168 3.37-3.114 7.466-4.864 4.139-1.749 8.534-1.749 4.65 0 8.32 1.835 3.712 1.792 6.1 5.077 2.39 3.285 3.286 7.765.939 4.438.043 9.728h-37.675q-.17 4.566 1.579 8.192 1.792 3.584 5.035 5.675 3.285 2.048 7.637 2.09 4.736 0 8.917-2.474 4.182-2.517 7.04-6.87l4.48 1.067q-3.37 5.675-9.045 9.302-5.632 3.584-12.032 3.584zm-13.184-24.491h33.195q.34-4.395-1.451-8.064-1.75-3.712-5.077-5.93-3.328-2.22-7.723-2.22-4.437 0-8.363 2.177-3.925 2.176-6.741 5.888-2.773 3.669-3.84 8.149zm51.984 23.381 5.973-42.666h4.608l-.896 6.528q2.816-3.542 6.87-5.632 4.096-2.091 8.576-2.091 2.517 0 4.736.64l-2.56 4.523q-1.707-.512-3.5-.512-3.796 0-7.167 1.834-3.37 1.835-5.632 4.95-2.261 3.114-2.816 6.912l-3.584 25.514zm55.653 1.11q-5.888 0-10.325-3.03-4.395-3.029-6.57-8.106-2.134-5.12-1.28-11.307.64-4.693 2.858-8.747 2.261-4.096 5.632-7.168 3.37-3.114 7.467-4.864 4.138-1.749 8.533-1.749 5.888 0 10.283 3.03 4.437 3.029 6.613 8.149 2.176 5.12 1.28 11.349-.64 4.65-2.901 8.704-2.219 4.053-5.59 7.168-3.37 3.072-7.466 4.821-4.096 1.75-8.534 1.75zm.64-4.608q4.694 0 8.832-2.475 4.139-2.475 6.955-6.528 2.816-4.053 3.456-8.832.683-4.821-.981-8.917-1.664-4.096-5.078-6.528-3.413-2.475-8.149-2.475-4.736 0-8.875 2.475-4.138 2.474-6.912 6.57-2.773 4.054-3.456 8.875-.682 4.992 1.024 9.045 1.707 4.011 5.163 6.4 3.456 2.39 8.021 2.39zm82.619-60.502h4.608l-8.96 64h-4.608l1.237-8.789q-2.858 4.48-7.338 7.21-4.48 2.689-10.155 2.689-4.65 0-8.49-1.75-3.798-1.749-6.443-4.821-2.646-3.115-3.84-7.168-1.152-4.053-.512-8.704.64-4.65 2.944-8.704 2.346-4.096 5.845-7.168 3.541-3.115 7.85-4.864 4.31-1.75 8.96-1.75 5.675 0 9.387 2.731 3.712 2.688 5.334 7.126zm-24.576 60.587q4.95 0 8.79-2.39 3.882-2.431 6.314-6.527t3.157-9.003q.726-5.035-.64-9.088-1.322-4.096-4.522-6.485-3.158-2.432-8.022-2.432-4.906 0-9.301 2.432-4.352 2.432-7.339 6.528-2.986 4.096-3.67 9.045-.682 5.035 1.153 9.088 1.877 4.053 5.59 6.443 3.711 2.389 8.49 2.389zm82.235-39.253h4.608l-5.974 42.666h-4.608l1.11-8.746q-2.816 4.437-7.254 7.168-4.394 2.688-10.026 2.688-4.651 0-8.491-1.75-3.84-1.792-6.528-4.864-2.645-3.114-3.84-7.168-1.152-4.096-.47-8.789.64-4.65 2.902-8.704 2.304-4.053 5.803-7.125 3.54-3.115 7.808-4.822 4.309-1.749 8.917-1.749 5.675 0 9.472 2.773 3.797 2.731 5.461 7.168zm-21.59 39.253q4.95 0 8.79-2.39 3.882-2.431 6.314-6.527t3.158-9.003q.725-5.035-.64-9.088-1.323-4.096-4.523-6.485-3.157-2.432-8.021-2.432-4.907 0-9.302 2.432-4.394 2.432-7.381 6.528-2.944 4.096-3.627 9.045-.682 5.035 1.152 9.088 1.878 4.053 5.59 6.443 3.712 2.389 8.49 2.389zm73.318-39.253h4.821l-32.299 64h-4.906l10.794-21.334-9.344-42.666h5.035l7.467 36.309zm57.274 0h4.608l-5.973 42.666h-4.608l1.11-8.746q-2.817 4.437-7.254 7.168-4.395 2.688-10.027 2.688-4.65 0-8.49-1.75-3.84-1.792-6.528-4.864-2.646-3.114-3.84-7.168-1.152-4.096-.47-8.789.64-4.65 2.902-8.704 2.304-4.053 5.802-7.125 3.542-3.115 7.808-4.822 4.31-1.749 8.918-1.749 5.674 0 9.472 2.773 3.797 2.731 5.461 7.168zm-21.589 39.253q4.95 0 8.79-2.39 3.882-2.431 6.314-6.527t3.157-9.003q.726-5.035-.64-9.088-1.322-4.096-4.522-6.485-3.158-2.432-8.022-2.432-4.906 0-9.301 2.432-4.395 2.432-7.381 6.528-2.944 4.096-3.627 9.045-.683 5.035 1.152 9.088 1.877 4.053 5.59 6.443 3.711 2.389 8.49 2.389zm78.992-22.827-3.67 26.24h-4.607l3.584-25.514q.512-3.798-.896-6.912-1.408-3.115-4.267-4.95-2.816-1.834-6.613-1.834-3.798 0-7.168 1.834-3.371 1.835-5.632 4.95-2.262 3.114-2.816 6.912l-3.584 25.514h-4.608l5.973-42.666h4.608l-.896 6.528q2.816-3.542 6.87-5.632 4.095-2.091 8.575-2.091 4.907 0 8.534 2.39 3.669 2.346 5.461 6.357 1.835 4.01 1.152 8.874zm15.461 9.728 3.67-26.154h4.608l-3.584 25.429q-.512 3.797.896 6.912 1.408 3.115 4.266 4.95 2.859 1.834 6.614 1.834 3.797 0 7.168-1.835 3.37-1.834 5.632-4.949 2.304-3.115 2.858-6.912l3.542-25.43h4.608l-5.974 42.667h-4.608l.896-6.613q-2.773 3.499-6.87 5.632-4.052 2.09-8.575 2.09-4.864 0-8.533-2.346-3.67-2.39-5.504-6.4-1.792-4.01-1.11-8.875zm80.4-27.349q6.187 0 10.838 3.03 4.693 3.029 6.997 8.149 2.347 5.077 1.45 11.306-.64 4.651-2.986 8.747-2.304 4.053-5.845 7.168-3.499 3.072-7.808 4.821-4.31 1.75-8.96 1.75-5.675 0-9.387-2.731-3.67-2.73-5.29-7.168l-1.238 8.79h-4.608l8.96-64h4.608l-4.181 30.037q2.858-4.438 7.296-7.168 4.48-2.731 10.154-2.731zm-5.717 40.448q4.95 0 9.301-2.432 4.395-2.432 7.339-6.485 2.987-4.096 3.712-9.046.725-5.034-1.152-9.088-1.877-4.096-5.632-6.485-3.712-2.39-8.49-2.39-4.95 0-8.833 2.433-3.84 2.432-6.314 6.528-2.432 4.096-3.115 9.002-.683 5.035.64 9.088 1.323 4.054 4.48 6.486 3.2 2.389 8.064 2.389zm45.157-39.253h4.608l-5.973 42.666h-4.608zm3.499-8.064q-1.195 0-1.92-.768-.725-.811-.555-2.006.171-1.194 1.11-1.962.938-.811 2.133-.811 1.152 0 1.877.81.726.769.555 1.963-.213 1.195-1.11 2.006-.895.768-2.09.768zm28.432 51.541q-3.541-.043-6.784-1.237-3.2-1.238-5.419-3.286-2.218-2.048-2.858-4.65l4.309-1.75q.47 1.92 2.304 3.456 1.835 1.536 4.352 2.432 2.517.854 4.992.854 2.901 0 5.547-.982 2.688-.981 4.522-2.773 1.835-1.792 2.134-4.224.384-2.56-1.11-4.01-1.45-1.494-3.925-2.39-2.432-.939-5.035-1.75-4.48-1.365-7.722-2.773-3.243-1.45-4.822-3.669-1.578-2.219-1.066-5.845.512-3.755 3.072-6.528 2.602-2.774 6.357-4.267 3.755-1.536 7.808-1.536 5.248 0 9.173 2.304 3.968 2.304 5.248 6.059l-4.096 2.218q-.555-1.962-2.219-3.37-1.62-1.408-3.882-2.176-2.219-.768-4.566-.811-2.986-.043-5.717.939-2.73.938-4.565 2.773-1.792 1.792-2.176 4.352-.384 2.56.896 3.925 1.28 1.366 3.755 2.219 2.474.81 5.717 1.92 3.797 1.237 6.997 2.773 3.243 1.494 5.035 3.755 1.792 2.261 1.28 5.845-.555 3.755-3.2 6.528-2.603 2.774-6.443 4.267-3.797 1.493-7.893 1.408z" aria-label="zerodayanubis" style="font-style:italic;font-weight:300;font-size:85.3333px;font-family:Urbanist;-inkscape-font-specification:&quot;Urbanist Light Italic&quot;;letter-spacing:10px;word-spacing:0;fill:#331d57;stroke-width:12;stroke-dasharray:48,48,216"/>
  </g>
  <g style="display:inline">
    <path d="M2062.379 2451.945h-7.254l-8.32-42.666h6.998l6.442 32.554 15.446-32.554h7.38l6.358 32.554 15.445-32.554h7.083l-20.266 42.666h-7.296l-6.4-32.853zm65.517 0 5.973-42.666h7.168l-.725 5.333q2.688-2.987 6.357-4.736 3.712-1.792 7.765-1.792 2.475 0 4.694.64l-3.926 7.168q-1.62-.555-3.328-.555-3.242 0-6.1 1.579-2.86 1.536-4.822 4.181-1.92 2.646-2.39 5.888l-3.498 24.96zm61.805 1.11q-5.888 0-10.325-3.03-4.395-3.029-6.57-8.106-2.134-5.12-1.28-11.307.64-4.693 2.858-8.747 2.261-4.096 5.632-7.168 3.37-3.114 7.466-4.864 4.14-1.749 8.534-1.749 4.821 0 8.576 1.963 3.754 1.92 6.144 5.376 2.39 3.456 3.2 8.021.81 4.565-.342 9.77h-34.773q-.043 3.627 1.45 6.486 1.494 2.816 4.14 4.48 2.687 1.664 6.271 1.707 3.84 0 7.254-1.963 3.413-2.005 5.802-5.461l7.04 1.706q-3.37 5.675-9.045 9.302-5.632 3.584-12.032 3.584zm-10.325-25.472h27.776q.17-3.584-1.366-6.528-1.536-2.987-4.309-4.779-2.73-1.792-6.315-1.792-3.626 0-6.869 1.75-3.2 1.749-5.59 4.735-2.346 2.944-3.327 6.614zm80.365-11.136h-9.685l-5.035 35.498h-7.168l5.035-35.498h-7.339l.981-7.168h7.339l1.835-13.398h7.168l-1.835 13.398h9.685zm47.512 24.234 5.888 3.456q-3.499 4.054-8.277 6.486-4.78 2.432-9.984 2.432-5.888 0-10.326-3.03-4.394-3.029-6.57-8.106-2.134-5.12-1.28-11.307.64-4.693 2.858-8.747 2.262-4.096 5.632-7.168 3.37-3.114 7.467-4.864 4.139-1.749 8.533-1.749 5.206 0 9.302 2.432 4.138 2.432 6.485 6.528l-6.912 3.456q-1.707-2.517-4.31-3.883-2.602-1.365-5.546-1.365-4.01 0-7.51 2.133-3.498 2.091-5.887 5.59-2.347 3.498-2.944 7.637-.598 4.139.81 7.637 1.408 3.456 4.31 5.547 2.944 2.09 6.869 2.09 3.2 0 6.187-1.45 2.986-1.45 5.205-3.755zm68.162-15.274-3.669 26.538h-7.168l3.456-24.96q.47-3.242-.725-5.888-1.195-2.645-3.627-4.181-2.432-1.579-5.674-1.579-3.243 0-6.102 1.579-2.858 1.536-4.821 4.181-1.92 2.646-2.39 5.888l-3.498 24.96h-7.168l8.96-64h7.168l-3.712 26.667q2.688-2.987 6.357-4.736 3.712-1.792 7.766-1.792 4.778 0 8.362 2.347 3.627 2.304 5.376 6.229 1.792 3.925 1.11 8.747zm37.614 27.648q-5.888 0-10.325-3.03-4.395-3.029-6.571-8.106-2.133-5.12-1.28-11.307.64-4.693 2.858-8.747 2.262-4.096 5.633-7.168 3.37-3.114 7.466-4.864 4.139-1.749 8.534-1.749 4.82 0 8.575 1.963 3.755 1.92 6.145 5.376 2.389 3.456 3.2 8.021.81 4.565-.342 9.77h-34.773q-.043 3.627 1.45 6.486 1.494 2.816 4.14 4.48 2.687 1.664 6.271 1.707 3.84 0 7.253-1.963 3.414-2.005 5.803-5.461l7.04 1.706q-3.37 5.675-9.045 9.302-5.632 3.584-12.032 3.584zm-10.325-25.472h27.775q.171-3.584-1.365-6.528-1.536-2.987-4.31-4.779-2.73-1.792-6.314-1.792-3.626 0-6.87 1.75-3.2 1.749-5.588 4.735-2.347 2.944-3.329 6.614zm96.834-39.638h7.168l-8.96 64h-7.168l1.024-7.253q-2.688 3.755-6.699 6.059-4.01 2.304-8.96 2.304-4.65 0-8.49-1.75-3.798-1.749-6.443-4.821-2.645-3.115-3.84-7.168-1.152-4.053-.512-8.704.64-4.65 2.944-8.704 2.347-4.096 5.845-7.168 3.542-3.115 7.851-4.864 4.31-1.75 8.96-1.75 4.95 0 8.277 2.305 3.371 2.304 4.992 6.058zm-22.57 58.155q4.223 0 7.594-2.048 3.413-2.09 5.59-5.632 2.218-3.541 2.815-7.808.598-4.352-.64-7.85-1.194-3.542-4.01-5.59-2.774-2.09-6.955-2.09-4.224 0-7.979 2.09-3.712 2.09-6.272 5.632-2.517 3.499-3.114 7.808-.598 4.31.981 7.85 1.579 3.5 4.736 5.59 3.2 2.048 7.253 2.048zm100.485 5.845h-7.253l-8.32-42.666h6.997l6.443 32.554 15.445-32.554h7.381l6.357 32.554 15.446-32.554h7.082l-20.266 42.666h-7.296l-6.4-32.853zm71.49-42.666h7.168l-5.973 42.666h-7.168zm4.651-6.955q-1.707 0-2.73-1.11-.982-1.109-.726-2.773.256-1.664 1.536-2.773 1.323-1.11 2.987-1.11 1.621 0 2.602 1.11 1.024 1.11.811 2.773-.256 1.664-1.536 2.774-1.28 1.109-2.944 1.109zm48.877 14.123h-9.685l-5.035 35.498h-7.168l5.035-35.498h-7.339l.982-7.168h7.338l1.835-13.398h7.168l-1.835 13.398h9.686zm59.032 8.96-3.669 26.538h-7.168l3.456-24.96q.47-3.242-.725-5.888-1.195-2.645-3.627-4.181-2.432-1.579-5.675-1.579-3.242 0-6.101 1.579-2.859 1.536-4.821 4.181-1.92 2.646-2.39 5.888l-3.498 24.96h-7.168l5.973-42.666h7.168l-.725 5.333q2.688-2.987 6.357-4.736 3.712-1.792 7.765-1.792 4.779 0 8.363 2.347 3.627 2.304 5.376 6.229 1.792 3.925 1.11 8.747zm37.614 27.648q-5.888 0-10.326-3.03-4.394-3.029-6.57-8.106-2.134-5.12-1.28-11.307.64-4.693 2.858-8.747 2.262-4.096 5.632-7.168 3.37-3.114 7.467-4.864 4.139-1.749 8.533-1.749 4.822 0 8.576 1.963 3.755 1.92 6.144 5.376 2.39 3.456 3.2 8.021.81 4.565-.341 9.77h-34.773q-.043 3.627 1.45 6.486 1.494 2.816 4.139 4.48 2.688 1.664 6.272 1.707 3.84 0 7.253-1.963 3.414-2.005 5.803-5.461l7.04 1.706q-3.37 5.675-9.045 9.302-5.632 3.584-12.032 3.584zm-10.326-25.472h27.776q.17-3.584-1.365-6.528-1.536-2.987-4.31-4.779-2.73-1.792-6.314-1.792-3.627 0-6.87 1.75-3.2 1.749-5.589 4.735-2.346 2.944-3.328 6.614zm66.883 25.173q-3.413-.128-6.528-1.28-3.115-1.195-5.29-3.2-2.177-2.048-2.902-4.693l6.528-2.646q.427 1.451 1.877 2.731 1.494 1.28 3.542 2.048 2.09.768 4.309.768 2.347 0 4.523-.725 2.176-.726 3.669-2.134 1.493-1.45 1.75-3.456.34-2.133-.94-3.328-1.28-1.237-3.327-1.92-2.048-.725-4.182-1.365-4.224-1.11-7.466-2.645-3.243-1.579-4.907-3.968-1.621-2.432-1.11-6.187.555-3.968 3.158-6.87 2.645-2.9 6.443-4.48 3.797-1.578 7.893-1.578 5.163 0 9.088 2.219 3.968 2.218 5.547 6.016l-6.23 3.37q-.512-1.536-1.834-2.688-1.323-1.194-3.158-1.877-1.792-.683-3.797-.725-2.517-.085-4.779.64-2.218.725-3.712 2.218-1.493 1.451-1.834 3.627-.299 2.133.896 3.243 1.237 1.109 3.37 1.792 2.176.64 4.694 1.493 3.712 1.237 6.826 2.859 3.158 1.621 4.907 4.053 1.75 2.432 1.195 6.016-.598 3.925-3.328 6.87-2.731 2.9-6.699 4.437-3.968 1.536-8.192 1.365zm51.779 0q-3.414-.128-6.528-1.28-3.115-1.195-5.291-3.2-2.176-2.048-2.901-4.693l6.528-2.646q.426 1.451 1.877 2.731 1.493 1.28 3.541 2.048 2.09.768 4.31.768 2.346 0 4.522-.725 2.176-.726 3.67-2.134 1.493-1.45 1.749-3.456.341-2.133-.939-3.328-1.28-1.237-3.328-1.92-2.048-.725-4.181-1.365-4.224-1.11-7.467-2.645-3.242-1.579-4.906-3.968-1.622-2.432-1.11-6.187.555-3.968 3.158-6.87 2.645-2.9 6.442-4.48 3.798-1.578 7.894-1.578 5.162 0 9.088 2.219 3.968 2.218 5.546 6.016l-6.23 3.37q-.511-1.536-1.834-2.688-1.322-1.194-3.157-1.877-1.792-.683-3.797-.725-2.518-.085-4.78.64-2.218.725-3.711 2.218-1.493 1.451-1.835 3.627-.298 2.133.896 3.243 1.238 1.109 3.37 1.792 2.177.64 4.694 1.493 3.712 1.237 6.827 2.859 3.157 1.621 4.907 4.053 1.749 2.432 1.194 6.016-.597 3.925-3.328 6.87-2.73 2.9-6.698 4.437-3.968 1.536-8.192 1.365z" aria-label="wretched witness" style="font-style:italic;font-weight:500;font-size:85.3333px;font-family:Urbanist;-inkscape-font-specification:&quot;Urbanist Medium Italic&quot;;letter-spacing:15px;word-spacing:0;direction:rtl;display:inline;fill:#331d57;stroke-width:12;stroke-dasharray:48,48,216;filter:url(#O)"/>
  </g>
</svg>
