<svg xmlns="http://www.w3.org/2000/svg" xmlns:xlink="http://www.w3.org/1999/xlink" width="512" height="512" viewBox="0 0 512 512"><title>ZDA Z Logo</title><defs><linearGradient id="j"><stop offset="0" style="stop-color:#fafafa;stop-opacity:.84634149"/><stop offset="1" style="stop-color:#fafafa;stop-opacity:.05121951"/></linearGradient><linearGradient id="i"><stop offset="0" style="stop-color:#fafafa;stop-opacity:.23658536"/><stop offset="1" style="stop-color:#fafafa;stop-opacity:0"/></linearGradient><linearGradient id="h"><stop offset="0" style="stop-color:#ff0039;stop-opacity:.04878049"/><stop offset="1" style="stop-color:#ff0039;stop-opacity:.84634149"/></linearGradient><linearGradient id="g"><stop offset="0" style="stop-color:#ff0039;stop-opacity:0"/><stop offset="1" style="stop-color:#ff0039;stop-opacity:.23902439"/></linearGradient><linearGradient id="f"><stop offset="0" style="stop-color:#fafafa;stop-opacity:.5487805"/><stop offset="0.5" style="stop-color:#fff;stop-opacity:1"/><stop offset="1" style="stop-color:#fafafa;stop-opacity:.5487805"/></linearGradient><linearGradient id="e"><stop offset="0" style="stop-color:#ff0039;stop-opacity:.5529412"/><stop offset="0.5" style="stop-color:#ff0048;stop-opacity:1"/><stop offset="1" style="stop-color:#ff0039;stop-opacity:.5529412"/></linearGradient><linearGradient id="d"><stop offset="0" style="stop-color:#ff0039;stop-opacity:.85365856"/><stop offset="1" style="stop-color:#ff0039;stop-opacity:.04878049"/></linearGradient><linearGradient id="c"><stop offset="0" style="stop-color:#fafafa;stop-opacity:.04705882"/><stop offset="1" style="stop-color:#fafafa;stop-opacity:.85490197"/></linearGradient><linearGradient id="a"><stop offset="0" style="stop-color:#fafafa;stop-opacity:0"/><stop offset="1" style="stop-color:#fafafa;stop-opacity:.23529412"/></linearGradient><linearGradient id="b"><stop offset="0" style="stop-color:#ff0039;stop-opacity:0"/><stop offset="1" style="stop-color:#ff0039;stop-opacity:.24146341"/></linearGradient><linearGradient xlink:href="#a" id="o" x1="161" x2="287.81036" y1="153" y2="152.8492" gradientTransform="translate(-32)" gradientUnits="userSpaceOnUse"/><linearGradient xlink:href="#b" id="q" x1="161" x2="287.67783" y1="153" y2="153.00659" gradientTransform="rotate(180 272.5 255)" gradientUnits="userSpaceOnUse"/><linearGradient xlink:href="#c" id="p" x1="161" x2="287.81036" y1="153" y2="152.8492" gradientTransform="translate(-52.5186 27)" gradientUnits="userSpaceOnUse"/><linearGradient xlink:href="#d" id="r" x1="161" x2="287.81036" y1="153" y2="152.8492" gradientTransform="translate(81.0167 177)" gradientUnits="userSpaceOnUse"/><linearGradient xlink:href="#e" id="k" x1="55" x2="460" y1="255" y2="255" gradientUnits="userSpaceOnUse"/><linearGradient xlink:href="#f" id="l" x1="55" x2="460" y1="255" y2="255" gradientUnits="userSpaceOnUse"/><linearGradient xlink:href="#g" id="m" x1="129" x2="293" y1="153" y2="153" gradientUnits="userSpaceOnUse"/><linearGradient xlink:href="#h" id="n" x1="108.48135" x2="270.99521" y1="180" y2="180" gradientUnits="userSpaceOnUse"/><linearGradient xlink:href="#i" id="s" x1="220" x2="384" y1="357" y2="357" gradientUnits="userSpaceOnUse"/><linearGradient xlink:href="#j" id="t" x1="243.98332" x2="404.53055" y1="330" y2="330" gradientUnits="userSpaceOnUse"/></defs><g style="display:inline"><path d="M50 462.5h75v25H50Zm-25-75h25v100H25Z" style="display:inline;fill:#0b0a0d;fill-opacity:1;fill-rule:evenodd;stroke-width:30;stroke-linecap:round"/></g><g style="display:inline"><path d="M465 47.5h-75v-25h75Zm25 75h-25v-100h25z" style="display:inline;fill:#0b0a0d;fill-opacity:1;fill-rule:evenodd;stroke-width:30;stroke-linecap:round"/></g><g style="display:inline"><path d="M320 135h60l-75 95h-65ZM135 90h245v45H135Z" style="display:inline;fill:#0b0a0d;fill-opacity:1;fill-rule:evenodd;stroke-width:30;stroke-linecap:round"/></g><g style="display:inline"><path d="M320 135h60l-75 95h-65ZM135 90h245v45H135Z" style="display:inline;fill:#0b0a0d;fill-opacity:1;fill-rule:evenodd;stroke-width:30;stroke-linecap:round" transform="rotate(180 257.5 255)"/></g><g style="display:inline"><path d="M78 240h382l-23 30H55Z" style="display:inline;opacity:1;fill:url(#k);fill-rule:evenodd;stroke-width:30;stroke-linecap:round"/></g><g style="display:inline"><path d="M105 180h160l-15 20H90Z" style="display:inline;fill:#ff0039;fill-rule:evenodd;stroke-width:30;stroke-linecap:round"/><path d="M143 145h150l-14 16H129Z" style="display:inline;fill:url(#m);fill-rule:evenodd;stroke-width:30;stroke-linecap:round"/><path d="M122.4814 172h148.5138l-11.9904 16H108.4814Z" style="display:inline;fill:url(#n);fill-rule:evenodd;stroke-width:30;stroke-linecap:round"/></g><g style="display:inline"><path d="M410 330H250l15-20h160z" style="display:inline;fill:#ff0039;fill-rule:evenodd;stroke-width:30;stroke-linecap:round"/><path d="M370 365H220l14-16h150z" style="display:inline;fill:url(#q);fill-rule:evenodd;stroke-width:30;stroke-linecap:round"/><path d="M256.0167 322h148.5138l-11.9904 16H243.9833z" style="display:inline;fill:url(#r);fill-rule:evenodd;stroke-width:30;stroke-linecap:round"/></g></svg>