<svg xmlns="http://www.w3.org/2000/svg" xmlns:xlink="http://www.w3.org/1999/xlink" width="512" height="512" viewBox="0 0 512 512"><title>ZDA Z Logo</title><defs><linearGradient id="t"><stop offset="0" stop-color="#044af1" stop-opacity=".3529"/><stop offset="1" stop-color="#044af1" stop-opacity="0"/></linearGradient><linearGradient id="s"><stop offset="0" stop-color="#044af1"/><stop offset="1" stop-color="#044af1" stop-opacity=".0824"/></linearGradient><linearGradient id="r"><stop offset="0" stop-color="#044af1" stop-opacity=".0842"/><stop offset="1" stop-color="#044af1"/></linearGradient><linearGradient id="q"><stop offset="0" stop-color="#044af1" stop-opacity="0"/><stop offset="1" stop-color="#044af1" stop-opacity=".3542"/></linearGradient><linearGradient id="p"><stop offset="0" stop-color="#0b3cc2" stop-opacity=".8035"/><stop offset=".5" stop-color="#0b62ff"/><stop offset="1" stop-color="#0b3cc2" stop-opacity=".8035"/></linearGradient><linearGradient id="o"><stop offset="0" stop-color="#0b0a0d" stop-opacity=".8463"/><stop offset="1" stop-color="#0b0a0d" stop-opacity=".0146"/></linearGradient><linearGradient id="n"><stop offset="0" stop-color="#0b0a0d" stop-opacity="0"/><stop offset="1" stop-color="#0b0a0d" stop-opacity=".2439"/></linearGradient><linearGradient id="m"><stop offset="0" stop-color="#0b0a0d" stop-opacity=".01"/><stop offset="1" stop-color="#0b0a0d" stop-opacity=".8488"/></linearGradient><linearGradient id="l"><stop offset="0" stop-color="#0b0a0d" stop-opacity="0"/><stop offset="1" stop-color="#0b0a0d" stop-opacity=".2366"/></linearGradient><linearGradient id="k"><stop offset="0" stop-opacity=".7951"/><stop offset=".5"/><stop offset="1" stop-opacity=".8049"/></linearGradient><linearGradient id="j"><stop offset="0" stop-color="#fafafa" stop-opacity=".8463"/><stop offset="1" stop-color="#fafafa" stop-opacity=".0512"/></linearGradient><linearGradient id="i"><stop offset="0" stop-color="#fafafa" stop-opacity=".2366"/><stop offset="1" stop-color="#fafafa" stop-opacity="0"/></linearGradient><linearGradient id="h"><stop offset="0" stop-color="#ff0039" stop-opacity=".0488"/><stop offset="1" stop-color="#ff0039" stop-opacity=".8463"/></linearGradient><linearGradient id="g"><stop offset="0" stop-color="#ff0039" stop-opacity="0"/><stop offset="1" stop-color="#ff0039" stop-opacity=".239"/></linearGradient><linearGradient id="f"><stop offset="0" stop-color="#fafafa" stop-opacity=".5488"/><stop offset=".5" stop-color="#fff"/><stop offset="1" stop-color="#fafafa" stop-opacity=".5488"/></linearGradient><linearGradient id="e"><stop offset="0" stop-color="#ff0039" stop-opacity=".5529"/><stop offset=".5" stop-color="#ff0048"/><stop offset="1" stop-color="#ff0039" stop-opacity=".5529"/></linearGradient><linearGradient id="d"><stop offset="0" stop-color="#ff0039" stop-opacity=".8537"/><stop offset="1" stop-color="#ff0039" stop-opacity=".0488"/></linearGradient><linearGradient id="c"><stop offset="0" stop-color="#fafafa" stop-opacity=".0471"/><stop offset="1" stop-color="#fafafa" stop-opacity=".8549"/></linearGradient><linearGradient id="a"><stop offset="0" stop-color="#fafafa" stop-opacity="0"/><stop offset="1" stop-color="#fafafa" stop-opacity=".2353"/></linearGradient><linearGradient id="b"><stop offset="0" stop-color="#ff0039" stop-opacity="0"/><stop offset="1" stop-color="#ff0039" stop-opacity=".2415"/></linearGradient><linearGradient xlink:href="#a" id="E" x1="161" x2="287.8104" y1="153" y2="152.8492" gradientTransform="translate(-32)" gradientUnits="userSpaceOnUse"/><linearGradient xlink:href="#b" id="G" x1="161" x2="287.6778" y1="153" y2="153.0066" gradientTransform="rotate(180 272.5 255)" gradientUnits="userSpaceOnUse"/><linearGradient xlink:href="#c" id="F" x1="161" x2="287.8104" y1="153" y2="152.8492" gradientTransform="translate(-52.5186 27)" gradientUnits="userSpaceOnUse"/><linearGradient xlink:href="#d" id="H" x1="161" x2="287.8104" y1="153" y2="152.8492" gradientTransform="translate(81.0167 177)" gradientUnits="userSpaceOnUse"/><linearGradient xlink:href="#e" id="u" x1="55" x2="460" y1="255" y2="255" gradientUnits="userSpaceOnUse"/><linearGradient xlink:href="#f" id="x" x1="55" x2="460" y1="255" y2="255" gradientUnits="userSpaceOnUse"/><linearGradient xlink:href="#g" id="y" x1="129" x2="293" y1="153" y2="153" gradientUnits="userSpaceOnUse"/><linearGradient xlink:href="#h" id="z" x1="108.4814" x2="270.9952" y1="180" y2="180" gradientUnits="userSpaceOnUse"/><linearGradient xlink:href="#i" id="M" x1="220" x2="384" y1="357" y2="357" gradientUnits="userSpaceOnUse"/><linearGradient xlink:href="#j" id="N" x1="243.9833" x2="404.5306" y1="330" y2="330" gradientUnits="userSpaceOnUse"/><linearGradient xlink:href="#k" id="w" x1="55" x2="460" y1="255" y2="255" gradientUnits="userSpaceOnUse"/><linearGradient xlink:href="#l" id="C" x1="129" x2="293" y1="153" y2="153" gradientUnits="userSpaceOnUse"/><linearGradient xlink:href="#m" id="D" x1="108.4814" x2="270.9952" y1="180" y2="180" gradientUnits="userSpaceOnUse"/><linearGradient xlink:href="#n" id="K" x1="220" x2="384" y1="357" y2="357" gradientUnits="userSpaceOnUse"/><linearGradient xlink:href="#o" id="L" x1="243.9833" x2="404.5306" y1="330" y2="330" gradientUnits="userSpaceOnUse"/><linearGradient xlink:href="#p" id="v" x1="55" x2="460" y1="255" y2="255" gradientUnits="userSpaceOnUse"/><linearGradient xlink:href="#q" id="B" x1="129" x2="293" y1="153" y2="153" gradientUnits="userSpaceOnUse"/><linearGradient xlink:href="#r" id="A" x1="108.4814" x2="270.9952" y1="180" y2="180" gradientUnits="userSpaceOnUse"/><linearGradient xlink:href="#s" id="I" x1="243.9833" x2="404.5306" y1="330" y2="330" gradientUnits="userSpaceOnUse"/><linearGradient xlink:href="#t" id="J" x1="220" x2="384" y1="357" y2="357" gradientUnits="userSpaceOnUse"/></defs><path fill="#fafafa" fill-rule="evenodd" d="M50 462.5h75v25H50Zm-25-75h25v100H25ZM465 47.5h-75v-25h75Zm25 75h-25v-100h25zM320 135h60l-75 95h-65ZM135 90h245v45H135ZM195 375h-60l75-95h65Zm185 45H135v-45h245Z"/><path fill="url(#v)" fill-rule="evenodd" d="M78 240h382l-23 30H55Z"/><g fill-rule="evenodd"><path fill="url(#A)" d="M122.4814 172h148.5138l-11.9904 16H108.4814Z"/><path fill="#0b62ff" d="M105 180h160l-15 20H90Z"/><path fill="url(#B)" d="M143 145h150l-14 16H129Z"/></g><g fill-rule="evenodd"><path fill="url(#I)" d="M256.0167 322h148.5138l-11.9904 16H243.9833z"/><path fill="#0b62ff" d="M410 330H250l15-20h160z"/><path fill="url(#J)" d="M370 365H220l14-16h150z"/></g></svg>