<svg xmlns="http://www.w3.org/2000/svg" xmlns:xlink="http://www.w3.org/1999/xlink" width="700" height="700" viewBox="0 0 700 700"><title>ZDA Z Logo</title><defs><linearGradient id="G"><stop offset=".6418" stop-color="#780005" stop-opacity=".2"/><stop offset=".9415" stop-color="#a52000"/></linearGradient><linearGradient id="F"><stop offset=".0585" stop-color="#be08ff"/><stop offset=".3617" stop-color="#002616" stop-opacity=".2"/></linearGradient><linearGradient id="E"><stop offset="0" stop-color="#505ff0"/><stop offset=".4202" stop-color="#047dfa"/><stop offset=".5035" stop-color="#1e5cff"/><stop offset="1" stop-color="#2332be"/></linearGradient><linearGradient id="D"><stop offset="0" stop-color="#0b7dff"/><stop offset=".9167" stop-color="#0b7dff" stop-opacity="0"/></linearGradient><linearGradient id="C"><stop offset=".0798" stop-color="#0b69ff" stop-opacity="0"/><stop offset="1" stop-color="#0b69ff"/></linearGradient><linearGradient id="B"><stop offset=".6418" stop-color="#780005" stop-opacity=".1985"/><stop offset=".9433" stop-color="#a52000"/></linearGradient><linearGradient id="A"><stop offset=".0585" stop-color="#be08ff"/><stop offset=".3582" stop-color="#002616" stop-opacity=".1985"/></linearGradient><linearGradient id="z"><stop offset="0" stop-color="#044af1"/><stop offset="1" stop-color="#2284ff"/></linearGradient><linearGradient id="y"><stop offset=".039" stop-color="#14cdff"/><stop offset=".6826" stop-color="#2a3cf9"/></linearGradient><linearGradient id="x"><stop offset="0" stop-color="#e8f0ff" stop-opacity=".5529"/><stop offset=".5" stop-color="#f7f5f9"/><stop offset="1" stop-color="#e8f0ff" stop-opacity=".5529"/></linearGradient><linearGradient id="w"><stop offset=".0443" stop-color="#14cdff"/><stop offset=".6844" stop-color="#2a3cf9"/></linearGradient><linearGradient id="v"><stop offset="0" stop-color="#044af1"/><stop offset="1" stop-color="#2284ff"/></linearGradient><linearGradient id="u"><stop offset="0" stop-color="#505ff0"/><stop offset=".4202" stop-color="#047dfa"/><stop offset=".5" stop-color="#1e5cff"/><stop offset="1" stop-color="#2332be"/></linearGradient><linearGradient id="t"><stop offset="0" stop-color="#044af1" stop-opacity=".3529"/><stop offset="1" stop-color="#044af1" stop-opacity="0"/></linearGradient><linearGradient id="s"><stop offset="0" stop-color="#044af1"/><stop offset="1" stop-color="#044af1" stop-opacity=".0824"/></linearGradient><linearGradient id="r"><stop offset="0" stop-color="#044af1" stop-opacity=".0842"/><stop offset="1" stop-color="#044af1"/></linearGradient><linearGradient id="q"><stop offset="0" stop-color="#044af1" stop-opacity="0"/><stop offset="1" stop-color="#044af1" stop-opacity=".3542"/></linearGradient><linearGradient id="p"><stop offset="0" stop-color="#0b3cc2" stop-opacity=".8035"/><stop offset=".5" stop-color="#0b62ff"/><stop offset="1" stop-color="#0b3cc2" stop-opacity=".8035"/></linearGradient><linearGradient id="o"><stop offset="0" stop-color="#0b0a0d" stop-opacity=".8463"/><stop offset="1" stop-color="#0b0a0d" stop-opacity=".0146"/></linearGradient><linearGradient id="n"><stop offset="0" stop-color="#0b0a0d" stop-opacity="0"/><stop offset="1" stop-color="#0b0a0d" stop-opacity=".2439"/></linearGradient><linearGradient id="m"><stop offset="0" stop-color="#0b0a0d" stop-opacity=".01"/><stop offset="1" stop-color="#0b0a0d" stop-opacity=".8488"/></linearGradient><linearGradient id="l"><stop offset="0" stop-color="#0b0a0d" stop-opacity="0"/><stop offset="1" stop-color="#0b0a0d" stop-opacity=".2366"/></linearGradient><linearGradient id="k"><stop offset="0" stop-opacity=".7951"/><stop offset=".5"/><stop offset="1" stop-opacity=".8049"/></linearGradient><linearGradient id="j"><stop offset="0" stop-color="#fafafa" stop-opacity=".8463"/><stop offset="1" stop-color="#fafafa" stop-opacity=".0512"/></linearGradient><linearGradient id="i"><stop offset="0" stop-color="#fafafa" stop-opacity=".2366"/><stop offset="1" stop-color="#fafafa" stop-opacity="0"/></linearGradient><linearGradient id="h"><stop offset="0" stop-color="#ff0039" stop-opacity=".0488"/><stop offset="1" stop-color="#ff0039" stop-opacity=".8463"/></linearGradient><linearGradient id="g"><stop offset="0" stop-color="#ff0039" stop-opacity="0"/><stop offset="1" stop-color="#ff0039" stop-opacity=".239"/></linearGradient><linearGradient id="f"><stop offset="0" stop-color="#fafafa" stop-opacity=".5488"/><stop offset=".5" stop-color="#fff"/><stop offset="1" stop-color="#fafafa" stop-opacity=".5488"/></linearGradient><linearGradient id="e"><stop offset="0" stop-color="#ff0039" stop-opacity=".5529"/><stop offset=".5" stop-color="#ff0048"/><stop offset="1" stop-color="#ff0039" stop-opacity=".5529"/></linearGradient><linearGradient id="d"><stop offset="0" stop-color="#ff0039" stop-opacity=".8537"/><stop offset="1" stop-color="#ff0039" stop-opacity=".0488"/></linearGradient><linearGradient id="c"><stop offset="0" stop-color="#fafafa" stop-opacity=".0471"/><stop offset="1" stop-color="#fafafa" stop-opacity=".8549"/></linearGradient><linearGradient id="a"><stop offset="0" stop-color="#fafafa" stop-opacity="0"/><stop offset="1" stop-color="#fafafa" stop-opacity=".2353"/></linearGradient><linearGradient id="b"><stop offset="0" stop-color="#ff0039" stop-opacity="0"/><stop offset="1" stop-color="#ff0039" stop-opacity=".2415"/></linearGradient><linearGradient xlink:href="#a" id="Z" x1="161" x2="287.8104" y1="153" y2="152.8492" gradientTransform="translate(-32)" gradientUnits="userSpaceOnUse"/><linearGradient xlink:href="#b" id="ab" x1="161" x2="287.6778" y1="153" y2="153.0066" gradientTransform="rotate(180 272.5 255)" gradientUnits="userSpaceOnUse"/><linearGradient xlink:href="#c" id="aa" x1="161" x2="287.8104" y1="153" y2="152.8492" gradientTransform="translate(-52.5186 27)" gradientUnits="userSpaceOnUse"/><linearGradient xlink:href="#d" id="ac" x1="161" x2="287.8104" y1="153" y2="152.8492" gradientTransform="translate(81.0167 177)" gradientUnits="userSpaceOnUse"/><linearGradient xlink:href="#e" id="N" x1="55" x2="460" y1="255" y2="255" gradientUnits="userSpaceOnUse"/><linearGradient xlink:href="#f" id="Q" x1="55" x2="460" y1="255" y2="255" gradientUnits="userSpaceOnUse"/><linearGradient xlink:href="#g" id="T" x1="129" x2="293" y1="153" y2="153" gradientUnits="userSpaceOnUse"/><linearGradient xlink:href="#h" id="U" x1="108.4814" x2="270.9952" y1="180" y2="180" gradientUnits="userSpaceOnUse"/><linearGradient xlink:href="#i" id="ah" x1="220" x2="384" y1="357" y2="357" gradientUnits="userSpaceOnUse"/><linearGradient xlink:href="#j" id="ai" x1="243.9833" x2="404.5306" y1="330" y2="330" gradientUnits="userSpaceOnUse"/><linearGradient xlink:href="#k" id="P" x1="55" x2="460" y1="255" y2="255" gradientUnits="userSpaceOnUse"/><linearGradient xlink:href="#l" id="X" x1="129" x2="293" y1="153" y2="153" gradientUnits="userSpaceOnUse"/><linearGradient xlink:href="#m" id="Y" x1="108.4814" x2="270.9952" y1="180" y2="180" gradientUnits="userSpaceOnUse"/><linearGradient xlink:href="#n" id="af" x1="220" x2="384" y1="357" y2="357" gradientUnits="userSpaceOnUse"/><linearGradient xlink:href="#o" id="ag" x1="243.9833" x2="404.5306" y1="330" y2="330" gradientUnits="userSpaceOnUse"/><linearGradient xlink:href="#p" id="O" x1="55" x2="460" y1="255" y2="255" gradientUnits="userSpaceOnUse"/><linearGradient xlink:href="#q" id="W" x1="129" x2="293" y1="153" y2="153" gradientUnits="userSpaceOnUse"/><linearGradient xlink:href="#r" id="V" x1="108.4814" x2="270.9952" y1="180" y2="180" gradientUnits="userSpaceOnUse"/><linearGradient xlink:href="#s" id="ad" x1="243.9833" x2="404.5306" y1="330" y2="330" gradientUnits="userSpaceOnUse"/><linearGradient xlink:href="#t" id="ae" x1="220" x2="384" y1="357" y2="357" gradientUnits="userSpaceOnUse"/><linearGradient xlink:href="#u" id="H" x1="-94" x2="512" y1="506.6142" y2="53.858" gradientUnits="userSpaceOnUse"/><linearGradient xlink:href="#v" id="K" x1="380" x2="490" y1="90" y2="47.7253" gradientUnits="userSpaceOnUse"/><linearGradient xlink:href="#w" id="J" x1="25" x2="210" y1="487.5" y2="280" gradientUnits="userSpaceOnUse"/><linearGradient xlink:href="#x" id="S" x1="55" x2="460" y1="255" y2="255" gradientUnits="userSpaceOnUse"/><linearGradient xlink:href="#y" id="aj" x1="25" x2="210" y1="487.5" y2="280" gradientUnits="userSpaceOnUse"/><linearGradient xlink:href="#z" id="ak" x1="380" x2="490" y1="90" y2="47.4867" gradientUnits="userSpaceOnUse"/><linearGradient xlink:href="#A" id="al" x1="0" x2="380" y1="512" y2="90" gradientUnits="userSpaceOnUse"/><linearGradient xlink:href="#B" id="am" x1="131.8274" x2="490" y1="422.4361" y2="22.5" gradientUnits="userSpaceOnUse"/><linearGradient xlink:href="#C" id="L" x1="268.5341" x2="383.9659" y1="160" y2="160" gradientUnits="userSpaceOnUse"/><linearGradient xlink:href="#D" id="M" x1="131.8274" x2="245.6726" y1="350" y2="350" gradientUnits="userSpaceOnUse"/><linearGradient xlink:href="#E" id="I" x1="-94" x2="532.1806" y1="508.4658" y2="41.0017" gradientUnits="userSpaceOnUse"/><linearGradient xlink:href="#F" id="an" x1="0" x2="383.1726" y1="512" y2="87.5639" gradientUnits="userSpaceOnUse"/><linearGradient xlink:href="#G" id="ao" x1="131.8274" x2="490" y1="422.4361" y2="22.5" gradientUnits="userSpaceOnUse"/><linearGradient xlink:href="#x" id="R" x1="55" x2="460" y1="255" y2="255" gradientUnits="userSpaceOnUse"/></defs><path fill="url(#H)" fill-rule="evenodd" d="M606 256a350 350 0 0 1-350 350A350 350 0 0 1-94 256 350 350 0 0 1 256-94a350 350 0 0 1 350 350Z" transform="translate(94 94)"/><path fill="url(#J)" fill-rule="evenodd" d="M50 462.5h75v25H50Zm-25-75h25v100H25Z" style="mix-blend-mode:normal" transform="translate(94 94)"/><path fill="url(#K)" fill-rule="evenodd" d="M465 47.5h-75v-25h75Zm25 75h-25v-100h25z" style="mix-blend-mode:normal" transform="translate(94 94)"/><path fill="#fafafa" fill-rule="evenodd" d="m264 184-35 45h185l-80 95h65l75-107.5V184Z"/><path fill="none" stroke="url(#L)" stroke-linecap="square" stroke-linejoin="round" stroke-width="8" d="M380 90 272.5 230Z" style="mix-blend-mode:darken" transform="translate(94 94)"/><path fill="#fafafa" fill-rule="evenodd" d="m304 374-75 107.5V514h210l35-45H289l80-95z"/><path fill="none" stroke="url(#M)" stroke-linecap="square" stroke-linejoin="round" stroke-width="8" d="m135 420 107.5-140Z" style="mix-blend-mode:darken" transform="translate(94 94)"/><g fill-rule="evenodd"><path fill="url(#S)" d="M78 240h382l-23 30H55Z" style="mix-blend-mode:luminosity" transform="translate(94 94)"/><path fill="#0b62ff" d="M78 240h382l-23 30H55Z" opacity=".427" style="mix-blend-mode:color" transform="translate(94 94)"/></g><g fill-rule="evenodd"><path fill="#fafafa" d="M199 274h160l-15 20H184Z"/><path fill="url(#Z)" d="M143 145h150l-14 16H129Z" transform="translate(94 94)"/><path fill="url(#aa)" d="M122.4814 172h148.5138l-11.9904 16H108.4814Z" transform="translate(94 94)"/></g><g fill-rule="evenodd"><path fill="#fafafa" d="M504 424H344l15-20h160z"/><path fill="url(#ah)" d="M370 365H220l14-16h150z" transform="translate(94 94)"/><path fill="url(#ai)" d="M256.0167 322h148.5138l-11.9904 16H243.9833z" transform="translate(94 94)"/></g><g fill-rule="evenodd"><path fill="#326973" d="M606 256a350 350 0 0 1-350 350A350 350 0 0 1-94 256 350 350 0 0 1 256-94a350 350 0 0 1 350 350Z" opacity=".89" style="mix-blend-mode:soft-light" transform="translate(94 94)"/><path fill="url(#al)" d="M606 256a350 350 0 0 1-350 350A350 350 0 0 1-94 256 350 350 0 0 1 256-94a350 350 0 0 1 350 350Z" opacity=".24" style="mix-blend-mode:color-dodge" transform="translate(94 94)"/><path fill="url(#am)" d="M606 256a350 350 0 0 1-350 350A350 350 0 0 1-94 256 350 350 0 0 1 256-94a350 350 0 0 1 350 350Z" opacity=".36" style="mix-blend-mode:color-dodge" transform="translate(94 94)"/></g></svg>