<svg xmlns="http://www.w3.org/2000/svg" width="419.08203" height="59.734371" viewBox="0 0 419.08203 59.734371"><title>ZDA Works Logo 2024</title><g style="display:inline"><path d="M0 20.496v10.4121h48.2988V20.496zm56.832 0v10.4121h42.3633c-.481-.5518-.963-1.1032-1.4883-1.623-2.7306-2.7591-5.9032-4.9054-9.5156-6.4414-3.584-1.5645-7.438-2.3477-11.5625-2.3477zm72.789 0-3.7773 10.4121h19.5528l-3.7852-10.4121zm136.8419 2.7148c-3.5342 0-6.8557.7103-9.9668 2.129-3.1111 1.3937-5.8504 3.3353-8.2148 5.8242-2.3645 2.4889-4.2186 5.3748-5.5625 8.6601-1.344 3.2605-2.0157 6.757-2.0157 10.4903 0 2.8269.3896 5.5256 1.1602 8.0957h5.539c-.9718-2.5308-1.4726-5.226-1.4726-8.0957 0-2.9618.523-5.7603 1.5683-8.3985 1.0703-2.6382 2.5377-4.9664 4.4043-6.9824 1.8916-2.016 4.0712-3.5953 6.5352-4.7402 2.4889-1.1698 5.1632-1.7559 8.0254-1.7559 2.8373 0 5.4891.572 7.9531 1.7168 2.4889 1.1449 4.6666 2.7262 6.5332 4.7422 1.8916 1.9911 3.3712 4.3174 4.4414 6.9805 1.0702 2.6382 1.6055 5.4508 1.6055 8.4375 0 2.8493-.5075 5.5458-1.498 8.0957h5.5664c.7706-2.57 1.1582-5.2688 1.1582-8.0957 0-3.7334-.6717-7.2298-2.0157-10.4903-1.319-3.2853-3.161-6.1712-5.5253-8.6601-2.3645-2.489-5.1018-4.4305-8.213-5.8242-3.111-1.4187-6.4467-2.129-10.0058-2.129zm133.541.1875c-3.3102 0-6.3956.6086-9.2578 1.8282-2.8373 1.2195-5.127 2.9372-6.8692 5.1523-1.7422 2.2151-2.6132 4.8283-2.6132 7.8399 0 3.2106.8202 5.7994 2.4629 7.7656 1.6426 1.9413 3.8711 3.4473 6.6836 4.5176 2.8373 1.0702 6.0346 1.9168 9.5937 2.539 2.2649.3982 4.4303.9702 6.4961 1.7168 2.0907.7218 3.7961 1.717 5.1152 2.9864.2159.2077.3859.4396.5664.666h5.9239c-.435-1.1755-1.0611-2.2481-1.8985-3.2051-1.7422-2.016-4.044-3.6198-6.9062-4.8145-2.8623-1.2195-5.9618-2.117-9.2969-2.6894-2.5636-.473-4.8654-1.0082-6.9063-1.6055-2.0408-.5973-3.6588-1.4928-4.8535-2.6875-1.1697-1.2195-1.7539-2.9494-1.7539-5.1894 0-1.9165.635-3.5833 1.9043-5.002 1.2693-1.4435 2.924-2.563 4.9649-3.3594 2.0657-.8213 4.28-1.2202 6.6445-1.1953 2.0658 0 4.0704.2992 6.0117.8965 1.9414.5724 3.6346 1.4171 5.0781 2.5371 1.4685 1.0951 2.476 2.4281 3.0235 3.9961l4.9648-1.793c-.871-2.3395-2.3018-4.3177-4.293-5.9355-1.9662-1.6178-4.2435-2.8491-6.832-3.6953-2.5884-.8462-5.2402-1.2696-7.953-1.2696zm-222.543.7833 8.752 34.2285h5.3652l-8.7422-34.2285zm27.4395 0L196.1875 58.41h5.375l5.6524-22.0957 5.6523 22.0957h5.4043l-8.7422-34.2285Zm26.6934 0-8.713 34.2285h5.3868l8.7031-34.2285zm68.209 0V58.41h5.2265v-3.6524h9.5566l2.1192 3.6524h6.0898l-2.3476-4.0625c2.2649-.448 4.294-1.3577 6.086-2.7266 1.8168-1.3689 3.2475-3.0988 4.2929-5.1894 1.0453-2.0907 1.5683-4.417 1.5683-6.9805 0-2.8622-.6594-5.4388-1.9785-7.7285-1.319-2.3147-3.0998-4.1443-5.3398-5.4883-2.24-1.3689-4.7535-2.0527-7.541-2.0527zm42.6347 0V58.41h5.2266v-.1055l4.4414-5.3379 3.9726 5.4434h6.545l-7.082-9.5508 20.7206-24.6777h-6.832L347.664 50.1659V24.1816Zm-37.4082 4.666h12.0586c1.8418 0 3.5208.4619 5.039 1.3828 1.5432.896 2.7623 2.1273 3.6583 3.6953.9209 1.5431 1.3828 3.2974 1.3828 5.2637 0 1.9662-.462 3.7327-1.3828 5.3007-.896 1.5432-2.1151 2.7764-3.6582 3.6973-1.5183.896-3.1973 1.3438-5.0391 1.3438h-12.0586zM28.3047 37.6737 0 69.8183v10.412h48.2988v-10.412H14.0371l28.3047-32.1446Zm28.5273 0v42.5567h19.797c4.1243 0 7.9784-.7687 11.5624-2.3047 3.6124-1.5644 6.785-3.7127 9.5156-6.4434 2.7591-2.759 4.9055-5.9296 6.4414-9.5136 1.5645-3.6125 2.3477-7.481 2.3477-11.6055 0-4.1244-.7832-7.9785-2.3477-11.5625-.1647-.3874-.3641-.7497-.543-1.127H91.2833c1.3377 1.5375 2.4342 3.243 3.2656 5.1368 1.024 2.3324 1.5371 4.8505 1.5371 7.5527 0 2.7022-.513 5.2329-1.537 7.5937-1.024 2.3325-2.4307 4.3955-4.2227 6.1875-1.792 1.7636-3.8696 3.1577-6.2305 4.1817-2.3324.9955-4.8215 1.4922-7.4668 1.4922h-9.3867V37.6737Zm66.5567 0-15.4414 42.5567h11.0507l3.8399-10.582h25.5996l3.8399 10.582h11.0507l-15.4726-42.5567h-11.1426l7.8847 21.5645h-17.9628l7.8496-21.5645zm65.1015 29.6426 2.336 9.1328h6.123l2.336-9.1328h-5.3633l-.0352.1348-.0352-.1348zm26.6563 0 2.336 9.1328h6.1972l2.3222-9.1328h-5.3867l-.0352.1348-.035-.1348zm31.3066 0c.5736.7437 1.1772 1.4652 1.8282 2.1504 2.3644 2.4889 5.1037 4.4427 8.2148 5.8613 3.1111 1.3938 6.4326 2.0918 9.9668 2.0918 3.559 0 6.8947-.698 10.0058-2.0918 3.1111-1.4186 5.8485-3.3724 8.213-5.8613.651-.6853 1.2543-1.4065 1.8261-2.1504h-7.2129c-1.4585 1.2646-3.0669 2.324-4.8418 3.1582-2.464 1.145-5.128 1.7188-7.9902 1.7188-2.8373 0-5.4994-.5617-7.9883-1.6817-1.7918-.8325-3.4289-1.902-4.918-3.1953zm53.3496 0v9.1328h5.2266v-9.1328zm22.0684 0 5.2969 9.1328h6.0468l-5.2754-9.1328zm20.5664 0v9.1328h5.2266v-9.1328zm20.1406 0 6.664 9.1328H376l-6.7715-9.1328zm18.7383 0c.821 1.9284 2.0683 3.6253 3.793 5.0625 1.9413 1.6178 4.2064 2.8633 6.7949 3.7344 2.6133.8711 5.312 1.3066 8.0996 1.3066 3.36 0 6.4595-.6105 9.2969-1.83 2.8622-1.2196 5.164-2.9373 6.9062-5.1524.7517-.9664 1.309-2.0157 1.7363-3.121h-5.9882c-.093.1178-.1647.2445-.2657.3593-1.2693 1.4187-2.9361 2.5258-5.002 3.3223-2.0657.7964-4.2942 1.1953-6.6835 1.1953-2.0409 0-4.0436-.2992-6.0098-.8965-1.9413-.5973-3.6468-1.444-5.1152-2.539-.5725-.4442-1.0528-.9308-1.4844-1.4415z" style="font-weight:700;font-size:85.3333px;font-family:Urbanist;-inkscape-font-specification:&quot;Urbanist Bold&quot;;letter-spacing:0;display:inline;fill:#fafafa" transform="translate(0 -20.496)"/></g></svg>