<?xml version="1.0" encoding="UTF-8" standalone="no"?>
<!-- Created with Inkscape (http://www.inkscape.org/) -->

<svg
   width="451"
   height="101"
   viewBox="0 0 451 101"
   version="1.1"
   id="svg1"
   xmlns="http://www.w3.org/2000/svg"
   xmlns:svg="http://www.w3.org/2000/svg"
   xmlns:rdf="http://www.w3.org/1999/02/22-rdf-syntax-ns#"
   xmlns:cc="http://creativecommons.org/ns#"
   xmlns:dc="http://purl.org/dc/elements/1.1/">
  <title
     id="title2">ZDA Works Logo 2024</title>
  <defs
     id="defs1" />
  <g
     id="layer1"
     style="display:none;fill:#29242a;fill-opacity:1"
     transform="translate(-124.5,-309.5)">
    <rect
       style="fill:#29242a;fill-opacity:1"
       id="rect1"
       width="720.98004"
       height="719.56635"
       x="-0.7068432"
       y="0.7068432" />
  </g>
  <g
     id="g2"
     style="display:none;fill:#ffffff;fill-opacity:1"
     transform="translate(-124.5,-309.5)">
    <rect
       style="fill:#fafafa;fill-opacity:1"
       id="rect2"
       width="720.98004"
       height="719.56635"
       x="-0.7068432"
       y="0.7068432" />
  </g>
  <g
     id="layer5"
     style="display:none">
    <path
       id="text6"
       style="font-weight:600;font-size:85.3333px;font-family:Urbanist;-inkscape-font-specification:'Urbanist Semi-Bold';letter-spacing:0px;display:inline;fill:#fafafa"
       d="M 485.83594,325.64062 V 355 h 8.875 v -29.35938 z m -339.83985,4.26563 v 8.875 h 36.35157 L 168.30469,355 h 11.94726 l 14.04297,-16.21875 v -8.875 z m 56.83203,0 V 355 h 8.875 v -16.21875 h 10.88086 c 2.90133,0 5.60236,0.54021 8.10547,1.62109 2.53155,1.08089 4.765,2.58922 6.69922,4.52344 1.96267,1.93423 3.48357,4.16572 4.56445,6.69727 0.46489,1.0888 0.81124,2.21974 1.07618,3.37695 h 9.01562 c -0.37453,-2.35737 -0.99815,-4.62817 -1.9414,-6.78906 -1.536,-3.61245 -3.66974,-6.78496 -6.4004,-9.51563 -2.73066,-2.7591 -5.90122,-4.90541 -9.51367,-6.4414 -3.61243,-1.56445 -7.48102,-2.34766 -11.60547,-2.34766 z m 73.17383,0 L 266.87891,355 h 9.45117 L 281.16406,341.68164 286.02148,355 h 9.47071 l -9.12305,-25.09375 z m 58.96485,0 L 341.38477,355 H 350.5 l -6.40234,-25.09375 z m 31.44531,0 L 360.03516,355 h 9.17382 l 1.25586,-4.91211 L 371.7207,355 h 9.15625 l -6.40039,-25.09375 z m 30.42187,0 L 390.43164,355 h 9.15234 l 6.38086,-25.09375 z m 145.49219,15.61719 c -2.73066,0 -5.30488,0.54021 -7.72265,1.62109 -2.38934,1.08089 -4.32363,2.63084 -5.80274,4.65039 -0.72685,0.97846 -1.27095,2.04803 -1.64062,3.20508 h 9.46484 c 0.65154,-0.54668 1.39927,-1.00316 2.33203,-1.28516 1.25155,-0.3982 2.60207,-0.56858 4.05274,-0.51172 1.16622,0.0569 2.2902,0.29795 3.37109,0.72461 0.75698,0.27889 1.43666,0.65387 2.08203,1.07227 h 7.54297 l 2.23633,-1.32812 c -1.50756,-2.53156 -3.68486,-4.522 -6.5293,-5.97266 -2.84444,-1.45067 -5.97339,-2.17578 -9.38672,-2.17578 z M 426.6582,345.7793 c -2.92977,0 -5.6889,0.58182 -8.27734,1.74804 -2.58844,1.16622 -4.86351,2.78879 -6.82617,4.86524 -0.75757,0.80213 -1.40023,1.70057 -2.03125,2.60742 h 14.36523 c 0.88968,-0.21303 1.80724,-0.34766 2.76953,-0.34766 0.95044,0 1.8546,0.13469 2.73242,0.34766 h 14.44727 c -1.73703,-2.50191 -3.88096,-4.5785 -6.4707,-6.19141 -3.21422,-2.01955 -6.78366,-3.02929 -10.70899,-3.02929 z m 49.57813,0 c -2.50311,0 -4.83628,0.51115 -6.99805,1.53515 -2.16178,1.024 -3.98182,2.41809 -5.46094,4.18164 v -4.52343 h -8.875 V 355 h 17.19141 c 0.65554,-0.1301 1.31086,-0.26172 2.00977,-0.26172 0.67185,0 1.34377,0.10522 2.01562,0.26172 h 1.46289 l 3.39063,-8.58203 c -1.56444,-0.42667 -3.14345,-0.63867 -4.73633,-0.63867 z m 34.3457,1.19336 L 503.87109,355 h 11.5918 l 6.72461,-8.02734 z M 159.64648,365 145.99609,380.76562 v 8.875 h 48.29883 v -8.875 H 157.94336 L 171.59375,365 Z m 43.18164,0 v 24.64062 h 19.75586 c 4.12445,0 7.99304,-0.76868 11.60547,-2.30468 3.61245,-1.56444 6.78301,-3.7127 9.51367,-6.44336 2.73066,-2.75911 4.8644,-5.92968 6.4004,-9.51367 0.88403,-2.04131 1.49051,-4.17412 1.875,-6.37891 h -9.06446 c -0.2529,0.9969 -0.55731,1.97654 -0.96094,2.92188 -1.08088,2.53155 -2.60178,4.765 -4.56445,6.69921 -1.93422,1.93422 -4.16767,3.44255 -6.69922,4.52344 -2.50311,1.08089 -5.20414,1.62109 -8.10547,1.62109 H 211.70312 V 365 Z m 60.41602,0 -8.95898,24.64062 h 9.42773 l 4.09766,-11.3496 h 26.75195 l 4.13867,11.3496 h 9.38672 L 299.12891,365 h -9.46094 l 1.60937,4.41602 H 271.0957 L 272.69922,365 Z m 80.69727,0 6.30078,24.64062 h 10.11133 L 366.65234,365 h -9.1582 l -2.2168,8.72461 L 353.05078,365 Z m 30.33593,0 6.30078,24.64062 h 10.19727 L 397.04102,365 h -9.16016 L 385.6543,373.72461 383.42969,365 Z m 31.29102,0 c -0.1456,1.07755 -0.24414,2.17309 -0.24414,3.30664 0,4.12444 0.9536,7.89331 2.85937,11.30664 1.93423,3.38488 4.50844,6.08787 7.72266,8.10742 3.24266,2.01955 6.82663,3.0293 10.75195,3.0293 2.95822,0 5.71735,-0.58378 8.27735,-1.75 2.58844,-1.16622 4.84898,-2.77427 6.7832,-4.82227 1.96266,-2.07643 3.49809,-4.46574 4.60742,-7.16796 1.10933,-2.70222 1.66406,-5.60269 1.66406,-8.70313 0,-1.1317 -0.0849,-2.22986 -0.22851,-3.30664 h -9.02539 c 0.24425,1.0611 0.38086,2.16006 0.38086,3.30664 0,2.41777 -0.55474,4.66379 -1.66407,6.74024 -1.08089,2.04799 -2.56016,3.69961 -4.4375,4.95117 -1.87733,1.25155 -3.99653,1.87695 -6.35742,1.87695 -2.2471,0 -4.32469,-0.5983 -6.23047,-1.79297 -1.87733,-1.2231 -3.38371,-2.85825 -4.52148,-4.90625 -1.13778,-2.048 -1.70703,-4.33759 -1.70703,-6.86914 0,-1.14374 0.12894,-2.24373 0.36523,-3.30664 z m 49.33398,0 v 24.64062 h 8.875 v -24.57617 c 0,-0.0225 0.008,-0.042 0.008,-0.0645 z m 30.9336,0 v 24.64062 h 8.875 v -9.90039 l 6.86914,-8.1914 10.49609,18.09179 h 10.24024 L 508.02344,365 h -12.51172 l -0.80078,0.95898 V 365 Z m 42.64258,0 c 0.0557,0.0753 0.0942,0.16043 0.15234,0.23438 1.36533,1.70666 3.19991,3.11527 5.50391,4.2246 2.33243,1.08089 4.89213,1.93282 7.67968,2.5586 1.25156,0.34133 2.50431,0.69858 3.75586,1.06836 1.25155,0.36978 2.28839,0.90999 3.11328,1.62109 0.85334,0.68267 1.28125,1.64883 1.28125,2.90039 0,1.10933 -0.36981,2.06294 -1.10937,2.85938 -0.73955,0.79644 -1.69316,1.39279 -2.85938,1.79101 -1.13778,0.36978 -2.37405,0.55469 -3.71093,0.55469 -1.36534,0 -2.67423,-0.22653 -3.92578,-0.68164 -1.25156,-0.48355 -2.3465,-1.09639 -3.28516,-1.83594 -0.91023,-0.73956 -1.55015,-1.49176 -1.91992,-2.25976 l -7.55274,3.24218 c 0.79645,1.792 1.9911,3.35648 3.58399,4.69336 1.62133,1.30845 3.49948,2.34724 5.63281,3.11524 2.13332,0.76799 4.3232,1.22301 6.57031,1.36523 2.87289,0.17067 5.58844,-0.27177 8.14844,-1.32422 2.56,-1.05244 4.63758,-2.58786 6.23047,-4.60742 1.62133,-2.01955 2.43164,-4.36529 2.43164,-7.03906 0.0569,-2.41778 -0.59756,-4.46631 -1.96289,-6.14453 -1.36533,-1.67822 -3.1583,-3.08683 -5.37695,-4.22461 -1.5268,-0.80255 -3.15511,-1.4839 -4.83008,-2.11133 z"
       transform="translate(-124.5,-309.5)" />
  </g>
  <metadata
     id="metadata2">
    <rdf:RDF>
      <cc:Work
         rdf:about="">
        <dc:title>ZDA Works Logo 2024</dc:title>
      </cc:Work>
    </rdf:RDF>
  </metadata>
  <g
     id="layer4"
     style="display:none">
    <path
       id="text1"
       style="font-weight:600;font-size:85.3333px;font-family:Urbanist;-inkscape-font-specification:'Urbanist Semi-Bold';letter-spacing:0px;display:inline;fill:#29242a"
       d="M 485.83594,325.64062 V 355 h 8.875 v -29.35938 z m -339.83985,4.26563 v 8.875 h 36.35157 L 168.30469,355 h 11.94726 l 14.04297,-16.21875 v -8.875 z m 56.83203,0 V 355 h 8.875 v -16.21875 h 10.88086 c 2.90133,0 5.60236,0.54021 8.10547,1.62109 2.53155,1.08089 4.765,2.58922 6.69922,4.52344 1.96267,1.93423 3.48357,4.16572 4.56445,6.69727 0.46489,1.0888 0.81124,2.21974 1.07618,3.37695 h 9.01562 c -0.37453,-2.35737 -0.99815,-4.62817 -1.9414,-6.78906 -1.536,-3.61245 -3.66974,-6.78496 -6.4004,-9.51563 -2.73066,-2.7591 -5.90122,-4.90541 -9.51367,-6.4414 -3.61243,-1.56445 -7.48102,-2.34766 -11.60547,-2.34766 z m 73.17383,0 L 266.87891,355 h 9.45117 L 281.16406,341.68164 286.02148,355 h 9.47071 l -9.12305,-25.09375 z m 58.96485,0 L 341.38477,355 H 350.5 l -6.40234,-25.09375 z m 31.44531,0 L 360.03516,355 h 9.17382 l 1.25586,-4.91211 L 371.7207,355 h 9.15625 l -6.40039,-25.09375 z m 30.42187,0 L 390.43164,355 h 9.15234 l 6.38086,-25.09375 z m 145.49219,15.61719 c -2.73066,0 -5.30488,0.54021 -7.72265,1.62109 -2.38934,1.08089 -4.32363,2.63084 -5.80274,4.65039 -0.72685,0.97846 -1.27095,2.04803 -1.64062,3.20508 h 9.46484 c 0.65154,-0.54668 1.39927,-1.00316 2.33203,-1.28516 1.25155,-0.3982 2.60207,-0.56858 4.05274,-0.51172 1.16622,0.0569 2.2902,0.29795 3.37109,0.72461 0.75698,0.27889 1.43666,0.65387 2.08203,1.07227 h 7.54297 l 2.23633,-1.32812 c -1.50756,-2.53156 -3.68486,-4.522 -6.5293,-5.97266 -2.84444,-1.45067 -5.97339,-2.17578 -9.38672,-2.17578 z M 426.6582,345.7793 c -2.92977,0 -5.6889,0.58182 -8.27734,1.74804 -2.58844,1.16622 -4.86351,2.78879 -6.82617,4.86524 -0.75757,0.80213 -1.40023,1.70057 -2.03125,2.60742 h 14.36523 c 0.88968,-0.21303 1.80724,-0.34766 2.76953,-0.34766 0.95044,0 1.8546,0.13469 2.73242,0.34766 h 14.44727 c -1.73703,-2.50191 -3.88096,-4.5785 -6.4707,-6.19141 -3.21422,-2.01955 -6.78366,-3.02929 -10.70899,-3.02929 z m 49.57813,0 c -2.50311,0 -4.83628,0.51115 -6.99805,1.53515 -2.16178,1.024 -3.98182,2.41809 -5.46094,4.18164 v -4.52343 h -8.875 V 355 h 17.19141 c 0.65554,-0.1301 1.31086,-0.26172 2.00977,-0.26172 0.67185,0 1.34377,0.10522 2.01562,0.26172 h 1.46289 l 3.39063,-8.58203 c -1.56444,-0.42667 -3.14345,-0.63867 -4.73633,-0.63867 z m 34.3457,1.19336 L 503.87109,355 h 11.5918 l 6.72461,-8.02734 z M 159.64648,365 145.99609,380.76562 v 8.875 h 48.29883 v -8.875 H 157.94336 L 171.59375,365 Z m 43.18164,0 v 24.64062 h 19.75586 c 4.12445,0 7.99304,-0.76868 11.60547,-2.30468 3.61245,-1.56444 6.78301,-3.7127 9.51367,-6.44336 2.73066,-2.75911 4.8644,-5.92968 6.4004,-9.51367 0.88403,-2.04131 1.49051,-4.17412 1.875,-6.37891 h -9.06446 c -0.2529,0.9969 -0.55731,1.97654 -0.96094,2.92188 -1.08088,2.53155 -2.60178,4.765 -4.56445,6.69921 -1.93422,1.93422 -4.16767,3.44255 -6.69922,4.52344 -2.50311,1.08089 -5.20414,1.62109 -8.10547,1.62109 H 211.70312 V 365 Z m 60.41602,0 -8.95898,24.64062 h 9.42773 l 4.09766,-11.3496 h 26.75195 l 4.13867,11.3496 h 9.38672 L 299.12891,365 h -9.46094 l 1.60937,4.41602 H 271.0957 L 272.69922,365 Z m 80.69727,0 6.30078,24.64062 h 10.11133 L 366.65234,365 h -9.1582 l -2.2168,8.72461 L 353.05078,365 Z m 30.33593,0 6.30078,24.64062 h 10.19727 L 397.04102,365 h -9.16016 L 385.6543,373.72461 383.42969,365 Z m 31.29102,0 c -0.1456,1.07755 -0.24414,2.17309 -0.24414,3.30664 0,4.12444 0.9536,7.89331 2.85937,11.30664 1.93423,3.38488 4.50844,6.08787 7.72266,8.10742 3.24266,2.01955 6.82663,3.0293 10.75195,3.0293 2.95822,0 5.71735,-0.58378 8.27735,-1.75 2.58844,-1.16622 4.84898,-2.77427 6.7832,-4.82227 1.96266,-2.07643 3.49809,-4.46574 4.60742,-7.16796 1.10933,-2.70222 1.66406,-5.60269 1.66406,-8.70313 0,-1.1317 -0.0849,-2.22986 -0.22851,-3.30664 h -9.02539 c 0.24425,1.0611 0.38086,2.16006 0.38086,3.30664 0,2.41777 -0.55474,4.66379 -1.66407,6.74024 -1.08089,2.04799 -2.56016,3.69961 -4.4375,4.95117 -1.87733,1.25155 -3.99653,1.87695 -6.35742,1.87695 -2.2471,0 -4.32469,-0.5983 -6.23047,-1.79297 -1.87733,-1.2231 -3.38371,-2.85825 -4.52148,-4.90625 -1.13778,-2.048 -1.70703,-4.33759 -1.70703,-6.86914 0,-1.14374 0.12894,-2.24373 0.36523,-3.30664 z m 49.33398,0 v 24.64062 h 8.875 v -24.57617 c 0,-0.0225 0.008,-0.042 0.008,-0.0645 z m 30.9336,0 v 24.64062 h 8.875 v -9.90039 l 6.86914,-8.1914 10.49609,18.09179 h 10.24024 L 508.02344,365 h -12.51172 l -0.80078,0.95898 V 365 Z m 42.64258,0 c 0.0557,0.0753 0.0942,0.16043 0.15234,0.23438 1.36533,1.70666 3.19991,3.11527 5.50391,4.2246 2.33243,1.08089 4.89213,1.93282 7.67968,2.5586 1.25156,0.34133 2.50431,0.69858 3.75586,1.06836 1.25155,0.36978 2.28839,0.90999 3.11328,1.62109 0.85334,0.68267 1.28125,1.64883 1.28125,2.90039 0,1.10933 -0.36981,2.06294 -1.10937,2.85938 -0.73955,0.79644 -1.69316,1.39279 -2.85938,1.79101 -1.13778,0.36978 -2.37405,0.55469 -3.71093,0.55469 -1.36534,0 -2.67423,-0.22653 -3.92578,-0.68164 -1.25156,-0.48355 -2.3465,-1.09639 -3.28516,-1.83594 -0.91023,-0.73956 -1.55015,-1.49176 -1.91992,-2.25976 l -7.55274,3.24218 c 0.79645,1.792 1.9911,3.35648 3.58399,4.69336 1.62133,1.30845 3.49948,2.34724 5.63281,3.11524 2.13332,0.76799 4.3232,1.22301 6.57031,1.36523 2.87289,0.17067 5.58844,-0.27177 8.14844,-1.32422 2.56,-1.05244 4.63758,-2.58786 6.23047,-4.60742 1.62133,-2.01955 2.43164,-4.36529 2.43164,-7.03906 0.0569,-2.41778 -0.59756,-4.46631 -1.96289,-6.14453 -1.36533,-1.67822 -3.1583,-3.08683 -5.37695,-4.22461 -1.5268,-0.80255 -3.15511,-1.4839 -4.83008,-2.11133 z"
       transform="translate(-124.5,-309.5)" />
  </g>
  <g
     id="layer2"
     style="display:none">
    <text
       xml:space="preserve"
       style="font-style:normal;font-variant:normal;font-weight:bold;font-stretch:normal;font-size:85.3333px;font-family:Urbanist;-inkscape-font-specification:'Urbanist Bold';letter-spacing:0px;fill:#29242a;fill-opacity:1;stroke:none;stroke-opacity:1"
       x="7.1023622"
       y="80.366653"
       id="text2"><tspan
         id="tspan1"
         x="7.1023622"
         y="80.366653">ZDA</tspan></text>
    <text
       xml:space="preserve"
       style="font-style:normal;font-variant:normal;font-weight:normal;font-stretch:normal;font-size:74.6667px;font-family:Urbanist;-inkscape-font-specification:Urbanist;letter-spacing:0px;fill:#29242a;fill-opacity:1;stroke:none;stroke-opacity:1"
       x="186.22159"
       y="76.585266"
       id="text3"><tspan
         id="tspan2"
         x="186.22159"
         y="76.585266">WORKS</tspan></text>
  </g>
  <g
     id="g8"
     style="display:none">
    <text
       xml:space="preserve"
       style="font-style:normal;font-variant:normal;font-weight:bold;font-stretch:normal;font-size:85.3333px;font-family:Urbanist;-inkscape-font-specification:'Urbanist Bold';letter-spacing:0px;fill:#fafafa;fill-opacity:1;stroke:none;stroke-opacity:1"
       x="7.1023622"
       y="80.366653"
       id="text7"><tspan
         id="tspan3"
         x="7.1023622"
         y="80.366653">ZDA</tspan></text>
    <text
       xml:space="preserve"
       style="font-style:normal;font-variant:normal;font-weight:normal;font-stretch:normal;font-size:74.6667px;font-family:Urbanist;-inkscape-font-specification:Urbanist;letter-spacing:0px;fill:#fafafa;fill-opacity:1;stroke:none;stroke-opacity:1"
       x="186.22159"
       y="76.585266"
       id="text8"><tspan
         id="tspan7"
         x="186.22159"
         y="76.585266">WORKS</tspan></text>
  </g>
  <g
     id="g11"
     style="display:inline">
    <text
       xml:space="preserve"
       style="font-style:normal;font-variant:normal;font-weight:bold;font-stretch:normal;font-size:85.3333px;font-family:Urbanist;-inkscape-font-specification:'Urbanist Bold';letter-spacing:0px;fill:#a1affa;fill-opacity:0.941176;stroke:none;stroke-opacity:1"
       x="7.1023622"
       y="80.366653"
       id="text10"><tspan
         id="tspan10"
         x="7.1023622"
         y="80.366653">ZDA</tspan></text>
    <text
       xml:space="preserve"
       style="font-style:normal;font-variant:normal;font-weight:normal;font-stretch:normal;font-size:74.6667px;font-family:Urbanist;-inkscape-font-specification:Urbanist;letter-spacing:0px;fill:#a1affa;fill-opacity:0.941176;stroke:none;stroke-opacity:1"
       x="186.22159"
       y="76.585266"
       id="text11"><tspan
         id="tspan11"
         x="186.22159"
         y="76.585266">WORKS</tspan></text>
  </g>
  <g
     id="layer3"
     transform="translate(-124.5,-309.5)"
     style="display:none">
    <rect
       style="display:inline;fill:none;stroke:#fafafa;stroke-width:1;stroke-dasharray:none"
       id="rect86"
       width="450"
       height="100"
       x="125"
       y="310" />
  </g>
</svg>
