<?xml version="1.0" encoding="UTF-8" standalone="no"?>
<!-- Created with Inkscape (http://www.inkscape.org/) -->

<svg
   width="451"
   height="101"
   viewBox="0 0 451 101"
   version="1.1"
   id="svg1"
   xmlns="http://www.w3.org/2000/svg"
   xmlns:svg="http://www.w3.org/2000/svg"
   xmlns:rdf="http://www.w3.org/1999/02/22-rdf-syntax-ns#"
   xmlns:cc="http://creativecommons.org/ns#"
   xmlns:dc="http://purl.org/dc/elements/1.1/">
  <title
     id="title2">ZDA Works Logo 2024</title>
  <defs
     id="defs1" />
  <g
     id="layer1"
     style="display:none;fill:#29242a;fill-opacity:1"
     transform="translate(-124.5,-309.5)">
    <rect
       style="fill:#29242a;fill-opacity:1"
       id="rect1"
       width="720.98004"
       height="719.56635"
       x="-0.7068432"
       y="0.7068432" />
  </g>
  <g
     id="g2"
     style="display:none;fill:#ffffff;fill-opacity:1"
     transform="translate(-124.5,-309.5)">
    <rect
       style="fill:#fafafa;fill-opacity:1"
       id="rect2"
       width="720.98004"
       height="719.56635"
       x="-0.7068432"
       y="0.7068432" />
  </g>
  <g
     id="layer5"
     style="display:none">
    <path
       id="text6"
       style="font-weight:600;font-size:85.3333px;font-family:Urbanist;-inkscape-font-specification:'Urbanist Semi-Bold';letter-spacing:0px;display:inline;fill:#fafafa"
       d="M 485.83594,325.64062 V 355 h 8.875 v -29.35938 z m -339.83985,4.26563 v 8.875 h 36.35157 L 168.30469,355 h 11.94726 l 14.04297,-16.21875 v -8.875 z m 56.83203,0 V 355 h 8.875 v -16.21875 h 10.88086 c 2.90133,0 5.60236,0.54021 8.10547,1.62109 2.53155,1.08089 4.765,2.58922 6.69922,4.52344 1.96267,1.93423 3.48357,4.16572 4.56445,6.69727 0.46489,1.0888 0.81124,2.21974 1.07618,3.37695 h 9.01562 c -0.37453,-2.35737 -0.99815,-4.62817 -1.9414,-6.78906 -1.536,-3.61245 -3.66974,-6.78496 -6.4004,-9.51563 -2.73066,-2.7591 -5.90122,-4.90541 -9.51367,-6.4414 -3.61243,-1.56445 -7.48102,-2.34766 -11.60547,-2.34766 z m 73.17383,0 L 266.87891,355 h 9.45117 L 281.16406,341.68164 286.02148,355 h 9.47071 l -9.12305,-25.09375 z m 58.96485,0 L 341.38477,355 H 350.5 l -6.40234,-25.09375 z m 31.44531,0 L 360.03516,355 h 9.17382 l 1.25586,-4.91211 L 371.7207,355 h 9.15625 l -6.40039,-25.09375 z m 30.42187,0 L 390.43164,355 h 9.15234 l 6.38086,-25.09375 z m 145.49219,15.61719 c -2.73066,0 -5.30488,0.54021 -7.72265,1.62109 -2.38934,1.08089 -4.32363,2.63084 -5.80274,4.65039 -0.72685,0.97846 -1.27095,2.04803 -1.64062,3.20508 h 9.46484 c 0.65154,-0.54668 1.39927,-1.00316 2.33203,-1.28516 1.25155,-0.3982 2.60207,-0.56858 4.05274,-0.51172 1.16622,0.0569 2.2902,0.29795 3.37109,0.72461 0.75698,0.27889 1.43666,0.65387 2.08203,1.07227 h 7.54297 l 2.23633,-1.32812 c -1.50756,-2.53156 -3.68486,-4.522 -6.5293,-5.97266 -2.84444,-1.45067 -5.97339,-2.17578 -9.38672,-2.17578 z M 426.6582,345.7793 c -2.92977,0 -5.6889,0.58182 -8.27734,1.74804 -2.58844,1.16622 -4.86351,2.78879 -6.82617,4.86524 -0.75757,0.80213 -1.40023,1.70057 -2.03125,2.60742 h 14.36523 c 0.88968,-0.21303 1.80724,-0.34766 2.76953,-0.34766 0.95044,0 1.8546,0.13469 2.73242,0.34766 h 14.44727 c -1.73703,-2.50191 -3.88096,-4.5785 -6.4707,-6.19141 -3.21422,-2.01955 -6.78366,-3.02929 -10.70899,-3.02929 z m 49.57813,0 c -2.50311,0 -4.83628,0.51115 -6.99805,1.53515 -2.16178,1.024 -3.98182,2.41809 -5.46094,4.18164 v -4.52343 h -8.875 V 355 h 17.19141 c 0.65554,-0.1301 1.31086,-0.26172 2.00977,-0.26172 0.67185,0 1.34377,0.10522 2.01562,0.26172 h 1.46289 l 3.39063,-8.58203 c -1.56444,-0.42667 -3.14345,-0.63867 -4.73633,-0.63867 z m 34.3457,1.19336 L 503.87109,355 h 11.5918 l 6.72461,-8.02734 z M 159.64648,365 145.99609,380.76562 v 8.875 h 48.29883 v -8.875 H 157.94336 L 171.59375,365 Z m 43.18164,0 v 24.64062 h 19.75586 c 4.12445,0 7.99304,-0.76868 11.60547,-2.30468 3.61245,-1.56444 6.78301,-3.7127 9.51367,-6.44336 2.73066,-2.75911 4.8644,-5.92968 6.4004,-9.51367 0.88403,-2.04131 1.49051,-4.17412 1.875,-6.37891 h -9.06446 c -0.2529,0.9969 -0.55731,1.97654 -0.96094,2.92188 -1.08088,2.53155 -2.60178,4.765 -4.56445,6.69921 -1.93422,1.93422 -4.16767,3.44255 -6.69922,4.52344 -2.50311,1.08089 -5.20414,1.62109 -8.10547,1.62109 H 211.70312 V 365 Z m 60.41602,0 -8.95898,24.64062 h 9.42773 l 4.09766,-11.3496 h 26.75195 l 4.13867,11.3496 h 9.38672 L 299.12891,365 h -9.46094 l 1.60937,4.41602 H 271.0957 L 272.69922,365 Z m 80.69727,0 6.30078,24.64062 h 10.11133 L 366.65234,365 h -9.1582 l -2.2168,8.72461 L 353.05078,365 Z m 30.33593,0 6.30078,24.64062 h 10.19727 L 397.04102,365 h -9.16016 L 385.6543,373.72461 383.42969,365 Z m 31.29102,0 c -0.1456,1.07755 -0.24414,2.17309 -0.24414,3.30664 0,4.12444 0.9536,7.89331 2.85937,11.30664 1.93423,3.38488 4.50844,6.08787 7.72266,8.10742 3.24266,2.01955 6.82663,3.0293 10.75195,3.0293 2.95822,0 5.71735,-0.58378 8.27735,-1.75 2.58844,-1.16622 4.84898,-2.77427 6.7832,-4.82227 1.96266,-2.07643 3.49809,-4.46574 4.60742,-7.16796 1.10933,-2.70222 1.66406,-5.60269 1.66406,-8.70313 0,-1.1317 -0.0849,-2.22986 -0.22851,-3.30664 h -9.02539 c 0.24425,1.0611 0.38086,2.16006 0.38086,3.30664 0,2.41777 -0.55474,4.66379 -1.66407,6.74024 -1.08089,2.04799 -2.56016,3.69961 -4.4375,4.95117 -1.87733,1.25155 -3.99653,1.87695 -6.35742,1.87695 -2.2471,0 -4.32469,-0.5983 -6.23047,-1.79297 -1.87733,-1.2231 -3.38371,-2.85825 -4.52148,-4.90625 -1.13778,-2.048 -1.70703,-4.33759 -1.70703,-6.86914 0,-1.14374 0.12894,-2.24373 0.36523,-3.30664 z m 49.33398,0 v 24.64062 h 8.875 v -24.57617 c 0,-0.0225 0.008,-0.042 0.008,-0.0645 z m 30.9336,0 v 24.64062 h 8.875 v -9.90039 l 6.86914,-8.1914 10.49609,18.09179 h 10.24024 L 508.02344,365 h -12.51172 l -0.80078,0.95898 V 365 Z m 42.64258,0 c 0.0557,0.0753 0.0942,0.16043 0.15234,0.23438 1.36533,1.70666 3.19991,3.11527 5.50391,4.2246 2.33243,1.08089 4.89213,1.93282 7.67968,2.5586 1.25156,0.34133 2.50431,0.69858 3.75586,1.06836 1.25155,0.36978 2.28839,0.90999 3.11328,1.62109 0.85334,0.68267 1.28125,1.64883 1.28125,2.90039 0,1.10933 -0.36981,2.06294 -1.10937,2.85938 -0.73955,0.79644 -1.69316,1.39279 -2.85938,1.79101 -1.13778,0.36978 -2.37405,0.55469 -3.71093,0.55469 -1.36534,0 -2.67423,-0.22653 -3.92578,-0.68164 -1.25156,-0.48355 -2.3465,-1.09639 -3.28516,-1.83594 -0.91023,-0.73956 -1.55015,-1.49176 -1.91992,-2.25976 l -7.55274,3.24218 c 0.79645,1.792 1.9911,3.35648 3.58399,4.69336 1.62133,1.30845 3.49948,2.34724 5.63281,3.11524 2.13332,0.76799 4.3232,1.22301 6.57031,1.36523 2.87289,0.17067 5.58844,-0.27177 8.14844,-1.32422 2.56,-1.05244 4.63758,-2.58786 6.23047,-4.60742 1.62133,-2.01955 2.43164,-4.36529 2.43164,-7.03906 0.0569,-2.41778 -0.59756,-4.46631 -1.96289,-6.14453 -1.36533,-1.67822 -3.1583,-3.08683 -5.37695,-4.22461 -1.5268,-0.80255 -3.15511,-1.4839 -4.83008,-2.11133 z"
       transform="translate(-124.5,-309.5)" />
  </g>
  <metadata
     id="metadata2">
    <rdf:RDF>
      <cc:Work
         rdf:about="">
        <dc:title>ZDA Works Logo 2024</dc:title>
      </cc:Work>
    </rdf:RDF>
  </metadata>
  <g
     id="layer4"
     style="display:none">
    <path
       id="text1"
       style="font-weight:600;font-size:85.3333px;font-family:Urbanist;-inkscape-font-specification:'Urbanist Semi-Bold';letter-spacing:0px;display:inline;fill:#29242a"
       d="M 485.83594,325.64062 V 355 h 8.875 v -29.35938 z m -339.83985,4.26563 v 8.875 h 36.35157 L 168.30469,355 h 11.94726 l 14.04297,-16.21875 v -8.875 z m 56.83203,0 V 355 h 8.875 v -16.21875 h 10.88086 c 2.90133,0 5.60236,0.54021 8.10547,1.62109 2.53155,1.08089 4.765,2.58922 6.69922,4.52344 1.96267,1.93423 3.48357,4.16572 4.56445,6.69727 0.46489,1.0888 0.81124,2.21974 1.07618,3.37695 h 9.01562 c -0.37453,-2.35737 -0.99815,-4.62817 -1.9414,-6.78906 -1.536,-3.61245 -3.66974,-6.78496 -6.4004,-9.51563 -2.73066,-2.7591 -5.90122,-4.90541 -9.51367,-6.4414 -3.61243,-1.56445 -7.48102,-2.34766 -11.60547,-2.34766 z m 73.17383,0 L 266.87891,355 h 9.45117 L 281.16406,341.68164 286.02148,355 h 9.47071 l -9.12305,-25.09375 z m 58.96485,0 L 341.38477,355 H 350.5 l -6.40234,-25.09375 z m 31.44531,0 L 360.03516,355 h 9.17382 l 1.25586,-4.91211 L 371.7207,355 h 9.15625 l -6.40039,-25.09375 z m 30.42187,0 L 390.43164,355 h 9.15234 l 6.38086,-25.09375 z m 145.49219,15.61719 c -2.73066,0 -5.30488,0.54021 -7.72265,1.62109 -2.38934,1.08089 -4.32363,2.63084 -5.80274,4.65039 -0.72685,0.97846 -1.27095,2.04803 -1.64062,3.20508 h 9.46484 c 0.65154,-0.54668 1.39927,-1.00316 2.33203,-1.28516 1.25155,-0.3982 2.60207,-0.56858 4.05274,-0.51172 1.16622,0.0569 2.2902,0.29795 3.37109,0.72461 0.75698,0.27889 1.43666,0.65387 2.08203,1.07227 h 7.54297 l 2.23633,-1.32812 c -1.50756,-2.53156 -3.68486,-4.522 -6.5293,-5.97266 -2.84444,-1.45067 -5.97339,-2.17578 -9.38672,-2.17578 z M 426.6582,345.7793 c -2.92977,0 -5.6889,0.58182 -8.27734,1.74804 -2.58844,1.16622 -4.86351,2.78879 -6.82617,4.86524 -0.75757,0.80213 -1.40023,1.70057 -2.03125,2.60742 h 14.36523 c 0.88968,-0.21303 1.80724,-0.34766 2.76953,-0.34766 0.95044,0 1.8546,0.13469 2.73242,0.34766 h 14.44727 c -1.73703,-2.50191 -3.88096,-4.5785 -6.4707,-6.19141 -3.21422,-2.01955 -6.78366,-3.02929 -10.70899,-3.02929 z m 49.57813,0 c -2.50311,0 -4.83628,0.51115 -6.99805,1.53515 -2.16178,1.024 -3.98182,2.41809 -5.46094,4.18164 v -4.52343 h -8.875 V 355 h 17.19141 c 0.65554,-0.1301 1.31086,-0.26172 2.00977,-0.26172 0.67185,0 1.34377,0.10522 2.01562,0.26172 h 1.46289 l 3.39063,-8.58203 c -1.56444,-0.42667 -3.14345,-0.63867 -4.73633,-0.63867 z m 34.3457,1.19336 L 503.87109,355 h 11.5918 l 6.72461,-8.02734 z M 159.64648,365 145.99609,380.76562 v 8.875 h 48.29883 v -8.875 H 157.94336 L 171.59375,365 Z m 43.18164,0 v 24.64062 h 19.75586 c 4.12445,0 7.99304,-0.76868 11.60547,-2.30468 3.61245,-1.56444 6.78301,-3.7127 9.51367,-6.44336 2.73066,-2.75911 4.8644,-5.92968 6.4004,-9.51367 0.88403,-2.04131 1.49051,-4.17412 1.875,-6.37891 h -9.06446 c -0.2529,0.9969 -0.55731,1.97654 -0.96094,2.92188 -1.08088,2.53155 -2.60178,4.765 -4.56445,6.69921 -1.93422,1.93422 -4.16767,3.44255 -6.69922,4.52344 -2.50311,1.08089 -5.20414,1.62109 -8.10547,1.62109 H 211.70312 V 365 Z m 60.41602,0 -8.95898,24.64062 h 9.42773 l 4.09766,-11.3496 h 26.75195 l 4.13867,11.3496 h 9.38672 L 299.12891,365 h -9.46094 l 1.60937,4.41602 H 271.0957 L 272.69922,365 Z m 80.69727,0 6.30078,24.64062 h 10.11133 L 366.65234,365 h -9.1582 l -2.2168,8.72461 L 353.05078,365 Z m 30.33593,0 6.30078,24.64062 h 10.19727 L 397.04102,365 h -9.16016 L 385.6543,373.72461 383.42969,365 Z m 31.29102,0 c -0.1456,1.07755 -0.24414,2.17309 -0.24414,3.30664 0,4.12444 0.9536,7.89331 2.85937,11.30664 1.93423,3.38488 4.50844,6.08787 7.72266,8.10742 3.24266,2.01955 6.82663,3.0293 10.75195,3.0293 2.95822,0 5.71735,-0.58378 8.27735,-1.75 2.58844,-1.16622 4.84898,-2.77427 6.7832,-4.82227 1.96266,-2.07643 3.49809,-4.46574 4.60742,-7.16796 1.10933,-2.70222 1.66406,-5.60269 1.66406,-8.70313 0,-1.1317 -0.0849,-2.22986 -0.22851,-3.30664 h -9.02539 c 0.24425,1.0611 0.38086,2.16006 0.38086,3.30664 0,2.41777 -0.55474,4.66379 -1.66407,6.74024 -1.08089,2.04799 -2.56016,3.69961 -4.4375,4.95117 -1.87733,1.25155 -3.99653,1.87695 -6.35742,1.87695 -2.2471,0 -4.32469,-0.5983 -6.23047,-1.79297 -1.87733,-1.2231 -3.38371,-2.85825 -4.52148,-4.90625 -1.13778,-2.048 -1.70703,-4.33759 -1.70703,-6.86914 0,-1.14374 0.12894,-2.24373 0.36523,-3.30664 z m 49.33398,0 v 24.64062 h 8.875 v -24.57617 c 0,-0.0225 0.008,-0.042 0.008,-0.0645 z m 30.9336,0 v 24.64062 h 8.875 v -9.90039 l 6.86914,-8.1914 10.49609,18.09179 h 10.24024 L 508.02344,365 h -12.51172 l -0.80078,0.95898 V 365 Z m 42.64258,0 c 0.0557,0.0753 0.0942,0.16043 0.15234,0.23438 1.36533,1.70666 3.19991,3.11527 5.50391,4.2246 2.33243,1.08089 4.89213,1.93282 7.67968,2.5586 1.25156,0.34133 2.50431,0.69858 3.75586,1.06836 1.25155,0.36978 2.28839,0.90999 3.11328,1.62109 0.85334,0.68267 1.28125,1.64883 1.28125,2.90039 0,1.10933 -0.36981,2.06294 -1.10937,2.85938 -0.73955,0.79644 -1.69316,1.39279 -2.85938,1.79101 -1.13778,0.36978 -2.37405,0.55469 -3.71093,0.55469 -1.36534,0 -2.67423,-0.22653 -3.92578,-0.68164 -1.25156,-0.48355 -2.3465,-1.09639 -3.28516,-1.83594 -0.91023,-0.73956 -1.55015,-1.49176 -1.91992,-2.25976 l -7.55274,3.24218 c 0.79645,1.792 1.9911,3.35648 3.58399,4.69336 1.62133,1.30845 3.49948,2.34724 5.63281,3.11524 2.13332,0.76799 4.3232,1.22301 6.57031,1.36523 2.87289,0.17067 5.58844,-0.27177 8.14844,-1.32422 2.56,-1.05244 4.63758,-2.58786 6.23047,-4.60742 1.62133,-2.01955 2.43164,-4.36529 2.43164,-7.03906 0.0569,-2.41778 -0.59756,-4.46631 -1.96289,-6.14453 -1.36533,-1.67822 -3.1583,-3.08683 -5.37695,-4.22461 -1.5268,-0.80255 -3.15511,-1.4839 -4.83008,-2.11133 z"
       transform="translate(-124.5,-309.5)" />
  </g>
  <g
     id="layer2"
     style="display:none">
    <text
       xml:space="preserve"
       style="font-style:normal;font-variant:normal;font-weight:bold;font-stretch:normal;font-size:85.3333px;font-family:Urbanist;-inkscape-font-specification:'Urbanist Bold';letter-spacing:0px;fill:#29242a;fill-opacity:1;stroke:none;stroke-opacity:1"
       x="7.1023622"
       y="80.366653"
       id="text2"><tspan
         id="tspan1"
         x="7.1023622"
         y="80.366653">ZDA</tspan></text>
    <text
       xml:space="preserve"
       style="font-style:normal;font-variant:normal;font-weight:normal;font-stretch:normal;font-size:74.6667px;font-family:Urbanist;-inkscape-font-specification:Urbanist;letter-spacing:0px;fill:#29242a;fill-opacity:1;stroke:none;stroke-opacity:1"
       x="186.22159"
       y="76.585266"
       id="text3"><tspan
         id="tspan2"
         x="186.22159"
         y="76.585266">WORKS</tspan></text>
  </g>
  <g
     id="g8"
     style="display:none">
    <text
       xml:space="preserve"
       style="font-style:normal;font-variant:normal;font-weight:bold;font-stretch:normal;font-size:85.3333px;font-family:Urbanist;-inkscape-font-specification:'Urbanist Bold';letter-spacing:0px;fill:#fafafa;fill-opacity:1;stroke:none;stroke-opacity:1"
       x="7.1023622"
       y="80.366653"
       id="text7"><tspan
         id="tspan3"
         x="7.1023622"
         y="80.366653">ZDA</tspan></text>
    <text
       xml:space="preserve"
       style="font-style:normal;font-variant:normal;font-weight:normal;font-stretch:normal;font-size:74.6667px;font-family:Urbanist;-inkscape-font-specification:Urbanist;letter-spacing:0px;fill:#fafafa;fill-opacity:1;stroke:none;stroke-opacity:1"
       x="186.22159"
       y="76.585266"
       id="text8"><tspan
         id="tspan7"
         x="186.22159"
         y="76.585266">WORKS</tspan></text>
  </g>
  <g
     id="g11"
     style="display:none">
    <text
       xml:space="preserve"
       style="font-style:normal;font-variant:normal;font-weight:bold;font-stretch:normal;font-size:85.3333px;font-family:Urbanist;-inkscape-font-specification:'Urbanist Bold';letter-spacing:0px;fill:#a1affa;fill-opacity:0.941176;stroke:none;stroke-opacity:1"
       x="7.1023622"
       y="80.366653"
       id="text10"><tspan
         id="tspan10"
         x="7.1023622"
         y="80.366653">ZDA</tspan></text>
    <text
       xml:space="preserve"
       style="font-style:normal;font-variant:normal;font-weight:normal;font-stretch:normal;font-size:74.6667px;font-family:Urbanist;-inkscape-font-specification:Urbanist;letter-spacing:0px;fill:#a1affa;fill-opacity:0.941176;stroke:none;stroke-opacity:1"
       x="186.22159"
       y="76.585266"
       id="text11"><tspan
         id="tspan11"
         x="186.22159"
         y="76.585266">WORKS</tspan></text>
  </g>
  <g
     id="g12"
     style="display:none">
    <path
       id="text9"
       style="font-weight:bold;font-size:85.3333px;font-family:Urbanist;-inkscape-font-specification:'Urbanist Bold';letter-spacing:0px;display:inline;fill:#29242a"
       d="m 10.515625,20.632812 v 10.41211 H 44.777344 L 10.515625,69.955078 v 10.41211 H 58.814453 V 69.955078 H 24.552734 L 58.814453,31.044922 v -10.41211 z m 56.832031,0 v 59.734376 h 19.796875 c 4.124439,-10e-7 7.978506,-0.76869 11.5625,-2.304688 3.612439,-1.564442 6.784959,-3.712696 9.515629,-6.443359 2.75911,-2.759108 4.90541,-5.929678 6.4414,-9.513672 1.56445,-3.61244 2.34766,-7.48103 2.34766,-11.605469 0,-4.124439 -0.78321,-7.978505 -2.34766,-11.5625 -1.53599,-3.612439 -3.68229,-6.784962 -6.4414,-9.515625 -2.73067,-2.759107 -5.90319,-4.905408 -9.515629,-6.441406 -3.583994,-1.564443 -7.438061,-2.347656 -11.5625,-2.347657 z m 72.789064,0 -21.67383,59.734376 h 11.05078 l 3.83985,-10.582032 h 25.5996 l 3.83985,10.582032 h 11.05078 l -21.7168,-59.734376 z m 136.8418,2.714844 c -3.53423,0 -6.85569,0.710241 -9.9668,2.128906 -3.11111,1.393778 -5.85041,3.335332 -8.21484,5.824219 -2.36445,2.488888 -4.21851,5.374824 -5.5625,8.660157 -1.344,3.260442 -2.01563,6.756903 -2.01563,10.490234 0,3.733331 0.67163,7.243965 2.01563,10.529297 1.34399,3.260442 3.19805,6.134159 5.5625,8.623047 2.36443,2.488888 5.10373,4.442662 8.21484,5.861328 3.11111,1.393776 6.43257,2.091797 9.9668,2.091797 3.55911,0 6.89474,-0.698021 10.00586,-2.091797 3.11111,-1.418666 5.84845,-3.37244 8.21289,-5.861328 2.36444,-2.488888 4.20627,-5.362605 5.52539,-8.623047 1.34399,-3.285332 2.01562,-6.795966 2.01562,-10.529297 0,-3.733331 -0.67163,-7.229792 -2.01562,-10.490234 -1.31912,-3.285333 -3.16095,-6.171269 -5.52539,-8.660157 -2.36444,-2.488887 -5.10178,-4.430441 -8.21289,-5.824219 -3.11112,-1.418665 -6.44675,-2.128906 -10.00586,-2.128906 z m 133.54101,0.1875 c -3.31022,0 -6.39559,0.60857 -9.25781,1.828125 -2.83733,1.219556 -5.12692,2.937234 -6.86914,5.152344 -1.74223,2.21511 -2.61328,4.828289 -2.61328,7.839844 0,3.210665 0.82022,5.799403 2.46289,7.765625 1.64266,1.941332 3.87115,3.447356 6.68359,4.517578 2.83734,1.070221 6.03465,1.91684 9.59375,2.539062 2.26489,0.398223 4.43032,0.970131 6.49609,1.716797 2.09067,0.721778 3.79613,1.716996 5.11524,2.986328 1.3191,1.269333 1.97852,2.887295 1.97852,4.853516 -10e-6,1.941332 -0.63497,3.63457 -1.9043,5.078125 -1.26933,1.418666 -2.93618,2.525822 -5.00196,3.322266 -2.06577,0.796443 -4.29425,1.195312 -6.68359,1.195312 -2.04088,0 -4.04355,-0.299152 -6.00976,-0.896484 -1.94134,-0.597334 -3.6468,-1.443953 -5.11524,-2.539063 -1.44356,-1.119999 -2.43877,-2.45103 -2.98633,-3.99414 l -4.89062,1.828125 c 0.79644,2.239999 2.16609,4.169332 4.10742,5.787109 1.94133,1.617777 4.20648,2.863265 6.79492,3.734375 2.61333,0.87111 5.31206,1.306641 8.09961,1.306641 3.36,0 6.45955,-0.610524 9.29688,-1.830079 2.86221,-1.219554 5.16402,-2.937233 6.90625,-5.152343 1.74221,-2.239999 2.61328,-4.853179 2.61328,-7.839844 0,-2.936888 -0.87107,-5.401468 -2.61328,-7.392578 -1.74223,-2.015999 -4.04404,-3.619787 -6.90625,-4.814453 -2.86223,-1.219555 -5.96177,-2.117009 -9.29688,-2.689453 -2.56355,-0.472889 -4.86536,-1.008136 -6.90625,-1.605469 -2.04088,-0.597334 -3.65885,-1.492834 -4.85351,-2.6875 -1.16978,-1.219555 -1.75391,-2.949455 -1.75391,-5.189453 0,-1.916444 0.63496,-3.583287 1.9043,-5.001953 1.26933,-1.443555 2.92395,-2.562932 4.96484,-3.359375 2.06578,-0.821331 4.28009,-1.2202 6.64453,-1.195313 2.06578,0 4.07039,0.299152 6.01172,0.896484 1.94134,0.572445 3.63457,1.41711 5.07813,2.53711 1.46844,1.09511 2.47588,2.428094 3.02343,3.996094 l 4.96485,-1.792969 c -0.87112,-2.339554 -2.30186,-4.31777 -4.29297,-5.935547 -1.96622,-1.617777 -4.24359,-2.849091 -6.83203,-3.695312 -2.58845,-0.846222 -5.24024,-1.269532 -7.95313,-1.269532 z m -222.54297,0.783203 13.36524,52.267579 h 6.12304 l 10.26563,-40.134766 10.26758,40.134766 h 6.19726 l 13.29102,-52.267579 h -5.37695 L 231.0957,67.587891 220.04492,24.318359 h -4.6289 L 204.40234,67.587891 193.35156,24.318359 Z m 122.3418,0 v 52.267579 h 5.22656 V 54.894531 h 9.55664 l 12.58203,21.691407 h 6.04688 L 330.96289,54.484375 c 2.26489,-0.448 4.29394,-1.357675 6.08594,-2.726563 1.81689,-1.368888 3.24763,-3.098787 4.29297,-5.189453 1.04533,-2.090666 1.56836,-4.416914 1.56836,-6.980468 0,-2.862221 -0.65941,-5.438739 -1.97852,-7.728516 -1.3191,-2.314665 -3.09984,-4.144282 -5.33984,-5.488281 -2.24,-1.368888 -4.75347,-2.052735 -7.54102,-2.052735 z m 42.63476,0 v 52.267579 h 5.22657 V 58.441406 l 4.4414,-5.33789 17.13672,23.482422 h 6.75781 l -20.45898,-27.589844 20.7207,-24.677735 h -6.83203 L 358.17969,50.302734 V 24.318359 Z m -75.9746,4.25586 c 2.83733,0 5.48912,0.571908 7.95312,1.716797 2.48889,1.144888 4.66654,2.726188 6.5332,4.742187 1.89156,1.99111 3.37118,4.317359 4.44141,6.980469 1.07022,2.638221 1.60547,5.450835 1.60547,8.4375 0,2.961776 -0.53525,5.76217 -1.60547,8.40039 -1.04533,2.638222 -2.51274,4.966424 -4.4043,6.982422 -1.86666,2.015999 -4.04432,3.607567 -6.5332,4.777344 -2.464,1.144888 -5.12802,1.71875 -7.99023,1.71875 -2.83733,0 -5.49939,-0.561641 -7.98829,-1.68164 -2.46399,-1.144889 -4.64164,-2.724236 -6.5332,-4.740235 -1.86666,-2.015999 -3.33603,-4.344201 -4.40625,-6.982422 -1.07022,-2.63822 -1.60547,-5.463055 -1.60547,-8.474609 0,-2.961776 0.52303,-5.760216 1.56836,-8.398438 1.07022,-2.63822 2.53763,-4.966423 4.4043,-6.982422 1.89156,-2.015999 4.07116,-3.595346 6.53515,-4.740234 2.48889,-1.169777 5.16317,-1.755859 8.0254,-1.755859 z m 38.5664,0.410156 h 12.0586 c 1.84177,0 3.52083,0.461924 5.03906,1.382813 1.54311,0.895999 2.7622,2.127313 3.6582,3.695312 0.92089,1.54311 1.38281,3.297451 1.38281,5.263672 0,1.966221 -0.46192,3.732781 -1.38281,5.300781 -0.896,1.54311 -2.11509,2.776377 -3.6582,3.697266 -1.51823,0.896 -3.19729,1.34375 -5.03906,1.34375 h -12.0586 z M 77.757812,31.044922 h 9.386719 c 2.673774,0 5.177324,0.511157 7.509766,1.535156 2.332441,0.995554 4.395503,2.389643 6.187503,4.181641 1.792,1.791997 3.19865,3.853106 4.22265,6.185547 1.024,2.332441 1.53711,4.850516 1.53711,7.552734 0,2.702219 -0.51311,5.232864 -1.53711,7.59375 -1.024,2.332441 -2.43065,4.395502 -4.22265,6.1875 -1.792,1.763553 -3.869586,3.157642 -6.230472,4.181641 -2.332441,0.995554 -4.821467,1.492187 -7.466797,1.492187 h -9.386719 z m 68.353518,3.710937 9.00195,24.619141 h -17.96289 z" />
  </g>
  <g
     id="g13"
     style="display:none">
    <path
       id="text12"
       style="font-weight:bold;font-size:85.3333px;font-family:Urbanist;-inkscape-font-specification:'Urbanist Bold';letter-spacing:0px;fill:#fafafa"
       d="m 10.515625,20.632812 v 10.41211 H 44.777344 L 10.515625,69.955078 v 10.41211 H 58.814453 V 69.955078 H 24.552734 L 58.814453,31.044922 v -10.41211 z m 56.832031,0 v 59.734376 h 19.796875 c 4.124439,-10e-7 7.978506,-0.76869 11.5625,-2.304688 3.612439,-1.564442 6.784959,-3.712696 9.515629,-6.443359 2.75911,-2.759108 4.90541,-5.929678 6.4414,-9.513672 1.56445,-3.61244 2.34766,-7.48103 2.34766,-11.605469 0,-4.124439 -0.78321,-7.978505 -2.34766,-11.5625 -1.53599,-3.612439 -3.68229,-6.784962 -6.4414,-9.515625 -2.73067,-2.759107 -5.90319,-4.905408 -9.515629,-6.441406 -3.583994,-1.564443 -7.438061,-2.347656 -11.5625,-2.347657 z m 72.789064,0 -21.67383,59.734376 h 11.05078 l 3.83985,-10.582032 h 25.5996 l 3.83985,10.582032 h 11.05078 l -21.7168,-59.734376 z m 136.8418,2.714844 c -3.53423,0 -6.85569,0.710241 -9.9668,2.128906 -3.11111,1.393778 -5.85041,3.335332 -8.21484,5.824219 -2.36445,2.488888 -4.21851,5.374824 -5.5625,8.660157 -1.344,3.260442 -2.01563,6.756903 -2.01563,10.490234 0,3.733331 0.67163,7.243965 2.01563,10.529297 1.34399,3.260442 3.19805,6.134159 5.5625,8.623047 2.36443,2.488888 5.10373,4.442662 8.21484,5.861328 3.11111,1.393776 6.43257,2.091797 9.9668,2.091797 3.55911,0 6.89474,-0.698021 10.00586,-2.091797 3.11111,-1.418666 5.84845,-3.37244 8.21289,-5.861328 2.36444,-2.488888 4.20627,-5.362605 5.52539,-8.623047 1.34399,-3.285332 2.01562,-6.795966 2.01562,-10.529297 0,-3.733331 -0.67163,-7.229792 -2.01562,-10.490234 -1.31912,-3.285333 -3.16095,-6.171269 -5.52539,-8.660157 -2.36444,-2.488887 -5.10178,-4.430441 -8.21289,-5.824219 -3.11112,-1.418665 -6.44675,-2.128906 -10.00586,-2.128906 z m 133.54101,0.1875 c -3.31022,0 -6.39559,0.60857 -9.25781,1.828125 -2.83733,1.219556 -5.12692,2.937234 -6.86914,5.152344 -1.74223,2.21511 -2.61328,4.828289 -2.61328,7.839844 0,3.210665 0.82022,5.799403 2.46289,7.765625 1.64266,1.941332 3.87115,3.447356 6.68359,4.517578 2.83734,1.070221 6.03465,1.91684 9.59375,2.539062 2.26489,0.398223 4.43032,0.970131 6.49609,1.716797 2.09067,0.721778 3.79613,1.716996 5.11524,2.986328 1.3191,1.269333 1.97852,2.887295 1.97852,4.853516 -10e-6,1.941332 -0.63497,3.63457 -1.9043,5.078125 -1.26933,1.418666 -2.93618,2.525822 -5.00196,3.322266 -2.06577,0.796443 -4.29425,1.195312 -6.68359,1.195312 -2.04088,0 -4.04355,-0.299152 -6.00976,-0.896484 -1.94134,-0.597334 -3.6468,-1.443953 -5.11524,-2.539063 -1.44356,-1.119999 -2.43877,-2.45103 -2.98633,-3.99414 l -4.89062,1.828125 c 0.79644,2.239999 2.16609,4.169332 4.10742,5.787109 1.94133,1.617777 4.20648,2.863265 6.79492,3.734375 2.61333,0.87111 5.31206,1.306641 8.09961,1.306641 3.36,0 6.45955,-0.610524 9.29688,-1.830079 2.86221,-1.219554 5.16402,-2.937233 6.90625,-5.152343 1.74221,-2.239999 2.61328,-4.853179 2.61328,-7.839844 0,-2.936888 -0.87107,-5.401468 -2.61328,-7.392578 -1.74223,-2.015999 -4.04404,-3.619787 -6.90625,-4.814453 -2.86223,-1.219555 -5.96177,-2.117009 -9.29688,-2.689453 -2.56355,-0.472889 -4.86536,-1.008136 -6.90625,-1.605469 -2.04088,-0.597334 -3.65885,-1.492834 -4.85351,-2.6875 -1.16978,-1.219555 -1.75391,-2.949455 -1.75391,-5.189453 0,-1.916444 0.63496,-3.583287 1.9043,-5.001953 1.26933,-1.443555 2.92395,-2.562932 4.96484,-3.359375 2.06578,-0.821331 4.28009,-1.2202 6.64453,-1.195313 2.06578,0 4.07039,0.299152 6.01172,0.896484 1.94134,0.572445 3.63457,1.41711 5.07813,2.53711 1.46844,1.09511 2.47588,2.428094 3.02343,3.996094 l 4.96485,-1.792969 c -0.87112,-2.339554 -2.30186,-4.31777 -4.29297,-5.935547 -1.96622,-1.617777 -4.24359,-2.849091 -6.83203,-3.695312 -2.58845,-0.846222 -5.24024,-1.269532 -7.95313,-1.269532 z m -222.54297,0.783203 13.36524,52.267579 h 6.12304 l 10.26563,-40.134766 10.26758,40.134766 h 6.19726 l 13.29102,-52.267579 h -5.37695 L 231.0957,67.587891 220.04492,24.318359 h -4.6289 L 204.40234,67.587891 193.35156,24.318359 Z m 122.3418,0 v 52.267579 h 5.22656 V 54.894531 h 9.55664 l 12.58203,21.691407 h 6.04688 L 330.96289,54.484375 c 2.26489,-0.448 4.29394,-1.357675 6.08594,-2.726563 1.81689,-1.368888 3.24763,-3.098787 4.29297,-5.189453 1.04533,-2.090666 1.56836,-4.416914 1.56836,-6.980468 0,-2.862221 -0.65941,-5.438739 -1.97852,-7.728516 -1.3191,-2.314665 -3.09984,-4.144282 -5.33984,-5.488281 -2.24,-1.368888 -4.75347,-2.052735 -7.54102,-2.052735 z m 42.63476,0 v 52.267579 h 5.22657 V 58.441406 l 4.4414,-5.33789 17.13672,23.482422 h 6.75781 l -20.45898,-27.589844 20.7207,-24.677735 h -6.83203 L 358.17969,50.302734 V 24.318359 Z m -75.9746,4.25586 c 2.83733,0 5.48912,0.571908 7.95312,1.716797 2.48889,1.144888 4.66654,2.726188 6.5332,4.742187 1.89156,1.99111 3.37118,4.317359 4.44141,6.980469 1.07022,2.638221 1.60547,5.450835 1.60547,8.4375 0,2.961776 -0.53525,5.76217 -1.60547,8.40039 -1.04533,2.638222 -2.51274,4.966424 -4.4043,6.982422 -1.86666,2.015999 -4.04432,3.607567 -6.5332,4.777344 -2.464,1.144888 -5.12802,1.71875 -7.99023,1.71875 -2.83733,0 -5.49939,-0.561641 -7.98829,-1.68164 -2.46399,-1.144889 -4.64164,-2.724236 -6.5332,-4.740235 -1.86666,-2.015999 -3.33603,-4.344201 -4.40625,-6.982422 -1.07022,-2.63822 -1.60547,-5.463055 -1.60547,-8.474609 0,-2.961776 0.52303,-5.760216 1.56836,-8.398438 1.07022,-2.63822 2.53763,-4.966423 4.4043,-6.982422 1.89156,-2.015999 4.07116,-3.595346 6.53515,-4.740234 2.48889,-1.169777 5.16317,-1.755859 8.0254,-1.755859 z m 38.5664,0.410156 h 12.0586 c 1.84177,0 3.52083,0.461924 5.03906,1.382813 1.54311,0.895999 2.7622,2.127313 3.6582,3.695312 0.92089,1.54311 1.38281,3.297451 1.38281,5.263672 0,1.966221 -0.46192,3.732781 -1.38281,5.300781 -0.896,1.54311 -2.11509,2.776377 -3.6582,3.697266 -1.51823,0.896 -3.19729,1.34375 -5.03906,1.34375 h -12.0586 z M 77.757812,31.044922 h 9.386719 c 2.673774,0 5.177324,0.511157 7.509766,1.535156 2.332441,0.995554 4.395503,2.389643 6.187503,4.181641 1.792,1.791997 3.19865,3.853106 4.22265,6.185547 1.024,2.332441 1.53711,4.850516 1.53711,7.552734 0,2.702219 -0.51311,5.232864 -1.53711,7.59375 -1.024,2.332441 -2.43065,4.395502 -4.22265,6.1875 -1.792,1.763553 -3.869586,3.157642 -6.230472,4.181641 -2.332441,0.995554 -4.821467,1.492187 -7.466797,1.492187 h -9.386719 z m 68.353518,3.710937 9.00195,24.619141 h -17.96289 z" />
  </g>
  <g
     id="g14"
     style="display:inline">
    <path
       id="text13"
       style="font-weight:bold;font-size:85.3333px;font-family:Urbanist;-inkscape-font-specification:'Urbanist Bold';letter-spacing:0px;fill:#a1affa;fill-opacity:0.941176"
       d="m 10.515625,20.632812 v 10.41211 H 44.777344 L 10.515625,69.955078 v 10.41211 H 58.814453 V 69.955078 H 24.552734 L 58.814453,31.044922 v -10.41211 z m 56.832031,0 v 59.734376 h 19.796875 c 4.124439,-10e-7 7.978506,-0.76869 11.5625,-2.304688 3.612439,-1.564442 6.784959,-3.712696 9.515629,-6.443359 2.75911,-2.759108 4.90541,-5.929678 6.4414,-9.513672 1.56445,-3.61244 2.34766,-7.48103 2.34766,-11.605469 0,-4.124439 -0.78321,-7.978505 -2.34766,-11.5625 -1.53599,-3.612439 -3.68229,-6.784962 -6.4414,-9.515625 -2.73067,-2.759107 -5.90319,-4.905408 -9.515629,-6.441406 -3.583994,-1.564443 -7.438061,-2.347656 -11.5625,-2.347657 z m 72.789064,0 -21.67383,59.734376 h 11.05078 l 3.83985,-10.582032 h 25.5996 l 3.83985,10.582032 h 11.05078 l -21.7168,-59.734376 z m 136.8418,2.714844 c -3.53423,0 -6.85569,0.710241 -9.9668,2.128906 -3.11111,1.393778 -5.85041,3.335332 -8.21484,5.824219 -2.36445,2.488888 -4.21851,5.374824 -5.5625,8.660157 -1.344,3.260442 -2.01563,6.756903 -2.01563,10.490234 0,3.733331 0.67163,7.243965 2.01563,10.529297 1.34399,3.260442 3.19805,6.134159 5.5625,8.623047 2.36443,2.488888 5.10373,4.442662 8.21484,5.861328 3.11111,1.393776 6.43257,2.091797 9.9668,2.091797 3.55911,0 6.89474,-0.698021 10.00586,-2.091797 3.11111,-1.418666 5.84845,-3.37244 8.21289,-5.861328 2.36444,-2.488888 4.20627,-5.362605 5.52539,-8.623047 1.34399,-3.285332 2.01562,-6.795966 2.01562,-10.529297 0,-3.733331 -0.67163,-7.229792 -2.01562,-10.490234 -1.31912,-3.285333 -3.16095,-6.171269 -5.52539,-8.660157 -2.36444,-2.488887 -5.10178,-4.430441 -8.21289,-5.824219 -3.11112,-1.418665 -6.44675,-2.128906 -10.00586,-2.128906 z m 133.54101,0.1875 c -3.31022,0 -6.39559,0.60857 -9.25781,1.828125 -2.83733,1.219556 -5.12692,2.937234 -6.86914,5.152344 -1.74223,2.21511 -2.61328,4.828289 -2.61328,7.839844 0,3.210665 0.82022,5.799403 2.46289,7.765625 1.64266,1.941332 3.87115,3.447356 6.68359,4.517578 2.83734,1.070221 6.03465,1.91684 9.59375,2.539062 2.26489,0.398223 4.43032,0.970131 6.49609,1.716797 2.09067,0.721778 3.79613,1.716996 5.11524,2.986328 1.3191,1.269333 1.97852,2.887295 1.97852,4.853516 -10e-6,1.941332 -0.63497,3.63457 -1.9043,5.078125 -1.26933,1.418666 -2.93618,2.525822 -5.00196,3.322266 -2.06577,0.796443 -4.29425,1.195312 -6.68359,1.195312 -2.04088,0 -4.04355,-0.299152 -6.00976,-0.896484 -1.94134,-0.597334 -3.6468,-1.443953 -5.11524,-2.539063 -1.44356,-1.119999 -2.43877,-2.45103 -2.98633,-3.99414 l -4.89062,1.828125 c 0.79644,2.239999 2.16609,4.169332 4.10742,5.787109 1.94133,1.617777 4.20648,2.863265 6.79492,3.734375 2.61333,0.87111 5.31206,1.306641 8.09961,1.306641 3.36,0 6.45955,-0.610524 9.29688,-1.830079 2.86221,-1.219554 5.16402,-2.937233 6.90625,-5.152343 1.74221,-2.239999 2.61328,-4.853179 2.61328,-7.839844 0,-2.936888 -0.87107,-5.401468 -2.61328,-7.392578 -1.74223,-2.015999 -4.04404,-3.619787 -6.90625,-4.814453 -2.86223,-1.219555 -5.96177,-2.117009 -9.29688,-2.689453 -2.56355,-0.472889 -4.86536,-1.008136 -6.90625,-1.605469 -2.04088,-0.597334 -3.65885,-1.492834 -4.85351,-2.6875 -1.16978,-1.219555 -1.75391,-2.949455 -1.75391,-5.189453 0,-1.916444 0.63496,-3.583287 1.9043,-5.001953 1.26933,-1.443555 2.92395,-2.562932 4.96484,-3.359375 2.06578,-0.821331 4.28009,-1.2202 6.64453,-1.195313 2.06578,0 4.07039,0.299152 6.01172,0.896484 1.94134,0.572445 3.63457,1.41711 5.07813,2.53711 1.46844,1.09511 2.47588,2.428094 3.02343,3.996094 l 4.96485,-1.792969 c -0.87112,-2.339554 -2.30186,-4.31777 -4.29297,-5.935547 -1.96622,-1.617777 -4.24359,-2.849091 -6.83203,-3.695312 -2.58845,-0.846222 -5.24024,-1.269532 -7.95313,-1.269532 z m -222.54297,0.783203 13.36524,52.267579 h 6.12304 l 10.26563,-40.134766 10.26758,40.134766 h 6.19726 l 13.29102,-52.267579 h -5.37695 L 231.0957,67.587891 220.04492,24.318359 h -4.6289 L 204.40234,67.587891 193.35156,24.318359 Z m 122.3418,0 v 52.267579 h 5.22656 V 54.894531 h 9.55664 l 12.58203,21.691407 h 6.04688 L 330.96289,54.484375 c 2.26489,-0.448 4.29394,-1.357675 6.08594,-2.726563 1.81689,-1.368888 3.24763,-3.098787 4.29297,-5.189453 1.04533,-2.090666 1.56836,-4.416914 1.56836,-6.980468 0,-2.862221 -0.65941,-5.438739 -1.97852,-7.728516 -1.3191,-2.314665 -3.09984,-4.144282 -5.33984,-5.488281 -2.24,-1.368888 -4.75347,-2.052735 -7.54102,-2.052735 z m 42.63476,0 v 52.267579 h 5.22657 V 58.441406 l 4.4414,-5.33789 17.13672,23.482422 h 6.75781 l -20.45898,-27.589844 20.7207,-24.677735 h -6.83203 L 358.17969,50.302734 V 24.318359 Z m -75.9746,4.25586 c 2.83733,0 5.48912,0.571908 7.95312,1.716797 2.48889,1.144888 4.66654,2.726188 6.5332,4.742187 1.89156,1.99111 3.37118,4.317359 4.44141,6.980469 1.07022,2.638221 1.60547,5.450835 1.60547,8.4375 0,2.961776 -0.53525,5.76217 -1.60547,8.40039 -1.04533,2.638222 -2.51274,4.966424 -4.4043,6.982422 -1.86666,2.015999 -4.04432,3.607567 -6.5332,4.777344 -2.464,1.144888 -5.12802,1.71875 -7.99023,1.71875 -2.83733,0 -5.49939,-0.561641 -7.98829,-1.68164 -2.46399,-1.144889 -4.64164,-2.724236 -6.5332,-4.740235 -1.86666,-2.015999 -3.33603,-4.344201 -4.40625,-6.982422 -1.07022,-2.63822 -1.60547,-5.463055 -1.60547,-8.474609 0,-2.961776 0.52303,-5.760216 1.56836,-8.398438 1.07022,-2.63822 2.53763,-4.966423 4.4043,-6.982422 1.89156,-2.015999 4.07116,-3.595346 6.53515,-4.740234 2.48889,-1.169777 5.16317,-1.755859 8.0254,-1.755859 z m 38.5664,0.410156 h 12.0586 c 1.84177,0 3.52083,0.461924 5.03906,1.382813 1.54311,0.895999 2.7622,2.127313 3.6582,3.695312 0.92089,1.54311 1.38281,3.297451 1.38281,5.263672 0,1.966221 -0.46192,3.732781 -1.38281,5.300781 -0.896,1.54311 -2.11509,2.776377 -3.6582,3.697266 -1.51823,0.896 -3.19729,1.34375 -5.03906,1.34375 h -12.0586 z M 77.757812,31.044922 h 9.386719 c 2.673774,0 5.177324,0.511157 7.509766,1.535156 2.332441,0.995554 4.395503,2.389643 6.187503,4.181641 1.792,1.791997 3.19865,3.853106 4.22265,6.185547 1.024,2.332441 1.53711,4.850516 1.53711,7.552734 0,2.702219 -0.51311,5.232864 -1.53711,7.59375 -1.024,2.332441 -2.43065,4.395502 -4.22265,6.1875 -1.792,1.763553 -3.869586,3.157642 -6.230472,4.181641 -2.332441,0.995554 -4.821467,1.492187 -7.466797,1.492187 h -9.386719 z m 68.353518,3.710937 9.00195,24.619141 h -17.96289 z" />
  </g>
  <g
     id="layer3"
     transform="translate(-124.5,-309.5)"
     style="display:none">
    <rect
       style="display:inline;fill:none;stroke:#fafafa;stroke-width:1;stroke-dasharray:none"
       id="rect86"
       width="450"
       height="100"
       x="125"
       y="310" />
  </g>
</svg>
