<?xml version="1.0" encoding="UTF-8" standalone="no"?>
<!-- Created with Inkscape (http://www.inkscape.org/) -->

<svg
   width="851"
   height="141"
   viewBox="0 0 851 141"
   version="1.1"
   id="svg1"
   xmlns="http://www.w3.org/2000/svg"
   xmlns:svg="http://www.w3.org/2000/svg"
   xmlns:rdf="http://www.w3.org/1999/02/22-rdf-syntax-ns#"
   xmlns:cc="http://creativecommons.org/ns#"
   xmlns:dc="http://purl.org/dc/elements/1.1/">
  <title
     id="title2">ZeroDayAnubis Long Text Logo</title>
  <defs
     id="defs1" />
  <g
     id="g19"
     style="display:inline"
     transform="translate(-39.5,-249.5)">
    <path
       id="text15"
       style="font-weight:300;font-size:85.3333px;font-family:Urbanist;-inkscape-font-specification:'Urbanist Light';letter-spacing:10px;fill:#fafafa"
       d="m 319.66992,289.1582 c -4.03911,0 -7.83703,0.81031 -11.39258,2.43164 -3.55555,1.59289 -6.6845,3.81182 -9.38672,6.65625 -2.70221,2.84445 -4.82142,6.14378 -6.35742,9.89844 -1.536,3.72622 -2.30468,7.72162 -2.30468,11.98828 0,4.26666 0.76868,8.27854 2.30468,12.03321 1.536,3.72621 3.65521,7.01102 6.35742,9.85546 2.70222,2.84444 5.83117,5.07789 9.38672,6.69922 3.55555,1.59289 7.35347,2.38868 11.39258,2.38868 4.06755,0 7.87805,-0.79579 11.4336,-2.38868 3.55555,-1.62133 6.6845,-3.85478 9.38671,-6.69922 2.70222,-2.84444 4.8069,-6.12925 6.31446,-9.85546 1.53599,-3.75467 2.30469,-7.76655 2.30469,-12.03321 0,-4.26666 -0.7687,-8.26206 -2.30469,-11.98828 -1.50756,-3.75466 -3.61224,-7.05399 -6.31446,-9.89844 -2.70221,-2.84443 -5.83116,-5.06336 -9.38671,-6.65625 -3.55555,-1.62133 -7.36605,-2.43164 -11.4336,-2.43164 z m 482.91992,0.084 c -3.81155,0 -7.36841,0.71254 -10.66796,2.13476 -3.29956,1.42222 -5.95897,3.42718 -7.97852,6.01563 -1.99111,2.58844 -2.98633,5.61767 -2.98633,9.08789 0,3.72622 0.93908,6.7264 2.81641,9.00195 1.90578,2.27555 4.47999,4.05399 7.72265,5.33399 3.27111,1.25155 6.96931,2.21772 11.09375,2.90039 2.41777,0.42666 4.73446,1.03949 6.95313,1.83593 2.21866,0.768 4.04067,1.81937 5.46289,3.15625 1.42222,1.30844 2.13281,3.00168 2.13281,5.07813 0,2.01955 -0.68349,3.78346 -2.04883,5.29101 -1.36532,1.50756 -3.15633,2.68769 -5.375,3.54102 -2.19022,0.82489 -4.56501,1.23633 -7.125,1.23633 -2.24711,0 -4.42441,-0.32625 -6.52929,-0.98047 -2.10489,-0.65423 -3.93946,-1.56425 -5.50391,-2.73047 -1.536,-1.19466 -2.58736,-2.58875 -3.15625,-4.18164 l -6.69922,2.51758 c 0.93866,2.58844 2.51767,4.81994 4.73633,6.69726 2.24711,1.87734 4.86295,3.32952 7.84961,4.35352 2.98666,0.99556 6.08851,1.49219 9.30273,1.49219 3.86844,0 7.45241,-0.71059 10.75196,-2.13282 3.29955,-1.42221 5.94443,-3.42718 7.93554,-6.01562 2.01956,-2.58844 3.0293,-5.61767 3.0293,-9.08789 0,-3.41333 -1.00974,-6.2867 -3.0293,-8.61914 -1.99111,-2.33245 -4.63599,-4.19607 -7.93554,-5.58985 -3.29955,-1.42222 -6.88352,-2.45906 -10.75196,-3.11328 -2.73066,-0.48355 -5.19259,-1.03828 -7.38281,-1.66406 -2.19022,-0.62578 -3.92508,-1.56485 -5.20508,-2.8164 -1.25155,-1.28 -1.87695,-3.11458 -1.87695,-5.50391 0,-1.99111 0.6835,-3.7405 2.04883,-5.24805 1.36533,-1.50756 3.14181,-2.68768 5.33203,-3.54101 2.19022,-0.85336 4.55243,-1.26675 7.08398,-1.23829 2.27555,0 4.45091,0.32821 6.52735,0.98243 2.10489,0.62578 3.92494,1.5358 5.46093,2.73047 1.56445,1.16621 2.63229,2.5603 3.20118,4.18164 l 6.7832,-2.47657 c -0.99555,-2.70222 -2.6307,-4.99181 -4.90625,-6.86914 -2.27556,-1.87733 -4.90787,-3.29851 -7.89453,-4.26562 -2.95822,-0.99555 -6.01455,-1.49414 -9.17188,-1.49414 z m -247.82422,0.93945 -21.71679,59.73242 h 7.63672 l 4.39453,-12.20117 h 28.03125 l 4.4375,12.20117 h 7.5957 l -21.71875,-59.73242 z m 40.14454,0 v 59.73242 h 7.16796 v -46.76172 l 29.86524,46.76172 h 7.72266 v -59.73242 h -7.16797 v 46.76172 l -29.82422,-46.76172 z m 56.99609,0 v 34.81641 c 0,4.8071 0.93907,9.18685 2.81641,13.14062 1.90577,3.92533 4.60876,7.05428 8.10742,9.38672 3.52711,2.33244 7.67837,3.49805 12.45703,3.49805 3.58399,0 6.81266,-0.66702 9.68555,-2.00391 2.87288,-1.33688 5.32029,-3.20051 7.33984,-5.58984 2.048,-2.38933 3.61247,-5.14846 4.69336,-8.27735 1.08088,-3.15733 1.62109,-6.54186 1.62109,-10.15429 v -34.81641 h -7.16797 v 34.81641 c 0,3.41333 -0.62539,6.55485 -1.87695,9.42773 -1.2231,2.84444 -3.03059,5.13598 -5.41992,6.8711 -2.38933,1.70666 -5.3479,2.55859 -8.875,2.55859 -3.47022,0 -6.41426,-0.85193 -8.83203,-2.55859 -2.38933,-1.70667 -4.22391,-3.99821 -5.50391,-6.8711 -1.25155,-2.87288 -1.87695,-6.0144 -1.87695,-9.42773 v -34.81641 z m 58.40625,0 v 59.73242 h 23.21094 c 3.0151,0 5.77423,-0.71059 8.27734,-2.13281 2.50311,-1.42222 4.49355,-3.38556 5.97266,-5.88867 1.50755,-2.53155 2.26172,-5.44655 2.26172,-8.7461 0,-1.56444 -0.17039,-3.18506 -0.51172,-4.86328 -0.34134,-1.67822 -0.91059,-3.28626 -1.70703,-4.82226 -0.768,-1.536 -1.77775,-2.872 -3.0293,-4.00977 -1.25156,-1.16622 -2.77441,-1.97653 -4.56641,-2.43164 1.28,-0.39823 2.41851,-1.16691 3.41407,-2.30469 1.02399,-1.16622 1.81978,-2.54578 2.38867,-4.13867 0.59733,-1.62133 0.89648,-3.30005 0.89648,-5.03515 0,-3.21422 -0.71059,-5.97335 -2.13281,-8.27735 -1.42223,-2.304 -3.35652,-4.05338 -5.80273,-5.24805 -2.41778,-1.22311 -5.10623,-1.83398 -8.06446,-1.83398 z m 50.55469,0 v 59.73242 h 7.16797 v -59.73242 z m -647.45313,0.0859 v 4.60742 h 42.19727 l -42.19727,50.51758 V 350 h 48.29883 v -4.60742 H 119.51562 L 161.71289,294.875 v -4.60742 z m 66.83203,0 V 350 h 36.00977 v -4.60742 h -31.40234 v -25.08789 h 26.2832 v -4.60938 h -26.2832 V 294.875 h 31.40234 v -4.60742 z m 56.08008,0 V 350 h 4.60742 v -25.13086 h 12.20313 L 267.72852,350 h 5.33203 l -14.67578,-25.42969 c 2.67377,-0.39822 5.09017,-1.3644 7.25195,-2.90039 2.16177,-1.56444 3.86954,-3.55683 5.12109,-5.97461 1.28,-2.41777 1.91992,-5.13332 1.91992,-8.14843 0,-3.24266 -0.75416,-6.17218 -2.26171,-8.78907 -1.47912,-2.61688 -3.49861,-4.67995 -6.0586,-6.1875 -2.56,-1.536 -5.41884,-2.30273 -8.57617,-2.30273 z m 127.93945,0 V 350 h 19.75391 c 4.12444,0 7.99303,-0.76869 11.60547,-2.30469 3.61244,-1.56444 6.78496,-3.71074 9.51562,-6.4414 2.73067,-2.75911 4.8644,-5.93163 6.4004,-9.51563 1.56444,-3.61244 2.3457,-7.48103 2.3457,-11.60547 0,-4.12444 -0.78126,-7.9785 -2.3457,-11.5625 -1.536,-3.61243 -3.66973,-6.78301 -6.4004,-9.51367 -2.73066,-2.7591 -5.90318,-4.90736 -9.51562,-6.44336 -3.61244,-1.56444 -7.48103,-2.3457 -11.60547,-2.3457 z m 79.89844,0 L 422.44727,350 h 6.35742 l 4.65039,-12.80078 h 28.88476 L 466.99023,350 h 6.35743 l -21.75977,-59.73242 z m 31.34375,0 20.09571,32.68164 V 350 h 5.9746 v -27.05078 l 20.13868,-32.68164 h -7.04102 l -16.08594,26.1543 -16.04101,-26.1543 z M 848.1875,290.5 V 294 H 866 v 17.8125 h 3.5 V 290.5 Z m -528.51758,3.26562 c 3.44177,0 6.65592,0.69608 9.64258,2.08985 2.98666,1.36533 5.61703,3.258 7.89258,5.67578 2.27555,2.41777 4.05398,5.21852 5.33398,8.4043 1.30845,3.18577 1.96289,6.58482 1.96289,10.19726 0,3.55555 -0.63992,6.92751 -1.91992,10.11328 -1.28,3.18578 -3.05843,6.00105 -5.33398,8.44727 -2.24711,2.41777 -4.87748,4.32302 -7.89258,5.7168 -2.98666,1.39377 -6.21533,2.09179 -9.68555,2.09179 -3.41333,0 -6.62747,-0.6835 -9.64258,-2.04883 -2.98665,-1.36533 -5.61897,-3.25605 -7.89453,-5.67382 -2.27555,-2.44622 -4.06656,-5.26345 -5.375,-8.44922 -1.28,-3.18577 -1.91992,-6.58483 -1.91992,-10.19727 0,-3.55555 0.63992,-6.92556 1.91992,-10.11133 1.28,-3.18577 3.04196,-5.98847 5.28907,-8.40625 2.27555,-2.44621 4.90786,-4.36598 7.89453,-5.75976 3.01511,-1.39377 6.2583,-2.08985 9.72851,-2.08985 z m -78.73633,0.72461 h 14.54883 c 2.304,0 4.40868,0.56926 6.31446,1.70704 1.90577,1.10933 3.42862,2.64476 4.5664,4.60742 1.13777,1.93422 1.70508,4.12605 1.70508,6.57226 0,2.47467 -0.56731,4.67907 -1.70508,6.61328 -1.13778,1.93422 -2.66063,3.46965 -4.5664,4.60743 -1.90578,1.10933 -4.01046,1.66406 -6.31446,1.66406 h -14.54883 z m 129.30469,1.75 h 13.78125 c 3.29955,0 6.38688,0.62541 9.25977,1.87696 2.87288,1.22311 5.40353,2.93087 7.59375,5.12109 2.21866,2.19022 3.94095,4.73539 5.16406,7.63672 1.25155,2.87288 1.87695,5.95826 1.87695,9.25781 0,3.29955 -0.6254,6.40141 -1.87695,9.30274 -1.22311,2.87288 -2.93088,5.40353 -5.12109,7.59375 -2.19022,2.19021 -4.73539,3.91055 -7.63672,5.16211 -2.87289,1.22311 -5.96022,1.83593 -9.25977,1.83593 h -13.78125 z m 347.24219,0.25586 h 12.75586 c 2.61688,0 4.85033,0.75417 6.69922,2.26172 1.87733,1.47911 2.8164,3.72513 2.8164,6.74024 0,2.78755 -0.93907,4.96485 -2.8164,6.52929 -1.84889,1.536 -4.08234,2.30274 -6.69922,2.30274 h -12.75586 z m -269.60352,1.10938 12.24414,33.62109 h -24.49023 z m 111.19727,1.75 11.39258,31.18945 h -22.74219 z m 158.40625,21.16211 h 15.40234 c 1.96267,0 3.7411,0.54021 5.33399,1.62109 1.62133,1.08089 2.91374,2.50403 3.88086,4.26758 0.9671,1.7351 1.45117,3.58226 1.45117,5.54492 0,2.21867 -0.48407,4.21106 -1.45117,5.97461 -0.96712,1.76356 -2.25953,3.15764 -3.88086,4.18164 -1.59289,0.99555 -3.37132,1.49219 -5.33399,1.49219 H 717.48047 Z M 60,328.6875 V 350 h 21.3125 v -3.5 H 63.5 v -17.8125 z" />
  </g>
  <metadata
     id="metadata2">
    <rdf:RDF>
      <cc:Work
         rdf:about="">
        <dc:title>ZeroDayAnubis Long Text Logo</dc:title>
      </cc:Work>
    </rdf:RDF>
  </metadata>
</svg>
