<svg xmlns="http://www.w3.org/2000/svg" xmlns:xlink="http://www.w3.org/1999/xlink" xml:space="preserve" width="1152" height="232" viewBox="0 0 1152 232"><title>ZeroDayAnubis Long Text Logo Rev2</title><defs><linearGradient id="b"><stop offset="0" stop-color="#fafafa" stop-opacity=".102"/><stop offset=".48" stop-color="#fafafa"/><stop offset="1" stop-color="#fafafa" stop-opacity=".102"/></linearGradient><linearGradient id="a"><stop offset="0" stop-color="#19141a" stop-opacity=".1"/><stop offset=".4806" stop-color="#19141a" stop-opacity=".98"/><stop offset="1" stop-color="#19141a" stop-opacity=".1"/></linearGradient><linearGradient xlink:href="#a" id="c" x1="268" x2="1231.6722" y1="296.5" y2="296.5" gradientTransform="translate(0 3.5)" gradientUnits="userSpaceOnUse"/><linearGradient xlink:href="#b" id="d" x1="268" x2="1231.6722" y1="300" y2="300" gradientUnits="userSpaceOnUse"/></defs><path fill="none" stroke="url(#d)" stroke-linecap="square" stroke-width="2" d="M268 300h963.6722z" transform="translate(-174 -134)"/><path fill="#fafafa" fill-opacity=".9804" fill-rule="evenodd" d="M201 290h7v35.625h35.625v7H201Z" aria-label="⌞" font-family="Urbanist" font-size="128" letter-spacing="0" style="line-height:0;-inkscape-font-specification:Urbanist;text-orientation:sideways" transform="translate(-174 -134)" word-spacing="0"/><path fill="#fafafa" fill-opacity=".9804" fill-rule="evenodd" d="M268 284.56v-10.656l60.288-50.688H268v-7.776h69.12v10.656l-60.288 50.688h60.288v7.776zm79.488 0v-69.12h63.072v7.776h-55.296v22.848h44.448v7.872h-44.448v22.848h55.296v7.776zm131.712 0-22.56-26.88h10.176l22.656 26.784v.096zm-58.368 0v-69.024h57.6q3.168 0 5.76 1.632 2.688 1.536 4.224 4.128t1.536 5.76v20.256q0 3.168-1.536 5.76-1.536 2.592-4.224 4.224-2.592 1.536-5.76 1.536h-49.824v25.728zm11.52-33.6h46.08q1.536 0 2.592-1.056 1.152-1.056 1.152-2.592v-20.256q0-1.536-1.152-2.592-1.056-1.152-2.592-1.152h-46.08q-1.536 0-2.688 1.152-1.056 1.056-1.056 2.592v20.256q0 1.536 1.056 2.592 1.152 1.056 2.688 1.056zm79.008 33.6q-3.168 0-5.856-1.536-2.592-1.536-4.128-4.128-1.536-2.688-1.536-5.856v-46.08q0-3.168 1.536-5.76 1.536-2.688 4.128-4.224 2.688-1.536 5.856-1.536h46.08q3.168 0 5.76 1.536 2.688 1.536 4.224 4.224 1.536 2.592 1.536 5.76v46.08q0 3.168-1.536 5.856-1.536 2.592-4.224 4.128-2.592 1.536-5.76 1.536zm0-7.776h46.08q1.536 0 2.592-1.056 1.152-1.152 1.152-2.688v-46.08q0-1.536-1.152-2.592-1.056-1.152-2.592-1.152h-46.08q-1.536 0-2.688 1.152-1.056 1.056-1.056 2.592v46.08q0 1.536 1.056 2.688 1.152 1.056 2.688 1.056z" aria-label="ZERO" font-family="Orbitron" font-size="96" letter-spacing="0" style="line-height:0;-inkscape-font-specification:Orbitron;text-orientation:sideways" transform="translate(-174 -134)" word-spacing="0"/><path fill="#fafafa" fill-opacity=".9804" fill-rule="evenodd" d="M586.5161 284.56v-69.12h56.544q3.456 0 6.336 1.728 2.88 1.632 4.512 4.512 1.728 2.784 1.728 6.24v44.16q0 3.456-1.728 6.336-1.632 2.784-4.512 4.512-2.88 1.632-6.336 1.632zm12.672-10.368h43.68q.96 0 1.632-.672.672-.768.672-1.728v-43.584q0-.96-.672-1.632-.672-.768-1.632-.768h-43.68q-.96 0-1.632.768-.672.672-.672 1.632v43.584q0 .96.672 1.728.672.672 1.632.672zm67.392 10.368v-56.64q0-3.456 1.632-6.24 1.728-2.88 4.512-4.512 2.88-1.728 6.336-1.728h44.064q3.456 0 6.336 1.728 2.88 1.632 4.512 4.512 1.728 2.784 1.728 6.24v56.64h-10.464v-24.192h-48.288v24.192zM676.948 250h48.288v-21.792q0-.96-.672-1.632-.672-.768-1.632-.768h-43.584q-.96 0-1.728.768-.672.672-.672 1.632zm96.2958 34.56v-25.92l-31.872-43.2h12.192l24.864 31.392 24.768-31.392h12.288l-31.872 43.2v25.92z" aria-label="DAY" font-family="Orbitron" font-size="96" font-weight="500" letter-spacing="0" style="line-height:0;-inkscape-font-specification:&quot;Orbitron Medium&quot;;text-orientation:sideways" transform="translate(-174 -134)" word-spacing="0"/><path fill="#fafafa" fill-opacity=".9804" fill-rule="evenodd" d="M823 284.56V228.4q0-3.552 1.728-6.528 1.728-2.976 4.704-4.704 2.976-1.728 6.528-1.728h43.2q3.552 0 6.432 1.728 2.976 1.728 4.704 4.704 1.824 2.976 1.824 6.528v56.16h-11.616v-23.712H834.52v23.712zm11.52-35.232h45.984v-20.544q0-.768-.576-1.248-.48-.48-1.152-.48h-42.528q-.672 0-1.248.48-.48.48-.48 1.248zm68.544 35.232v-69.12h13.152l44.352 52.8v-52.8h11.616v69.12h-13.152l-44.448-52.896v52.896zm92.6401 0q-3.552 0-6.528-1.728-2.976-1.728-4.704-4.704-1.728-2.976-1.728-6.528v-56.16h11.52v55.776q0 .768.48 1.248.576.48 1.248.48h42.528q.672 0 1.152-.48.576-.48.576-1.248V215.44h11.616v56.16q0 3.552-1.824 6.528-1.728 2.976-4.704 4.704-2.88 1.728-6.432 1.728zm67.0079 0v-69.12h53.376q3.552 0 6.432 1.728 2.976 1.728 4.704 4.704 1.824 2.976 1.824 6.528v13.728q0 1.344-.288 2.592-.192 1.152-.672 2.208 1.728 2.4 2.688 4.8 1.056 2.304 1.056 4.704V271.6q0 3.552-1.824 6.528-1.728 2.976-4.704 4.704-2.88 1.728-6.432 1.728zm13.248-11.616h42.528q.672 0 1.152-.48.576-.48.576-1.248v-14.304q0-.768-.576-1.248-.48-.48-1.152-.48h-42.528q-.672 0-1.248.48-.48.48-.48 1.248v14.304q0 .768.48 1.248.576.48 1.248.48zm0-29.376h39.648q.768 0 1.248-.48.48-.576.48-1.248v-13.056q0-.768-.48-1.248t-1.248-.48h-39.648q-.672 0-1.248.48-.48.48-.48 1.248v13.056q0 .672.48 1.248.576.48 1.248.48zm65.5681 40.992v-69.12h11.424v69.12zm33.8881 0q-3.552 0-6.528-1.728-2.88-1.728-4.608-4.704-1.728-2.976-1.728-6.528v-4.608h11.52v4.224q0 .768.48 1.248t1.248.48h42.432q.768 0 1.248-.48.576-.48.576-1.248v-13.728q0-.672-.576-1.152-.48-.576-1.248-.576h-42.816q-3.552 0-6.528-1.728-2.88-1.728-4.608-4.608-1.728-2.976-1.728-6.528V228.4q0-3.552 1.728-6.528 1.728-2.976 4.608-4.704 2.976-1.728 6.528-1.728h43.296q3.552 0 6.432 1.728 2.976 1.728 4.704 4.704 1.824 2.976 1.824 6.528v4.608h-11.616v-4.224q0-.768-.576-1.248-.48-.48-1.248-.48h-42.432q-.768 0-1.248.48t-.48 1.248v13.728q0 .672.48 1.248.48.48 1.248.48h42.912q3.552 0 6.432 1.728 2.976 1.728 4.704 4.704 1.824 2.88 1.824 6.432V271.6q0 3.552-1.824 6.528-1.728 2.976-4.704 4.704-2.88 1.728-6.432 1.728z" aria-label="ANUBIS" font-family="Orbitron" font-size="96" font-weight="600" letter-spacing="0" style="line-height:0;-inkscape-font-specification:&quot;Orbitron Semi-Bold&quot;;text-orientation:sideways" transform="translate(-174 -134)" word-spacing="0"/><path fill="#fafafa" fill-opacity=".9804" fill-rule="evenodd" d="M1299.125 209.625h-7V174H1256.5v-7h42.625z" aria-label="⌝" font-family="Urbanist" font-size="128" letter-spacing="0" style="line-height:0;-inkscape-font-specification:Urbanist;text-orientation:sideways" transform="translate(-174 -134)" word-spacing="0"/><path fill="none" stroke="#f6f6f6" stroke-linecap="square" stroke-width="2.3" d="M282.64 123.69H294Z"/></svg>