<svg xmlns="http://www.w3.org/2000/svg" width="851" height="141" viewBox="0 0 851 141"><title>ZeroDayAnubis Long Text Logo</title><g style="display:inline"><path d="M319.67 289.158c-4.04 0-7.837.81-11.393 2.432a29.428 29.428 0 0 0-9.386 6.656c-2.703 2.845-4.822 6.144-6.358 9.899-1.536 3.726-2.304 7.721-2.304 11.988 0 4.266.768 8.278 2.304 12.033 1.536 3.726 3.655 7.011 6.358 9.855a30.006 30.006 0 0 0 9.386 6.7c3.556 1.593 7.354 2.388 11.393 2.388 4.067 0 7.878-.795 11.434-2.388a30.006 30.006 0 0 0 9.386-6.7c2.702-2.844 4.807-6.129 6.315-9.855 1.536-3.755 2.304-7.767 2.304-12.033 0-4.267-.768-8.262-2.304-11.988-1.508-3.755-3.613-7.054-6.315-9.899a29.428 29.428 0 0 0-9.386-6.656c-3.556-1.621-7.367-2.432-11.434-2.432zm482.92.084c-3.812 0-7.369.713-10.668 2.135-3.3 1.422-5.96 3.427-7.979 6.016-1.99 2.588-2.986 5.617-2.986 9.087 0 3.727.94 6.727 2.816 9.002 1.906 2.276 4.48 4.054 7.723 5.334 3.271 1.252 6.97 2.218 11.094 2.9a42.288 42.288 0 0 1 6.953 1.837c2.219.768 4.04 1.82 5.463 3.156 1.422 1.308 2.133 3.002 2.133 5.078 0 2.02-.684 3.784-2.05 5.291-1.364 1.508-3.155 2.688-5.374 3.541-2.19.825-4.565 1.236-7.125 1.236-2.247 0-4.425-.326-6.53-.98-2.104-.654-3.939-1.564-5.503-2.73-1.536-1.195-2.588-2.59-3.157-4.182l-6.699 2.517c.939 2.589 2.518 4.82 4.737 6.698 2.247 1.877 4.862 3.33 7.85 4.353a29.227 29.227 0 0 0 9.302 1.492c3.868 0 7.452-.71 10.752-2.132 3.3-1.423 5.944-3.428 7.935-6.016 2.02-2.588 3.03-5.618 3.03-9.088 0-3.413-1.01-6.287-3.03-8.619-1.99-2.332-4.636-4.196-7.935-5.59-3.3-1.422-6.884-2.459-10.752-3.113-2.73-.484-5.193-1.038-7.383-1.664-2.19-.626-3.925-1.565-5.205-2.817-1.252-1.28-1.877-3.114-1.877-5.504 0-1.99.684-3.74 2.049-5.248 1.365-1.507 3.142-2.687 5.332-3.54 2.19-.854 4.552-1.267 7.084-1.239 2.275 0 4.45.328 6.527.983 2.105.625 3.925 1.535 5.461 2.73 1.565 1.166 2.632 2.56 3.201 4.182l6.784-2.477c-.996-2.702-2.631-4.992-4.907-6.869-2.275-1.877-4.908-3.299-7.894-4.266a28.56 28.56 0 0 0-9.172-1.494zm-247.824.94-21.717 59.732h7.637l4.394-12.201h28.031l4.438 12.201h7.596l-21.72-59.732zm40.144 0v59.732h7.168v-46.762l29.865 46.762h7.723v-59.732h-7.168v46.761l-29.824-46.761zm56.996 0v34.816c0 4.807.94 9.187 2.817 13.14 1.905 3.926 4.608 7.055 8.107 9.387 3.527 2.333 7.678 3.498 12.457 3.498 3.584 0 6.813-.667 9.686-2.003a21.204 21.204 0 0 0 7.34-5.59c2.048-2.39 3.612-5.149 4.693-8.278 1.08-3.157 1.621-6.542 1.621-10.154v-34.816h-7.168v34.816c0 3.413-.625 6.555-1.877 9.428-1.223 2.844-3.03 5.136-5.42 6.87-2.39 1.708-5.348 2.56-8.875 2.56-3.47 0-6.414-.852-8.832-2.56-2.39-1.706-4.224-3.997-5.504-6.87-1.251-2.873-1.877-6.015-1.877-9.428v-34.816zm58.407 0v59.732h23.21c3.016 0 5.775-.71 8.278-2.133 2.503-1.422 4.493-3.385 5.972-5.888 1.508-2.532 2.262-5.447 2.262-8.747 0-1.564-.17-3.185-.512-4.863a18.396 18.396 0 0 0-1.707-4.822 13.568 13.568 0 0 0-3.029-4.01c-1.251-1.166-2.774-1.976-4.566-2.431 1.28-.399 2.418-1.167 3.414-2.305 1.024-1.166 1.82-2.546 2.388-4.139.598-1.621.897-3.3.897-5.035 0-3.214-.71-5.973-2.133-8.277-1.422-2.304-3.356-4.054-5.803-5.248-2.417-1.223-5.106-1.834-8.064-1.834zm50.554 0v59.732h7.168v-59.732zm-647.453.086v4.607h42.197l-42.197 50.518V350h48.299v-4.607h-42.197l42.197-50.518v-4.607zm66.832 0V350h36.01v-4.607h-31.402v-25.088h26.283v-4.61h-26.283v-20.82h31.402v-4.607zm56.08 0V350h4.608v-25.13h12.203L267.729 350h5.332l-14.676-25.43c2.674-.398 5.09-1.364 7.252-2.9 2.161-1.565 3.87-3.557 5.12-5.975 1.28-2.417 1.92-5.133 1.92-8.148 0-3.243-.753-6.172-2.261-8.79-1.48-2.616-3.499-4.68-6.059-6.187-2.56-1.536-5.418-2.302-8.576-2.302zm127.94 0V350h19.754c4.124 0 7.993-.769 11.605-2.305 3.612-1.564 6.785-3.71 9.516-6.441a30.47 30.47 0 0 0 6.4-9.516c1.564-3.612 2.346-7.48 2.346-11.605s-.782-7.979-2.346-11.563c-1.536-3.612-3.67-6.783-6.4-9.513a29.49 29.49 0 0 0-9.516-6.444c-3.612-1.564-7.481-2.345-11.605-2.345zm79.898 0L422.447 350h6.358l4.65-12.8h28.885l4.65 12.8h6.358l-21.76-59.732zm31.344 0 20.096 32.681V350h5.974v-27.05l20.139-32.682h-7.041l-16.086 26.154-16.041-26.154zm372.68.232v3.5H866v17.813h3.5V290.5Zm-528.518 3.266c3.442 0 6.656.696 9.643 2.09a25.05 25.05 0 0 1 7.892 5.675c2.276 2.418 4.054 5.219 5.334 8.405 1.309 3.185 1.963 6.584 1.963 10.197 0 3.555-.64 6.927-1.92 10.113-1.28 3.186-3.058 6.001-5.334 8.447a24.977 24.977 0 0 1-7.893 5.717c-2.986 1.394-6.215 2.092-9.685 2.092-3.413 0-6.628-.684-9.643-2.049a25.053 25.053 0 0 1-7.894-5.674c-2.276-2.446-4.067-5.263-5.375-8.449-1.28-3.186-1.92-6.585-1.92-10.197 0-3.556.64-6.926 1.92-10.112 1.28-3.185 3.042-5.988 5.289-8.406a25.316 25.316 0 0 1 7.894-5.76c3.016-1.393 6.259-2.09 9.729-2.09zm-78.736.724h14.548c2.304 0 4.41.57 6.315 1.707 1.906 1.11 3.429 2.645 4.566 4.608 1.138 1.934 1.705 4.126 1.705 6.572 0 2.475-.567 4.679-1.705 6.613a12.888 12.888 0 0 1-4.566 4.608c-1.906 1.109-4.01 1.664-6.315 1.664h-14.548zm129.304 1.75h13.782c3.3 0 6.386.626 9.26 1.877a23.85 23.85 0 0 1 7.593 5.121 23.392 23.392 0 0 1 5.164 7.637c1.252 2.873 1.877 5.958 1.877 9.258 0 3.3-.625 6.401-1.877 9.303a23.85 23.85 0 0 1-5.121 7.593 24.306 24.306 0 0 1-7.637 5.162c-2.873 1.224-5.96 1.836-9.26 1.836h-13.78zm347.242.256h12.756c2.617 0 4.85.754 6.7 2.262 1.877 1.479 2.816 3.725 2.816 6.74 0 2.788-.94 4.965-2.816 6.53-1.85 1.535-4.083 2.302-6.7 2.302H717.48zm-269.603 1.11 12.244 33.62h-24.49zm111.197 1.75 11.393 31.189h-22.742zm158.406 21.162h15.403c1.962 0 3.74.54 5.334 1.62 1.621 1.082 2.914 2.505 3.88 4.268a11.212 11.212 0 0 1 1.452 5.545c0 2.219-.484 4.211-1.451 5.975-.967 1.763-2.26 3.157-3.881 4.181-1.593.996-3.372 1.493-5.334 1.493H717.48ZM60 328.688V350h21.313v-3.5H63.5v-17.813z" style="font-weight:300;font-size:85.3333px;font-family:Urbanist;-inkscape-font-specification:&quot;Urbanist Light&quot;;letter-spacing:10px;display:inline;fill:#ff0037;fill-opacity:1" transform="translate(-39.5,-249.5)"/></g></svg>