<svg xmlns="http://www.w3.org/2000/svg" width="855" height="140" viewBox="0 0 855 140"><title>ZeroDayAnubis Long Text Logo</title><g style="display:inline"><path d="M874.5 311.8125H871V294h-17.8125v-3.5H874.5Zm-814 16.375H64V346h17.8125v3.5H60.5Zm485.2173-37.9193h8.6614l21.7173 59.7333h-7.5947l-4.4373-12.2027h-28.032l-4.3947 12.2027H524Zm-7.04 40.3626h22.7414l-11.392-31.1893zm47.184 19.3707v-59.7333h7.7653l29.824 46.7626v-46.7626h7.168v59.7333h-7.7227l-29.8666-46.7627v46.7627zm80.3787 1.1093q-7.168 0-12.4587-3.4987-5.248-3.4986-8.1067-9.3866-2.816-5.9307-2.816-13.1414v-34.816h7.168v34.816q0 5.12 1.8774 9.4294 1.92 4.3093 5.504 6.8693 3.6266 2.56 8.832 2.56 5.2906 0 8.8746-2.56 3.584-2.6027 5.4187-6.8693 1.8773-4.3094 1.8773-9.4294v-34.816h7.168v34.816q0 5.4187-1.6213 10.1547-1.6213 4.6933-4.6933 8.2773-3.0294 3.584-7.3387 5.5894-4.3093 2.0053-9.6853 2.0053zm35.0239-1.1093v-59.7333h20.608q4.4373 0 8.064 1.8346 3.6693 1.792 5.8026 5.248 2.1334 3.456 2.1334 8.2774 0 2.6026-.896 5.0346-.8534 2.3893-2.3894 4.1387-1.4933 1.7066-3.4133 2.304 2.688.6826 4.5653 2.432 1.8774 1.7066 3.0294 4.0106 1.1946 2.304 1.7066 4.8214.512 2.5173.512 4.864 0 4.9493-2.2613 8.7466-2.2187 3.7547-5.9733 5.888-3.7547 2.1334-8.2774 2.1334zm7.168-6.3147h15.4026q2.944 0 5.3334-1.4933 2.432-1.536 3.8826-4.1814 1.4507-2.6453 1.4507-5.9733 0-2.944-1.4507-5.5467-1.4506-2.6453-3.8826-4.2666-2.3894-1.6214-5.3334-1.6214H708.432zm0-29.2693h12.7573q3.9253 0 6.6987-2.304 2.816-2.3467 2.816-6.528 0-4.5227-2.816-6.7414-2.7734-2.2613-6.6987-2.2613H708.432zm43.3867 35.584v-59.7333h7.168v59.7333zm41.7226 1.1093q-4.8213 0-9.3013-1.4933-4.48-1.536-7.8507-4.352-3.328-2.816-4.736-6.6987l6.6987-2.5173q.8533 2.3893 3.1573 4.1813 2.3467 1.7493 5.504 2.7307 3.1573.9813 6.528.9813 3.84 0 7.1253-1.2373 3.328-1.28 5.376-3.5414 2.048-2.2613 2.048-5.2906 0-3.1147-2.1333-5.0774-2.1333-2.0053-5.4613-3.1573-3.328-1.1947-6.9547-1.8347-6.1867-1.024-11.0933-2.9013-4.864-1.92-7.7227-5.3333-2.816-3.4134-2.816-9.0027 0-5.2053 2.9867-9.088 3.0293-3.8826 7.9786-6.016 4.9494-2.1333 10.6667-2.1333 4.736 0 9.1733 1.4933 4.48 1.4507 7.8933 4.2667 3.4134 2.816 4.9067 6.8693l-6.784 2.4747q-.8533-2.432-3.2-4.1814-2.304-1.792-5.4613-2.7306-3.1147-.9814-6.528-.9814-3.7973-.0427-7.0827 1.2374-3.2853 1.28-5.3333 3.5413-2.048 2.2613-2.048 5.248 0 3.584 1.8773 5.504 1.92 1.8773 5.2054 2.816 3.2853.9387 7.3813 1.664 5.8027.9813 10.752 3.1147 4.9493 2.0906 7.936 5.5893 3.0293 3.4987 3.0293 8.6187 0 5.2053-3.0293 9.088-2.9867 3.8826-7.936 6.016-4.9493 2.1333-10.752 2.1333zM370 350v-59.7333h19.7547q6.1866 0 11.6053 2.3467 5.4186 2.304 9.5146 6.4426 4.096 4.096 6.4 9.5147 2.3467 5.376 2.3467 11.5626 0 6.1867-2.3467 11.6054-2.304 5.376-6.4 9.5146-4.096 4.096-9.5146 6.4427Q395.9413 350 389.7547 350Zm5.9733-5.9733h13.7814q4.9493 0 9.2586-1.8347 4.352-1.8773 7.6374-5.1627 3.2853-3.2853 5.12-7.5946 1.8773-4.352 1.8773-9.3014 0-4.9493-1.8774-9.2586-1.8346-4.352-5.1626-7.6374-3.2853-3.2853-7.5947-5.12-4.3093-1.8773-9.2586-1.8773h-13.7814zm73.9252-53.76h7.424L479.0825 350h-6.3573l-4.6507-12.8h-28.8853l-4.6507 12.8h-6.3573zm-8.5333 40.96h24.4906l-12.2453-33.6213Zm79.0453-40.96h7.04l-20.1387 32.6826V350h-5.9733v-27.0507l-20.096-32.6826h7.04l16.0427 26.1546zM120 349.8907v-4.608l42.1973-50.5173H120v-4.608h48.2987v4.608l-42.1974 50.5173h42.1974v4.608zm66.832 0v-59.7333h36.0106v4.608H191.44v20.8213h26.2826v4.608H191.44v25.088h31.4026v4.608zm56.0799 0v-59.7333h19.456q4.736 0 8.576 2.304 3.84 2.2613 6.0586 6.1866 2.2614 3.9253 2.2614 8.7893 0 4.5227-1.92 8.1494-1.8774 3.6266-5.12 5.9733-3.2427 2.304-7.2534 2.9013l14.6773 25.4294h-5.3333l-14.592-25.1307H247.52v25.1307zm4.608-29.7387h14.5493q3.456 0 6.3147-1.664 2.8586-1.7067 4.5653-4.608 1.7067-2.9013 1.7067-6.6133 0-3.6694-1.7067-6.5707-1.7067-2.944-4.5653-4.608-2.8587-1.7066-6.3147-1.7066h-14.5493zM326.2559 351q-6.0587 0-11.392-2.3893-5.3334-2.432-9.3867-6.6987-4.0533-4.2667-6.3573-9.856-2.304-5.632-2.304-12.032t2.304-11.9893q2.304-5.632 6.3573-9.8987 4.0533-4.2666 9.3867-6.656 5.3333-2.432 11.392-2.432 6.1013 0 11.4346 2.432 5.3333 2.3894 9.3867 6.656 4.0533 4.2667 6.3146 9.8987 2.304 5.5893 2.304 11.9893t-2.304 12.032q-2.2613 5.5893-6.3146 9.856-4.0534 4.2667-9.3867 6.6987Q332.3572 351 326.256 351zm0-4.608q5.2053 0 9.6853-2.0907 4.5226-2.0906 7.8933-5.7173 3.4133-3.6693 5.3333-8.448 1.92-4.7787 1.92-10.112 0-5.4187-1.9626-10.1973-1.92-4.7787-5.3334-8.4054-3.4133-3.6266-7.8933-5.6746-4.48-2.0907-9.6426-2.0907-5.2054 0-9.728 2.0907-4.48 2.0906-7.8934 5.76-3.3706 3.6266-5.2906 8.4053-1.92 4.7787-1.92 10.112 0 5.4187 1.92 10.1973 1.9626 4.7787 5.376 8.448 3.4133 3.6267 7.8933 5.6747 4.5227 2.048 9.6427 2.048z" style="font-weight:300;font-size:64px;font-family:Urbanist;-inkscape-font-specification:&quot;Urbanist Light&quot;;letter-spacing:0;fill:#29242a;stroke:#29242a" transform="translate(-39.5 -249.5)"/></g></svg>