<svg xmlns="http://www.w3.org/2000/svg" xmlns:xlink="http://www.w3.org/1999/xlink" width="4000" height="7112" viewBox="0 0 4000 7112"><title>Prone To Oblivion</title><defs><linearGradient id="b"><stop offset="0" stop-color="#f00018"/><stop offset=".5" stop-color="#4e1cff"/><stop offset="1" stop-color="#2600ac"/></linearGradient><linearGradient id="a"><stop offset="0" stop-color="#321414"/><stop offset="1" stop-color="#141432"/></linearGradient><linearGradient xlink:href="#a" id="c" x1="-1472" x2="5640" y1="1080" y2="1080" gradientTransform="translate(-160)" gradientUnits="userSpaceOnUse"/><linearGradient xlink:href="#b" id="d" x1="-1632" x2="5480" y1="1080" y2="1080" gradientUnits="userSpaceOnUse"/></defs><path fill="url(#c)" fill-rule="evenodd" d="M-1632-920h7112v4000h-7112Z" transform="rotate(90 724 2356)"/><path fill="url(#d)" fill-rule="evenodd" d="M-1632-920h7112v4000h-7112Z" transform="rotate(90 724 2356)"/><path fill="#02060a" fill-rule="evenodd" d="M0 0h3840v2160H0Z" opacity=".799" style="mix-blend-mode:hard-light" transform="rotate(90 724 2356)"/><g fill="#044af1" fill-rule="evenodd"><path d="m3584.6715 2321.4534-2440 3880 600-1000z"/><path d="m3264.6715 6801.4534-1760-4880-80-360z"/></g><g fill="#2632ff" fill-rule="evenodd" style="mix-blend-mode:difference"><path d="M3080 1632v2922.202L1649.343 5959.8071Z"/><path d="M3537.4922 3478.0723 920 3059.0612V1632Z"/><path d="m1160 3332 1741.3652-2044.1367L920 5472Z"/></g><g fill="#e43f58" fill-rule="evenodd" style="mix-blend-mode:hue"><path d="M3447.6035 3756.6397 2000 5472 599.7522 2465.0651Z"/><path d="M3447.6035 988.2585 920 1632l2160 2922.202Z"/></g><g fill="#fd0033" fill-rule="evenodd" style="mix-blend-mode:exclusion"><path d="m2177.0982 559.0283-771.7603 5298.501L1780 3188.1176Z"/><path d="m3555.354 4690.8568-806.7545-584.997L599.7522 2465.0651Z"/><path d="M3744.4272 1786.6926 2480 2797.692 427.8108 4386.2895Z"/></g><path fill="#d2230f" fill-rule="evenodd" d="M-2151.4338 2070.9859c530.6236 385.057 1206.3535 564.849 1858.1725 494.4056 651.819-70.4435 1273.5342-390.453 1709.6391-879.9863 35.9143-40.3143 70.9512-82.2317 95.035-130.5541 24.0838-48.3223 36.5941-104.112 25.2-156.8875-7.7571-35.9295-26.4417-69.2356-52.1005-95.5553-25.6587-26.3198-58.134-45.7075-93.0722-57.1278-69.8765-22.8405-147.7596-13.3299-215.0373 16.3032-67.2777 29.6331-124.8139 78.1317-174.1945 132.5923-49.3807 54.4606-91.323 115.1287-134.548 174.5931C627.989 1898.4846 337.54 2201.4962-24.5781 2388.6462c-340.1331 175.7877-736.0948 241.467-1114.7677 184.9096-378.6728-56.5573-738.163-235.0685-1012.0879-502.5699z" opacity=".787" style="mix-blend-mode:hard-light" transform="rotate(99.8874 712.405 2788.1586)"/><path fill="#e00010" fill-rule="evenodd" d="M486.1258 2652.1892a17407.2391 17407.2391 0 0 1 414.7723-977.5271c127.1255-275.8846 265.3316-553.9448 480.2794-768.5855 107.4739-107.3203 233.6705-197.3567 374.6592-253.841 140.9888-56.4842 297.1793-78.4653 446.7798-52.2356 73.4403 12.8764 145.8243 37.1961 220.357 35.1602 81.9249-2.2378 160.4011-36.6487 227.2347-84.0824 66.8337-47.4337 123.4609-107.588 179.1464-167.7197 55.6855-60.1316 111.3249-121.0442 176.7198-170.4426 65.3948-49.3985 141.9368-87.155 223.5841-94.2549 55.8897-4.86 112.862 4.9347 164.3521 27.2068 51.4901 22.272 97.4568 56.8978 133.8955 99.5535 72.8772 85.3114 105.646 201.6898 96.0047 313.476-9.6414 111.7863-59.9292 218.3618-134.0343 302.6088-74.1051 84.247-171.1389 146.7671-275.6845 187.5021-209.0912 81.4699-441.4961 76.4476-664.5094 51.5174C2326.6692 1075.5949 2104.2558 1031.888 1880 1040c-398.3058 14.4079-787.4498 200.9608-1048.1243 502.4635-260.6746 301.5026-389.0434 713.5177-345.7499 1109.7257Z" opacity=".805" style="mix-blend-mode:normal" transform="rotate(100.7842 583.3591 2617.9736)"/><path fill="#e00010" fill-rule="evenodd" d="M-1978.6587 490.5425c257.9186 166.7448 566.9003 253.2922 873.9076 244.786 68.4061-1.8953 137.0046-8.4378 203.2526-25.5897 66.248-17.152 130.2649-45.2114 184.2347-87.2857 44.8262-34.946 81.958-78.8483 126.0211-114.7516 22.0316-17.9516 45.9026-33.933 72.0906-44.9713 26.188-11.0382 54.8298-17.0102 83.1513-14.6553 29.9775 2.4926 58.9804 14.3927 82.6289 32.9833 23.6485 18.5906 41.9454 43.734 53.1985 71.6308 22.5061 55.7935 15.9226 121.0742-11.4615 174.6424-27.384 53.5683-74.0708 95.8252-127.1343 124.175-53.0634 28.3497-112.3527 43.5031-171.9946 51.3954-85.7793 11.351-172.8777 8.1353-259.0215 0-397.1311-37.5045-783.7311-181.2703-1108.8734-412.3593Z" opacity=".982" style="mix-blend-mode:normal" transform="matrix(-.666529 1.380005 -.852165 -.726631 972.3559 3196.5444)"/></svg>