<svg xmlns="http://www.w3.org/2000/svg" xmlns:xlink="http://www.w3.org/1999/xlink" width="2048" height="2048" viewBox="0 0 2048 2048"><title>Systems</title><defs><linearGradient id="p"><stop offset="0" style="stop-color:#283c8c;stop-opacity:1"/><stop offset="1" style="stop-color:#283c8c;stop-opacity:.24878049"/></linearGradient><linearGradient id="o"><stop offset="0" style="stop-color:#8cff4b;stop-opacity:.25"/><stop offset="1" style="stop-color:#8cff4b;stop-opacity:1"/></linearGradient><linearGradient id="n"><stop offset="0" style="stop-color:#96beff;stop-opacity:1"/><stop offset="1" style="stop-color:#d23c6e;stop-opacity:.80000001"/></linearGradient><linearGradient id="m"><stop offset="0" style="stop-color:#8d4ee1;stop-opacity:1"/><stop offset="1" style="stop-color:#6566ff;stop-opacity:.09756097"/></linearGradient><linearGradient id="l"><stop offset="0" style="stop-color:#534378;stop-opacity:.40000001"/><stop offset="1" style="stop-color:#534378;stop-opacity:1"/></linearGradient><linearGradient id="k"><stop offset="0" style="stop-color:#64567d;stop-opacity:1"/><stop offset="1" style="stop-color:#64567d;stop-opacity:.10243902"/></linearGradient><linearGradient id="j"><stop offset="0" style="stop-color:#471e64;stop-opacity:.9512195"/><stop offset="1" style="stop-color:#471e64;stop-opacity:.88780487"/></linearGradient><linearGradient id="i"><stop offset="0" style="stop-color:#9bff4b;stop-opacity:1"/><stop offset="1" style="stop-color:#dcff37;stop-opacity:.99000001"/></linearGradient><linearGradient id="h"><stop offset="0" style="stop-color:#00ec8f;stop-opacity:1"/><stop offset="1" style="stop-color:#0067b3;stop-opacity:.15365854"/></linearGradient><linearGradient id="g"><stop offset="0" style="stop-color:#125ff2;stop-opacity:.4585366"/><stop offset="1" style="stop-color:#31ce9b;stop-opacity:.9512195"/></linearGradient><linearGradient id="f"><stop offset="0" style="stop-color:#0083c1;stop-opacity:.60243905"/><stop offset="1" style="stop-color:#31ce7a;stop-opacity:1"/></linearGradient><linearGradient id="e"><stop offset="0" style="stop-color:#0074ca;stop-opacity:.5487805"/><stop offset="1" style="stop-color:#31ce7a;stop-opacity:1"/></linearGradient><linearGradient id="d"><stop offset="0" style="stop-color:#7f3682;stop-opacity:1"/><stop offset="1" style="stop-color:#50447c;stop-opacity:.30243903"/></linearGradient><linearGradient id="c"><stop offset="0" style="stop-color:#a00acd;stop-opacity:1"/><stop offset="1" style="stop-color:#7341fa;stop-opacity:.44634145"/></linearGradient><linearGradient id="b"><stop offset="0" style="stop-color:#821fe3;stop-opacity:1"/><stop offset="1" style="stop-color:#552dff;stop-opacity:.5"/></linearGradient><linearGradient id="a"><stop offset="0" style="stop-color:#6e1ea0;stop-opacity:.75121951"/><stop offset="1" style="stop-color:#3d1dc5;stop-opacity:1"/></linearGradient><linearGradient xlink:href="#a" id="q" x1="80" x2="1220" y1="570" y2="570" gradientUnits="userSpaceOnUse"/><linearGradient xlink:href="#b" id="r" x1="900" x2="2100" y1="1020" y2="1020" gradientUnits="userSpaceOnUse"/><linearGradient xlink:href="#c" id="s" x1="160" x2="1400" y1="1290" y2="1290" gradientUnits="userSpaceOnUse"/><linearGradient xlink:href="#d" id="t" x1="680" x2="1920" y1="1760" y2="1760" gradientUnits="userSpaceOnUse"/><linearGradient xlink:href="#e" id="u" x1="-51.555165" x2="1850.6311" y1="1064.3097" y2="1064.3097" gradientUnits="userSpaceOnUse"/><linearGradient xlink:href="#f" id="v" x1="306.11071" x2="2117.7069" y1="1142.8544" y2="1142.8544" gradientUnits="userSpaceOnUse"/><linearGradient xlink:href="#g" id="w" x1="-191.07438" x2="1522.9447" y1="769.00612" y2="769.00612" gradientUnits="userSpaceOnUse"/><linearGradient xlink:href="#h" id="x" x1="719.09542" x2="1768.0717" y1="867.17066" y2="867.17066" gradientUnits="userSpaceOnUse"/><linearGradient xlink:href="#i" id="C" x1="270" x2="1770" y1="1030" y2="1030" gradientUnits="userSpaceOnUse"/><linearGradient xlink:href="#j" id="y" x1="-618.94108" x2="2665.2421" y1="1549.0455" y2="1549.0455" gradientUnits="userSpaceOnUse"/><linearGradient xlink:href="#k" id="z" x1="-1138.5478" x2="2479.0327" y1="1745.3797" y2="1745.3797" gradientUnits="userSpaceOnUse"/><linearGradient xlink:href="#l" id="A" x1="-1138.5478" x2="2479.0327" y1="1745.3797" y2="1745.3797" gradientUnits="userSpaceOnUse"/><linearGradient xlink:href="#m" id="E" x1="0" x2="2048" y1="1024" y2="1024" gradientUnits="userSpaceOnUse"/><linearGradient xlink:href="#n" id="F" x1="-507.86633" x2="2692.1337" y1="887.94421" y2="887.94421" gradientUnits="userSpaceOnUse"/><linearGradient xlink:href="#o" id="G" x1="-34.391468" x2="1056.1107" y1="-790.43488" y2="0" gradientUnits="userSpaceOnUse"/><linearGradient xlink:href="#o" id="H" x1="-34.391468" x2="1056.1107" y1="-790.43488" y2="0" gradientTransform="translate(1441.2269 2048)" gradientUnits="userSpaceOnUse"/><linearGradient xlink:href="#p" id="B" x1="1542.3431" x2="2048.6569" y1="252.5" y2="252.5" gradientUnits="userSpaceOnUse"/><clipPath id="D" clipPathUnits="userSpaceOnUse"><path d="M-5-5h2058v2058H-5Zm1775 1035a750 750 0 0 0-750-750 750 750 0 0 0-750 750 750 750 0 0 0 750 750 750 750 0 0 0 750-750z" class="powerclip" style="fill:#ff0;fill-opacity:1;fill-rule:evenodd;stroke-width:4;stroke-linecap:round"/></clipPath></defs><rect width="2048" height="2048" style="fill:#2c064d;fill-rule:evenodd;stroke-width:30;stroke-linecap:round;stroke:none;fill-opacity:1"/><g style="display:inline"><path d="M80-20h1140v1180H80Z" style="mix-blend-mode:normal;fill:url(#q);fill-rule:evenodd;stroke-width:4;stroke-linecap:round"/><path d="M900 440h1200v1160H900Z" style="display:inline;opacity:.939;mix-blend-mode:color-dodge;fill:url(#r);fill-rule:evenodd;stroke-width:4;stroke-linecap:round"/><path d="M160 700h1240v1180H160Z" style="display:inline;opacity:.738;mix-blend-mode:hard-light;fill:url(#s);fill-rule:evenodd;stroke-width:4;stroke-linecap:round"/><path d="M680 1320h1240v880H680Z" style="display:inline;opacity:.695;mix-blend-mode:color-dodge;fill:url(#t);fill-opacity:1;fill-rule:evenodd;stroke-width:4;stroke-linecap:round"/></g><g style="display:inline;opacity:.951;mix-blend-mode:luminosity"><path d="M834.6519 934.6441C-156.7878 43.1966-117.2261 32.297 21.2364 119.9201c138.4625 87.6231 473.9887 246.714 658.1063 589.571 184.1175 342.857 216.8188 869.4661 419.6965 1123.1831 202.8777 253.7171 575.9155 234.5216 706.96 169.4455 131.0444-65.0761 20.0924-176.0281-971.3473-1067.4756z" style="fill:url(#u);fill-rule:evenodd;stroke:none;stroke-width:4;stroke-linecap:round"/><path d="M1312.977 874.4348c833.8106-368.2533 893.7677-327.1203 734.7161-140.9916-159.0516 186.1286-943.629 238.3422-1346.4642 183.5512-402.8352-54.791-423.912-216.5843-275.8298-205.0138 148.0822 11.5705 465.3053 196.5002 422.598 448.0701-42.7075 251.57-445.3483 569.7565-526.8787 527.5209-81.5304-42.2356 158.048-444.8835 991.8586-813.1368z" style="fill:url(#v);fill-rule:evenodd;stroke:none;stroke-width:4;stroke-linecap:round"/><path d="M484.2105 897.4184c-632.254 930.207-780.2947 709.8369-609.6246 539.1668 170.67-170.6701 660.0372-291.6264 863.826-489.454C942.2005 749.3034 860.406 474.6234 988.0251 291.3533c127.6191-183.27 464.6367-275.1081 524.8352-321.1404 60.1984-46.0322-156.4339-46.253-454.7172 307.6801-298.2833 353.9331 58.3213-310.6817-573.9327 619.5253Z" style="fill:url(#w);fill-rule:evenodd;stroke:none;stroke-width:4;stroke-linecap:round"/><path d="M1303.8098 727.2468c-17.5685-771.5469-191.6462-767.7178-37.7338-590.812 153.9124 176.906-426.0644 550.2244-529.3998 666.8934-103.3354 116.669 269.983-23.3254 567.989 141.3445 298.0059 164.67 520.6681 633.994 450.3424 731.3563-70.3258 97.3623-433.6294-177.2354-451.1978-948.7822z" style="fill:url(#x);fill-rule:evenodd;stroke:none;stroke-width:4;stroke-linecap:round"/></g><g style="display:inline;opacity:1"><path d="M-20 660c144.7907-152.446 314.3524-281.313 500-380C694.8534 165.7877 934.0086 91.7468 1177.3134 88.7133c243.3048-3.0336 490.6924 68.2046 681.5183 219.1744 190.8259 150.9698 319.6516 384.7051 323.0687 628.0048 1.7086 121.6499-27.4546 243.9821-86.5066 350.3516C2036.3417 1392.6135 1947.2461 1482.5554 1840 1540c-140.5465 75.2814-306.2634 92.7293-464.9981 77.7659-158.7346-14.9633-312.7743-60.4652-465.829-105.1291-153.0547-44.664-307.5748-88.9597-466.5274-101.3968C283.6929 1398.8028 118.0814 1420.2872-20 1500c-69.2043 39.9509-130.4345 94.123-176.6522 159.3091C-242.87 1724.4952-273.86 1800.7323-283.9564 1880c-18.7773 147.4198 37.7945 300.8174 142.1246 406.6494 104.33 105.832 253.0934 164.1468 401.6947 165.8231 148.6014 1.6762 295.8734-51.5066 414.5115-141.0062C793.0124 2221.9666 883.4199 2097.4186 940 1960c61.5252-149.4292 83.8068-314.8166 64.0208-475.2004-19.7861-160.3837-81.5947-315.3972-177.5918-445.3933s-225.9634-234.6778-373.4263-300.777C305.5397 672.53 140.9171 645.164-20 660Z" style="mix-blend-mode:hue;fill:#593a7d;fill-opacity:1;fill-rule:evenodd;stroke:none;stroke-width:4;stroke-linecap:round" transform="rotate(-11.227 294.9195 1175.4087)"/><path d="M80 895.2366c-91.3756 66.3027-208.9123 95.4617-320.6824 79.5563-111.7702-15.9053-216.5068-76.6949-285.7592-165.8557-69.2525-89.1608-102.2357-205.6821-89.9902-317.9122C-604.1863 378.7949-546.8508 272.1283-460 200c68.1594-56.6053 153.2386-91.7994 241.0737-103.4125 87.835-11.6132 178.2143-.0106 261.5555 30.0579 166.6823 60.137 301.0834 192.0721 389.2558 345.7767 88.1723 153.7045 133.6468 328.4328 160.5955 503.5706 26.9487 175.1377 36.287 352.488 57.5195 528.4103 37.8434 313.552 115.7 627.5494 278.2984 898.3052 162.5984 270.7559 417.7722 495.5555 723.7873 573.6689 153.0076 39.0567 316.3295 40.5423 468.3154-2.3185 151.9858-42.8607 291.9643-130.8011 391.4189-253.4613 99.4546-122.6602 156.9158-280.0911 153.2574-437.9624-3.6585-157.8714-69.8915-314.612-185.0774-422.6349-129.8019-121.73-310.043-175.4672-486.8707-195.4348C1816.3017 1644.5975 1637.3642 1654.4451 1460 1640 923.8531 1596.3345 410.7786 1319.4366 80 895.2366Z" style="display:inline;opacity:.89;mix-blend-mode:multiply;fill:url(#y);fill-rule:evenodd;stroke:none;stroke-width:4;stroke-linecap:round" transform="rotate(-.7026 -726.9928 24267.402)"/><path d="M1380 960c-152.2752-57.9807-321.6008-70.3192-480.6727-35.026-159.072 35.2933-307.291 118.0854-420.7564 235.026-109.6877 113.0471-186.4706 257.2098-221.5254 410.7747-35.0547 153.565-28.5664 316.1117 16.3786 467.0785 89.89 301.9336 336.3464 549.1059 633.2449 654.4405 296.8985 105.3347 637.3961 71.3128 914.272-78.9663 276.876-150.2792 488.5952-412.308 588.6964-711.0116 100.1011-298.7037 90.04-631.2591-18.1159-927.1415-108.1559-295.8824-312.3835-554.3158-569.9052-735.7728-257.5218-181.457-566.8896-286.385-881.1898-307.8216C626.1264-89.857 307.558-28.6646 20 100c-292.1417 130.7156-553.2503 331.3338-751.5655 582.5398-198.3152 251.206-333.1342 552.7707-384.0026 868.7545-50.8683 315.9838-17.2166 645.7047 100.2809 943.4087 117.4975 297.704 318.9619 562.3363 577.1012 751.5383 258.1394 189.202 572.361 301.8599 892.1139 315.6957 319.7529 13.8359 643.6981-71.8067 912.653-245.2904 268.9549-173.4838 481.1993-434.4727 592.4293-734.5747 111.23-300.1021 120.117-637.7577 20.9898-942.0719-48.4083-148.6103-122.2982-289.7231-223.5544-408.7842C1655.1893 1112.1546 1526.0658 1015.6164 1380 960Z" style="display:inline;opacity:.982;mix-blend-mode:color;fill:url(#z);fill-opacity:1;fill-rule:evenodd;stroke:none;stroke-width:4;stroke-linecap:round" transform="rotate(-85.7252 694.6054 1181.6214) scale(.76)"/><path d="M1380 960c-152.2752-57.9807-321.6008-70.3192-480.6727-35.026-159.072 35.2933-307.291 118.0854-420.7564 235.026-109.6877 113.0471-186.4706 257.2098-221.5254 410.7747-35.0547 153.565-28.5664 316.1117 16.3786 467.0785 89.89 301.9336 336.3464 549.1059 633.2449 654.4405 296.8985 105.3347 637.3961 71.3128 914.272-78.9663 276.876-150.2792 488.5952-412.308 588.6964-711.0116 100.1011-298.7037 90.04-631.2591-18.1159-927.1415-108.1559-295.8824-312.3835-554.3158-569.9052-735.7728-257.5218-181.457-566.8896-286.385-881.1898-307.8216C626.1264-89.857 307.558-28.6646 20 100c-292.1417 130.7156-553.2503 331.3338-751.5655 582.5398-198.3152 251.206-333.1342 552.7707-384.0026 868.7545-50.8683 315.9838-17.2166 645.7047 100.2809 943.4087 117.4975 297.704 318.9619 562.3363 577.1012 751.5383 258.1394 189.202 572.361 301.8599 892.1139 315.6957 319.7529 13.8359 643.6981-71.8067 912.653-245.2904 268.9549-173.4838 481.1993-434.4727 592.4293-734.5747 111.23-300.1021 120.117-637.7577 20.9898-942.0719-48.4083-148.6103-122.2982-289.7231-223.5544-408.7842C1655.1893 1112.1546 1526.0658 1015.6164 1380 960Z" style="display:inline;opacity:.591;mix-blend-mode:color;fill:url(#A);fill-opacity:1;fill-rule:evenodd;stroke:none;stroke-width:4;stroke-linecap:round" transform="rotate(94.2748 1169.4606 1253.2963) scale(.76)"/></g><path d="M2323.6265-307.6092c-53.1838 93.3306-53.7866 122.1984-155.8616 178.676-58.9058 32.5924-124.1478 52.1166-186.3557 77.8526-61.5355 25.4577-129.0883 39.3565-184.8723 75.7276-407.6688 265.7988 64.6666 62.5998-310.9411 206.873-27.729 15.1012-51.6622 43.534-83.187 45.3036-32.8578 1.8444-59.2652-33.9466-92.1397-35.4622-115.2391-5.3128-93.6692 62.4323-93.3911 151.9979.01 3.2572 6.7336-1.2477 9.7715-.0727 8.0888 3.1285 15.1586 8.431 22.7379 12.6464l25.8988 42.9772c31.9005 29.8686 70.1375 54.162 95.7016 89.6057 42.8747 59.444 43.2879 114.496 27.8987 181.5793-5.2735 22.9878-16.4203 44.3005-26.746 65.505-5.7267 11.76-14.1499 22.0037-21.2248 33.0055-9.0413 51.9614-14.1574 99.8852-40.6959 148.1298-16.648 30.2644-39.9742 56.5846-63.4208 81.9488-47.1575 51.0144-118.0272 102.6042-168.8968 149.2092-38.7239 35.4774-75.5023 73.0214-113.2535 109.5321l-105.9588 99.8212c-28.2647 25.3116-57.0386 50.0658-84.7941 75.9346-23.5124 21.9141-47.992 43.0326-68.9738 67.3805-30.1907 35.0343-54.3717 74.9264-84.1513 110.3108-48.1434 57.2046-115.423 122.0526-169.1477 175.4509-28.684 9.5987-56.9847 20.43-86.0521 28.7962-51.7738 14.9014-95.0208 13.5704-139.0133 49.4199-25.8158 21.0372-38.4962 56.4189-66.3193 74.719-23.3018 15.3262-54.293 13.1043-80.7274 21.9978-23.238 7.8182-45.333 18.6931-67.9994 28.0397-101.4064 93.6138-5.686 2.9308-112.7732 112.3004-24.5195 25.0421-45.529 54.5888-74.7473 73.9436-34.239 22.6808-74.9047 33.7125-112.5515 50.1274-206.8725 90.2017-128.0442 58.282-333.5279 131.0631-38.4407 16.2292-74.1327 42.0166-115.3222 48.6877-37.35 6.0492-117.4393-26.9267-156.017-34.5495-20.2884-4.0089-42.062-12.8558-61.7107-6.4043-48.2229 49.2052-20.6457 35.224-79.014 48.5857-8.4106-11.0715-32.9373-21.641-25.2319-33.2145 67.5519-101.4633 183.1156 28.1894 230.8253 56.6033-114.4906-224.4582-431.9224-62.544-317.4317 161.9142 54.6305 31.6326 102.4916 80.2296 163.8916 94.898 68.6083 16.3905 79.3987-30.3769 94.756-67.6524 14.5884-77.2878-11.1119 5.0417 42.8756-45.3968 9.4786-8.8555 9.757-24.0388 14.708-36.0284 9.731-23.5664 14.629-49.8134 29.3379-70.6393 55.583-78.6992 91.189-71.5558 184.043-102.6124 53.353-21.5458 106.6815-43.152 160.0589-64.6375 57.623-23.1945 116.0168-44.5442 172.9421-69.4021 37.7921-16.5029 72.3137-40.3586 111.0164-54.5956 34.2779-12.6093 70.9986-17.1819 106.5748-25.4466 31.4195-7.2991 64.922-8.1654 94.4077-21.244 21.411-9.4969 36.1531-29.79 54.2296-44.685 15.3501-16.9701 31.2785-33.4344 46.0502-50.9102 17.8076-21.0674 27.7704-50.8418 51.642-64.6652 27.5642-15.9617 63.1914-9.8193 93.5625-19.419 24.347-7.6956 48.863-17.148 69.5373-32.1337 34.7542-25.1914 88.5496-99.8645 113.312-131.8291 111.1701-103.6725 58.9737-52.1812 173.9454-172.3777 32.0623-33.5192 66.7262-64.7504 96.04-100.6979 20.2513-24.8341 32.2812-55.5974 52.0065-80.8513 65.5702-83.9479 103.6355-105.9539 189.5728-176.1554 216.947-205.3043 19.7327-22.7934 201.6345-181.8377 59.1938-51.7556 101.3727-96.4499 165.3274-142.2019 28.9574-20.7156 62.25-35.0565 90.5246-56.6948 26.9005-20.5868 49.4918-46.2642 74.2377-69.3963 4.7632-93.1957 16.5253-76.7626-25.8237-157.6576-13.9119-26.5746-39.1939-47.7045-47.2093-76.6096-8.714-31.4242-11.648-66.9453-1.161-97.823 17.3866-51.193 75.6983-80.6925 91.6022-133.8514 5.4016-16.4765 12.9665-32.3952 16.2047-49.4294 2.498-13.1401 4.651-52.9325.8186-40.118-9.0449 30.2442 4.4462 69.78-16.6992 93.219-14.8976 16.5135-50.9033 14.8839-66.717-.7546-22.6747-22.4236-35.124-61.0055-26.8877-91.8134 8.0914-30.2657 45.738-42.825 68.607-64.2375 43.3674-31.2111 87.7169-61.1011 130.1022-93.6334 57.055-43.7918 104.1508-102.3682 168.1136-135.2581 60.0121-30.8585 132.2863-28.7414 195.6997-51.8161 63.1617-22.983 117.4644-68.7372 182.4774-85.7939 105.6838-27.727 138.3744 13.1208 218.4082 62.1468 173.8916-45.363 109.7386-291.283-64.1531-245.92z" style="fill:#8cff4b;fill-opacity:1;fill-rule:evenodd;stroke-width:4;stroke-linecap:round"/><path d="M-836.9527 1795.3533c79.2572 13.4892 5.8749 5.8008 115.8197-5.5785 25.4669-2.6359 52.1212 4.1262 76.756-2.8481 42.2791-11.9696 77.9762-42.6858 120.678-53.0472 34.989-8.4898 71.9901-1.6243 107.9851-2.4364l126.595-34.5832c113.5837-56.484 78.137-44.4883 188.4584-80.0284 24.716-7.9622 54.1144-6.5099 74.5845-22.4865 30.8662-24.0903 40.7247-69.5842 72.5702-92.3643 25.4009-18.17 176.859-61.7712 214.2777-73.0877 21.0569 11.999 120.9674 75.4634 155.0874 72.0747 24.5767-2.4409 43.5056-23.8797 62.861-39.2205 2.1709-1.7207-4.166-3.9808-5.036-6.6108-2.81-8.496-8.3032-17.6109-5.8189-26.2078 3.1394-10.8638 14.0499-17.7232 21.0748-26.5847 24.3273-11.5168 54.4987-27.0744 80.526-33.7497 16.7122-4.2863 36.3295.8461 51.1357-8.0109 35.4635-21.2141 57.4776-62.4728 95.1362-79.4884 33.6114-15.1869 73.8878-5.0224 109.8667-13.1396 46.2426-10.4328 90.5225-28.1878 135.7838-42.2816 162.7823-70.2345 113.5481-41.8332 283.4294-151.2743 53.0053-34.147 108.7348-64.9579 156.9174-105.6275 61.5149-51.923 110.5347-117.342 170.6584-170.8697 415.7571-370.146-73.2582 119.693 340.3838-308.1645 118.3516-32.376 126.2138-162.4134 202.0429-231.1225 4.6995-4.2582 129.1523-55.2518 144.222-63.3918 42.3995-22.9025 53.9576-37.4362 88.1986-69.184 13.8962-32.896 56.0746-30.6312 76.608-54.2394 10.77-12.3828 11.8482-30.7713 20.1964-44.9006 8.9376-15.127 21.8238-27.609 31.3629-42.364 59.5661-92.1367-1.8987-18.272 74.6-101.4232 37.7447-21.361 59.2967-60.1666 91.7189-87.13 16.1678-13.4457 35.8122-22.145 52.7053-34.6674 15.9904-11.8531 30.0114-26.1926 45.7814-38.3375 15.5823-12.0003 36.4902-18.232 48.196-34.0368 17.9655-24.2566 25.2797-54.8225 37.9195-82.2337l67.8323-26.7762c71.7824-60.6972-14.0564-162.2128-85.8388-101.5156l-34.2701 65.4175c-31.4253 4.7434-65.2414 1.3056-94.2759 14.2302-18.2123 8.1071-25.4241 30.7563-39.1856 45.1797-14.6442 15.3485-31.4258 28.5713-45.9413 44.0415-15.0119 15.9992-26.2971 35.47-42.5208 50.239-16.5336 15.0512-36.6257 25.6547-54.9386 38.482l-48.0785 43.8127c-16.5158 14.1555-31.9744 29.647-49.5474 42.4666-17.4315 12.7162-37.5595 21.3962-55.1414 33.9036-15.9545 11.3497-29.837 25.3756-45.2184 37.4906-14.1216 11.1227-29.6647 20.4388-43.2603 32.1987-34.1242 29.5164-32.1682 33.847-54.5839 72.9328-26.65 68.778-9.4565 36.0938-51.9536 97.8557-10.2779 24.1283-29.8582 140.417-39.955 157.3263-20.6567 34.5945-55.0098 58.8883-82.5148 88.3324l-97.7402 163.8046c-63.9136 49.0581-126.1628 100.3643-191.7407 147.1743-59.9403 42.786-129.0204 73.0815-184.5657 121.4365-60.8726 52.9925-104.2919 123.4978-161.8169 180.1066-93.306 91.8198-187.2667 157.5099-303.9759 216.1733-40.635 20.425-84.7836 32.9436-127.1754 49.4153-39.7734 11.7158-190.6246 65.3649-244.8632 50.4867-41.071-11.2662-67.3515-54.0949-106.8199-70.0951-20.6833-8.3848-44.6507-1.1749-66.9538-.3513-74.5176 2.7517-61.3282 3.5336-132.4757 23.3048-82.589-.4087-64.1223-9.8958-135.5079 24.5003-15.3204 7.3819-45.1251 8.6408-44.1207 25.6172.9057 15.309 34.5498-6.6413 45.8564 3.7194 39.1389 35.8646-9.3488 114.8053-18.3174 139.1351-31.4953 11.7127-63.0217 23.3424-94.486 35.1383-39.4662 14.7957-76.8333 37.1128-118.3048 44.6362-46.652 8.4633-98.3493-15.3673-142.216 2.6257-24.4602 10.0329-21.7431 48.4379-36.2162 70.5624-57.907 88.5203-56.5718 70.8487-155.5984 123.5458-42.214 10.4094-179.864 55.1446-232.4368 30.6132-34.906-16.2876-50.674-58.0796-77.586-85.6381-11.9333-12.2201-28.2285-20.0662-38.7655-33.509-20.391-26.014-18.992-43.0893-22.5813-72.5963-186.1268-124.0846-361.6089 139.1385-175.482 263.2231z" style="fill:#8cff4b;fill-opacity:1;fill-rule:evenodd;stroke-width:4;stroke-linecap:round"/><path d="M1134.5558-343.2836c12.9803 17.4273 25.5631 35.1579 38.941 52.2818 42.3301 54.1831 31.7388 44.8167 94.5971 82.0376 38.5643 22.8356 88.9483 31.3975 116.8946 66.4358 15.9627 20.0135 64.2437 236.0257 69.7319 259.2361 11.562 36.0363 27.5003 70.9516 34.6859 108.1089 10.8402 56.0554 5.1659 115.6171-12.9681 169.4196-6.9875 20.7314-17.3977 40.3726-29.3011 58.7282-3.9599 6.1063-10.519 15.7017-17.3658 13.234-8.0089-2.8865-7.0034-15.5194-10.5052-23.2791 40.8188 19.1433 9.9342.488 52.9549 51.5906 14.4539 17.1691 31.5154 32.0748 45.5022 49.6265 13.4008 16.8162 22.3771 36.966 36.4552 53.2194 16.206 18.71 43.034 28.8434 53.892 51.0875 8.5163 17.4466-.3503 38.8268-.5255 58.2403-6.7057 7.631-43.7589 43.557-48.4402 63.611-9.5032 40.7102 2.4072 76.375 27.4232 111.6307 42.6922 60.1672 97.6406 89.8222 156.8155 130.1315.6001 1.0953 77.107 104.1792 27.3235 125.694-16.6154 7.1806-43.447-48.2785-45.0941-30.2529-2.6999 29.5477 48.289 50.5401 40.6213 79.2031-10.3513 38.695-164.9769 157.1113-189.6479 177.2497-96.9878 23.3637-103.2422 145.4694-177.0057 191.42-104.2898 64.9668-92.1439-51.3583-173.7119 74.9211-10.4103 16.1169 13.3167 74.1875 3.9871 57.4218-13.6623-24.5519-11.9152-54.9168-17.8728-82.3752 15.3664-2.8216 32.4582-16.0812 46.0993-8.4649 9.1999 5.1366-1.2989 21.4683-5.5127 31.1258-21.1785 48.5375-50.15 86.2884-90.382 121.1073-20.058 17.3593-41.9998 32.932-65.5843 45.0746-21.3677 11.0013-45.386 15.8286-68.079 23.7429-20.464.1793-40.9487 1.4754-61.392.5378-48.526-2.2256-52.2218-16.0335-97.1698 9.5597-16.2232 9.2374-30.0955 22.3621-43.1345 35.7227-30.3612 31.1101-64.5915 84.8351-88.0327 118.9503-20.807 31.3842-34.4588 68.9334-62.4212 94.1527-30.8699 27.8416-71.5455 42.5768-109.0535 60.5006-26.2655 12.5514-198.6074 81.945-233.1426 89.3162-75.8682 16.1933-105.788 1.9236-177.4778-13.9607-18.194 3.0765-137.5912 21.5238-154.3097 31.3363-4.8247 2.8317-90.418 100.7562-96.2634 109.3926-15.9314 23.5385-19.7573 56.1151-41.3924 74.5486-18.8633 16.0719-47.4688 14.2565-71.2032 21.3848-43.1579 18.9467-50.5071 40.051-74.8595-13.1591-1.6297-3.561 6.7178-4.183 9.4286-7.0093 9.1392-9.5286 17.3167-19.9352 25.975-29.9027-189.353-86.7114-311.9813 181.0743-122.6283 267.7856 24.071-3.0029 47.9709-8.1406 72.2128-9.0086 29.7452-1.0651 61.7238 14.5888 89.2344 3.2276 44.8156-18.5078 48.6347-92.0278 91.7603-112.8664 58.3193-108.3926-1.4162-29.7822 115.4933-95.0157.211-.1177 81.3284-67.6463 86.502-73.2659 76.3081-82.8842-26.67-.9558 84.4565-80.0473 92.806-42.2739 62.5748-30.9587 165.1978-66.7326 78.3265-27.3042 160.8168-51.2617 235.614-87.7817 37.453-18.2865 68.7134-48.9989 107.9144-63.1548 36.3754-13.1356 76.4896-11.4974 114.7343-17.2462 27.8834-4.947 55.6475-10.621 83.65-14.8412 18.4156-2.7754 38.1496.5482 55.5326-6.1348 11.2403-4.3215 16.3682-17.8297 25.9099-25.1765 10.226-7.8737 22.3982-12.8857 33.0286-20.2041 55.0957-37.93 40.7315-28.9473 87.0169-84.969 19.8601-16.5867 37.9921-35.4951 59.5803-49.7601 40.0515-26.4653 100.935-51.1616 147.8004-61.1666 28.108-6.0006 145.2476-11.4555 168.6351-23.9092 27.8987-14.856 44.1968-45.1971 66.2952-67.7957 5.3661-37.7977 16.6373-75.2202 16.0981-113.3931-.1737-12.3034-6.5761 26.5001-17.2386 32.6414-21.141 12.1766-50.0683 30.8119-70.9101 18.1298-28.1633-17.1372-49.1331-55.7032-44.4726-88.3396 4.2908-30.0481 172.0554-188.4021 175.172-191.4918 54.4075-44.9071 146.5748-126.6734 211.5558-157.7399 54.0038-25.8184 131.3963-13.5837 169.2795-59.9286 60.7664-74.3394-76.194-123.9086-102.7064-140.5513-20.7028-12.996-39.6434-28.6078-59.4652-42.9117-9.2935-22.655-25.9353-43.5554-27.8805-67.9652-1.5467-19.4091 12.5534-36.8749 18.0371-55.5573 8.1461-27.7528 8.1177-34.4813 3.7408-65.8237-2.4906-17.8347-3.6771-36.3003-10.367-53.0193-7.8842-19.7036-21.8037-36.4164-32.7056-54.6247-13.2624-20.7416-33.2507-38.4892-39.7871-62.2248-7.3413-26.6584 1.0912-55.3311-.1925-82.9521-.8657-18.6259-7.395-36.9776-6.2464-55.5882.8876-14.3811 8.5979-27.5159 12.2358-41.4576 16.2057-62.1043-11.1884 21.8942 17.8939-61.6222-3.1371-19.3466 3.0441-42.9075-9.4115-58.04-13.9882-16.9943-84.2802-.6806-95.9415-1.679-24.4113-2.0902-51.1452-2.7848-71.7195-16.0882-66.2335-42.8267-71.9379-107.8871-94.1809-176.4138-8.9077-43.982-14.8675-88.6656-26.7232-131.9462-11.9133-43.4908-44.2184-82.6848-44.4221-127.7773-.2342-51.8668 33.9242-98.457 43.1698-149.4935 4.9423-27.2817-21.2856-62.8054 8.5103-86.3091 4.8426-3.82 11.8776 3.3308 17.8165 4.9961-23.0913-230.9121-349.6503-198.2562-326.5591 32.656z" style="fill:#8cff4b;fill-opacity:1;fill-rule:evenodd;stroke-width:4;stroke-linecap:round"/><path d="M2184.6544-468.2226c-12.9897 25.0416-23.04 51.8423-38.9691 75.1248-30.5576 44.6641-91.1313 101.9526-136.1795 129.7861-27.2402 16.8308-57.4729 28.565-87.5851 39.4534-27.8857 10.0833-61.7304 6.0323-85.8624 23.264-30.4677 21.756-46.5784 58.6248-69.8677 87.9371-256.2031 155.7295 94.6499-70.9916-140.7545 128.3394-37.0302 47.4307-109.8549 29.7714-152.2999 65.0725-20.7386 17.2481-34.2684 43.3616-41.8869 69.2373-3.7743 12.8194 6.718 25.869 10.077 38.8034 46.393 42.8302 57.6097 31.4573 17.0642 103.888-12.1965 21.7877-25.09 48.146-48.3566 57.2083-2.8242 1.1-131.2184-2.5607-72.6338-66.6339 15.0741-16.4863 43.9687-7.9283 65.953-11.8925 3.4953 1.3035 13.5984 5.9668 10.4859 3.9106-16.64-10.9926-32.4518-24.2254-51.2629-30.8484-37.2161-13.1031-69.8479-8.9788-107.2398-10.5558-14.6396-.6174-30.2056 2.2989-43.8528-3.0351-13.0502-5.1007-21.605-17.8474-32.4075-26.771-3.9203-3.047-55.4028-43.4169-59.9157-45.486-14.2422-6.53-29.798-10.6347-45.3843-12.231-17.5184-1.7943-35.1763 2.3667-52.7854 2.1766-16.4355-.1775-33.1863-6.98-49.2005-3.2779-24.862 5.7475-46.7083 20.5657-70.0625 30.8485-18.8204 14.1522-41.3584 24.39-56.4612 42.4566-19.0775 22.8215-29.3007 51.774-43.951 77.661-18.7134 24.472-35.6994 50.3673-56.1401 73.4161-21.2864 24.0024-42.7107 48.604-68.724 67.3798-46.8406 33.8084-108.988 50.3459-162.62 68.3226l-72.657 18.5343c-22.1635 3.3593-44.609 5.209-66.4907 10.0778-19.936 4.4358-40.3608 8.6515-58.6387 17.764-17.3011 8.6254-37.9128 17.3364-46.5038 34.6547-80.7485 162.7782 54.8466 37.2731-74.4382 137.2201-21.52 3.8367-42.9244 8.391-64.5601 11.51-46.489 6.702-75.3703-2.9186-109.561 41.7293-10.1214 13.217-8.57 32.287-10.537 48.8177-3.804 31.9668 1.8319 69.247 4.8396 100.4631-.8761 22.7902-4.4358 45.6352-2.6283 68.3704 3.854 48.4765 22.7377 119.8167 47.204 161.1291 18.8827 31.8844 57.8176 52.0634 68.522 87.5399 21.3157 70.644-33.638 99.8076-73.5006 135.9129-78.9723-6.9403-9.4995-123.5068 23.1813-107.1534 22.5139 11.2659-13.8646 49.1192-27.261 70.4342-20.9467 33.3278-42.0609 69.3679-74.5623 91.5753-39.2331 26.807-88.6998 34.1256-133.3192 50.4647-77.4919 28.3767-155.3347 55.7855-233.002 83.6783l-248.8807 56.3504c-68.036 32.4491-132.0074 75.3622-204.108 97.3473-60.7372 18.5202-126.5658 11.8481-189.1525 22.5667-51.2795 8.7822-100.6764 26.779-151.9068 35.8433-108.9705 19.2803-114.5732 13.2998-214.4824 5.5603-18.4056-32.8635-25.638-75.2696-55.2169-98.5906-12.7603-10.0608-32.0838 9.4696-44.454 20.0064-20.1223 17.1402-31.1362 43.1868-50.657 61.009-158.3493 144.5704 20.5603-57.8585-117.6473 107.0356-52.2302 191.6568 218.8136 265.5214 271.0437 73.8645-14.1198 4.4704-27.7539 15.8673-42.3594 13.4111-8.3491-1.4041-19.8905-20.1504-11.7603-22.5126 12.7741-3.7114 23.7253 13.3345 36.8947 15.21 38.8909 5.5387 54.2555-216.6418 23.0493-115.5738 28.1614-12.7174 54.4186-31.0211 84.4843-38.1522 40.0227-9.4927 81.8837-7.9997 122.9044-11.0368 52.9329-3.9191 107.6345 3.8107 158.9295-9.83 61.6076-16.383 115.1501-54.9236 174.2684-78.776 235.1431-94.8729 200.754-74.5788 461.9564-125.0198 1.0218-.3905 310.0036-125.9026 368.2405-127.875 39.6901-1.3442 77.3374 18.4954 115.0556 30.9232 31.8224 10.4853 60.6506 45.7077 93.1823 37.6895 162.0427-39.9393 115.8726-88.6859 87.913-182.7826-35.7287-18.2789-115.2416-49.1036-126.1518-97.5249-7.6394-33.9053 15.6864-67.7889 20.8777-102.1544 3.0346-20.0889-.8824-41.0522 3.7436-60.8353 7.2168-30.8628 33.715-55.376 33.2372-89.0878 9.4778-12.9861 16.9903-27.6656 28.4332-38.9583 10.0857-9.9532 23.8487-15.3526 35.1978-23.8372 1.4668-1.0966 4.7355-4.45 2.9158-4.6565-8.482-.9623-20.405 8.9233-25.5236 2.0918-30.4544-40.6466-2.452-77.3633 12.2132-114.7009 117.309-89.9059-1.3375-13.0046 147.8732-65.0769 38.7489-13.5228 31.2622-35.5047 50.6786-67.11 29.0556-47.2957 49.999-61.1056 91.422-99.81 21.2611-19.825 40.8013-41.6735 63.7835-59.4747 24.4393-18.93 50.796-35.4613 77.9222-50.2864 73.3687-40.0977 155.7913-70.2047 240.4711-69.6653 12.1401.0773 23.9137 4.2059 35.8705 6.3089 17.465 6.2919-7.7373-1.4026 28.8619-3.2351 4.8932-.245 9.3202 3.3826 14.2033 3.7812 5.6663.4625 11.3495-1.7542 17.0108-1.2333 8.4482.7773 61.3246 12.407 65.7015 13.344 35.0457 8.8585 57.8571 10.6977 87.3395 34.2562 11.6469 9.3067 21.3753 21.2442 28.9773 34.069 1.8867 3.1829.5394 13.1565-2.3523 10.848-13.1529-10.4995 38.1537-120.1027 40.1337 30.634 35.7864 5.5456 72.3806 26.0129 107.3592 16.6366 71.0584-19.0477 65.9028-92.7132 102.7721-136.896 20.1653-24.1655 50.9273-37.259 73.899-58.7742 201.1967-188.4407-131.3095 84.396 172.4349-155.6602-2.4436-8.1776.6106-21.4056-7.3307-24.5328-45.0714-17.7488-50.8257 79.5973-71.3088-50.3362-14.0156-88.9067 35.6625-89.7984 86.3737-145.2556 21.0019-22.9675 37.315-49.819 55.9724-74.7286 253.4931-82.433-38.1005 25.3225 164.039-86.0945 65.9439-36.3475 112.4281-37.3127 185.7818-33.1344 27.4579 1.564 56.3839.8295 81.6865 11.607 23.1596 9.8647 38.8597 32.01 58.2895 48.015 213.1764-53.2942 137.8072-354.7711-75.3692-301.477z" style="fill:#8cff4b;fill-opacity:1;fill-rule:evenodd;stroke-width:4;stroke-linecap:round"/><path d="M-230.423 2203.0722c10.8714-16.6195 20.1758-34.377 32.6144-49.8585 17.4719-21.746 38.4556-40.4428 56.8134-61.4464 72.3518-82.7789 76.4077-99.255 162.3522-185.9754 33.7205-34.025 71.1986-64.124 105.9488-97.0966 40.7375-38.6538 80.3234-78.5034 120.4852-117.7552 76.302-64.224 91.987-107.5975 192.6009-100.2923 29.3687 2.1324 55.2922 21.0571 84.1695 26.8167 19.232 3.8359 78.0562-2.0527 58.8079 1.7003-308.9932 60.2473-354.6868 92.0554-270.1996 36.0419 16.5943 12.4476 30.7754 29.0346 49.783 37.3426 4.3692 1.9098 1.8135-9.814 4.9182-13.4331 7.6337-8.8985 15.0565-20.4881 26.4726-23.1585 16.3217-3.818 33.4266 2.8265 50.0103 5.2675 33.1403 4.8781 151.7941 27.1435 178.2042 32.0184 56.4244 31.4651 118.401 51.5754 175.4574 81.6837 25.4505 13.4301 51.9834 26.0768 73.6998 44.9579 42.9705 37.36 50.175 93.1312 117.7984 100.0115 23.1764 2.3581 44.1854-14.7811 66.2781-22.1717 71.5406-81.4815-5.0965-1.7498 79.2536-67.7082 15.5655-12.1716 26.8737-29.4862 43.2614-40.5262 16.1104-10.8532 37.9756-11.9479 52.9671-24.3008 162.228-133.6759-49.1398-5.9611 114.2365-97.4511 32.8186-62.2669 17.9199-64.36 85.8102-83.7322 9.8457-2.8094 20.4755-.9122 30.7099-.6164.8577.025 1.3636 1.042 2.0454 1.5629 4.55-.8556 9.9556.2236 13.6498-2.5668 12.1283-9.1609 21.5501-21.4397 32.3251-32.1595 19.2863-38.199 67.6274-34.8127 94.8113-60.6757 19.1276-18.1983 25.3543-47.4596 44.8008-65.3167 15.3566-14.1016 37.7876-17.6712 56.2081-27.437 60.7646-32.2148 19.5927-23.4013 86.183-26.3954 7.9849-19.918 11.3509-42.3866 23.9548-59.7541 12.0328-16.5804 38.184-20.6747 47.6131-38.8624 15.1539-29.2303 14.8013-64.1654 22.4074-96.1997 5.9368-25.0037 15.4157-49.3671 18.2207-74.9123 12.019-109.4536-22.2895-14.3843 11.7212-93.8828 2.8396-13.0942 5.3641-17.003-5.2253-32.4169-7.1663-10.4312-20.2865-16.034-26.8216-26.8718-11.7606-19.5036-11.0243-62.3538-23.6475-79.8795-23.7453-32.9676-55.5201-59.3323-83.2802-88.9985.4925-60.4785-13.5896-113.9563 38.1302-160.538 14.2261-12.8127 36.2502-14.898 55.3935-15.1819 19.665-.2916-4.3875 43.2961 32.7944 13.1354 13.9579-11.3223 21.1465-29.0671 31.7198-43.6007 16.9045-12.831 40.6567-19.8045 50.7135-38.4929 21.5317-40.0117 13.7008-93.3018 40.1076-130.2779 23.4507-32.8369 66.7147-45.4348 100.8009-67.0295 82.4735-52.2497 136.5154-81.477 222.0092-129.4376 39.0108-21.8844 78.0871-43.652 117.1306-65.478 42.6064-24.0057 84.2525-49.8019 127.8192-72.0173 229.5064-117.0293 65.4407-13.8735 306.4141-155.5563 40.3046-23.6976 77.4935-52.4817 118.0091-75.8167 68.6105-39.5163 95.6886-43.7804 170.9021-67.979 57.2933-118.6294-110.4738-199.6543-167.7671-81.025 12.016 21.7294 37.4655 40.3984 36.0482 65.1884-4.3214 75.5815-119.4687 124.8912-162.122 150.3164-52.6117 31.3612-104.8183 63.6495-159.5458 91.1525-300.2978 150.9126-3.8441-28.1802-271.7646 142.1276-64.5636 34.1145-170.192 89.033-233.6061 126.0516-36.3912 21.2436-72.0243 43.7747-107.5087 66.5006-34.0059 21.779-61.9913 56.3158-100.9354 66.9966-60.4641 16.5829-126.956-17.671-188.0607 3.354-13.4815 7.5862-26.6989 15.6624-40.4446 22.7587-52.3174 27.0091-101.8923 33.9978-114.0672 108.4342-4.3997 26.8992 15.7183 52.2158 24.698 77.9508 40.5371 116.1758 28.6868 37.8898 30.975 169.4964-26.2106 40.1067-75.3547 102.7587-87.0169 155.8438-3.4256 15.5931 3.6994 32.0317 1.6612 47.866-.3629 2.8194-21.836 63.2188-20.5173 72.1748 1.8419 12.5092 11.3735 22.5861 17.0602 33.8792 9.002 5.4434 17.94 10.9942 27.006 16.3303 17.1851 10.1148 18.1114 8.1355 33.5813 24.3422 1.6474 1.7258-5.3444-5.5144-6.3297-3.3415-5.1006 11.2481.08 27.1855-8.5075 36.0616-11.5442 11.9318-30.4345 13.2773-45.6517 19.9159-7.7469 12.8355-15.5155 25.6581-23.2407 38.5067-8.8505 14.7201-16.3152 30.3589-26.4865 44.1994-11.4102 15.5265-21.183 34.1576-38.0039 43.5558-16.5689 9.2574-38.3343 2.7043-56.2098 9.0835-11.8343 4.2233-20.4449 14.6135-30.6673 21.9202l-41.2624 12.1401c-28.3128 3.3991-83.7572 7.943-108.094 20.9652-18.2551 9.7681-34.1891 24.643-46.2208 41.4924-9.9052 13.8712-14.3347 31.2686-17.6718 47.9835-16.4839 82.5656 23.9737 19.5014-35.5864 88.0173-7.6064 15.5038-9.44 35.5922-22.8191 46.5112-13.4893 11.009-34.1595 7.3313-50.5049 13.3304-13.5984 4.9908-85.5827 42.9582-97.4186 46.1792-37.4699 10.1969-58.982 3.9473-94.61-1.2154 2.439 8.5171 7.8064 16.7053 7.3173 25.5513-1.61 29.1187-57.2419 62.9737-67.9469 65.9945-26.9839 7.6146-56.7821 3.0528-84.0395-3.5157-30.227-7.2842-58.6958-21.5428-85.4787-37.3353-27.0086-15.9257-49.8175-38.0866-74.7263-57.1299-17.2773-25.8343-36.8013-50.3-51.832-77.5029-87.169-157.7616 18.163 7.9216-51.763-129.8531-8.0968-15.9532-22.2073-28.2807-30.6804-44.0373-6.2658-11.6518-25.6207-33.0636-13.1397-37.4508 16.315-5.735 29.7891 17.5751 44.6837 26.3627 9.0977-103.3133 6.4493-36.8593-279.3186 37.8578-15.9527 4.171 35.6634 1.8076 47.71 13.0666 21.9694 20.5332 43.4969 46.6524 47.998 76.3846 13.107 86.5793-78.695 125.3113-129.4613 165.0554-59.787 66.4984-142.5267 168.7995-220.8939 219.6186-37.644 24.4111-80.024 41.4014-122.601 55.5492-25.8883 8.6024-53.7067 13.6296-80.9431 12.0858-23.7192-1.3444-102.0684-30.5083-129.2333-40.1363-195.9455 61.233-109.349 338.3419 86.5965 277.1089z" style="fill:#8cff4b;fill-opacity:1;fill-rule:evenodd;stroke-width:4;stroke-linecap:round"/><path d="M2549.9728 338.4345c-12.6921 48.923-32.0342 136.7768-60.3413 175.3131-57.7792 78.6586-198.6891 137.1165-264.5164 189.1976-50.7795 40.1756-89.8403 93.4036-137.7456 136.9663-34.9648 31.7952-73.6838 59.1996-110.5257 88.7994l-74.634 53.4763c-33.4844 3.5479-72.1092-7.5336-100.4532 10.6437-21.77 13.9612-49.5653 98.3855-41.6192 130.9028 1.3293 5.4399 11.121-8.9049 15.7722-5.7862 21.9136 14.6932 38.1311 36.4747 57.1967 54.712-5.6044 22.5043-2.1147 49.5737-16.813 67.5129-12.6203 15.403-36.1193 18.55-55.8577 21.1813-32.9467 4.3921-51.2332-29.6477-73.845 14.9514-101.3065 199.815 21.1026 85.8235-146.9098 204.3173-65.1731 48.745-103.6896 92.6926-185.2206 105.6182-2.2084.3501-119.1144 6.9666-123.3155-33.196-1.5681-14.9909 21.7131-26.8943 36.7745-26.3118 9.8677.3817-7.6889 18.192-11.5334 27.2881-48.9415 19.0987-77.91 26.1163-119.7998 65.0431-31.1027 28.9026-48.2234 72.8233-83.9038 95.8372-58.8398 37.9518-130.1959 28.651-182.1148-13.4822-16.5668-13.4443-20.7154-37.3055-31.073-55.9582 2.4767-10.2896 7.231-20.2872 7.4302-30.8688.159-8.4444-2.2803-17.1393-6.3878-24.5191-23.0069-41.3353-42.2755-59.3469-91.7024-71.4531-7.3108-1.7907-113.363-2.4612-125.0406-2.5777-53.3898-2.9009-73.7043-4.5676-127.5972-5.1809-39.046-.4444-81.5371-2.5557-119.392 10.6881-121.411 42.4767-24.4852 42.3287-145.7238 25.7714-17.315-13.2524-35.341-25.624-51.9448-39.757-36.2073-30.819-46.0488-68.0535-104.7155-37.558-11.7278 6.0962-8.6937 25.2845-16.078 36.247-10.3267 15.331-58.3253 55.8396-68.3224 64.6786-15.9737 14.5232-33.185 27.7922-47.9213 43.5695-16.5765 17.7475-33.3271 35.8339-45.739 56.7072-36.5428 61.4546-38.8784 120.3709-94.0083 173.0599-56.348 53.8531-234.8092 121.6677-286.738 144.3289-217.0576 90.3077-135.1913 49.6458-341.6125 161.8934-40.8395 22.2077-81.613 44.5555-121.8707 67.8012-31.2649 18.053-57.0529 50.126-92.6621 56.0746-32.0433 5.3529-62.8267-16.5682-94.24-24.8523-93.3894 76.715 15.1021 208.7874 108.4914 132.0724-3.3474-33.5389-24.7106-70.2704-10.0422-100.6169 22.5128-46.5752 189.661-102.4043 216.9958-116.7606 582.3703-305.863-260.7824 104.5088 333.0233-179.7341l185.0682-69.6419c36.298-21.2033 70.2352-47.0981 108.8938-63.6097 35.2963-15.0756 74.2313-19.5827 111.0736-30.3417 245.7069-71.7535-32.7216 11.1981 125.8017-48.1198 13.3738-5.0043 27.7705-6.6637 41.6558-9.9956 60.086-21.4205 20.0545-14.7129 86.6193-5.3593 8.4667 1.1897 24.866 9.8373 25.6156 1.3204.7538-8.5657-22.9481 3.1398-25.2797-5.1368-13.3717-47.4666 31.5094-66.8958 58.8711-89.2491 164.4723-16.8429-23.8811-10.8298 152.971 32.8187 17.4646 4.3104 35.564-5.539 53.4563-7.3996 16.804-1.7474 33.6775-3.7723 50.5683-3.4178 46.448.9747 51.083 6.6382 94.5148 22.2051 131.1986 71.2494-14.0364-5.3579 59.7964 29.2918 1.614.7575 2.2581 3.0947 3.9736 3.5807 7.0627 2.001 15.5832-.3476 21.7098 3.6959 100.5416 66.3562-27.9688 23.9353 127.8572 57.5766 25.8407-5.7761 52.7815-7.8937 77.522-17.3282 76.2954-29.0943 88.2392-70.8236 180.6682-61.5381 40.056 4.0241 75.8324 27.0584 113.7756 40.5118 63.2238 22.4173 40.1755 14.6818 95.7915 32.1065 19.0833 5.3966 37.7699 19.9084 57.2499 16.1899 67.0769-12.8042 82.557-36.8353 86.1429-93.2515 1.6231-25.5348-9.3362-51.7685-3.4956-76.6794 20.6992-88.2859 69.4967-102.7103 139.3156-156.1001 174.6631-121.8823 12.407-43.1316 227.8813-43.0969 60.4781.01 85.1332-40.0158 106.7558-88.0568 10.5067-23.3436 10.8194-50.4694 21.5455-73.713 12.2754-26.6008 31.2003-49.5953 46.8004-74.393 32.2531-28.0214 72.3901-48.9699 96.7594-84.0641 13.0658-18.816 8.0027-45.2513 8.9305-68.1401.1223-3.0153-3.8684 4.7759-6.4269 6.3762-14.8613 9.2957-29.5862 33.2777-45.6112 26.1734-96.8762-42.9474-44.1735-95.5033-18.2705-153.3038 132.1807-142.1661 70.3033-89.3306 253.1468-216.9129 76.5226-53.395 182.5787-137.0055 280.9004-163.0654 79.485-21.0672 111.6697-5.3704 185.3147 11.4078 160.7821-107.188 9.1953-334.5683-151.5868-227.3802z" style="fill:#8cff4b;fill-opacity:1;fill-rule:evenodd;stroke-width:4;stroke-linecap:round"/><path d="M2800.6214 32.5355c-12.5283 18.3968-23.3761 38.0583-37.5849 55.1904-51.8805 62.5544-145.8067 147.4424-208.0063 184.2294-55.1909 32.6418-120.3585 45.2603-177.0346 75.2492-54.6551 28.9196-251.8968 166.222-305.7763 203.1714-40.3656 39.0452-79.9147 78.9525-121.0968 117.1356-34.8673 32.3283-74.1113 59.9949-106.991 94.3428-26.6503 27.8403-47.5229 60.6905-70.8108 91.3988-44.6144 58.8302-75.1407 99.79-113.4517 162.7997-16.9359 27.8543-31.9882 56.8111-47.9824 85.2166-37.6752 61.699-69.0977 120.2769-119.8016 173.1891-39.8447 41.5799-87.5483 75.0923-127.6245 116.449-33.5355 34.6069-206.1047 244.6943-233.8059 275.7829-35.8281 40.2093-74.3639 77.9216-111.5459 116.8824-144.1536 116.6189-139.1955 118.8505-288.7964 216.862-123.484 80.901-206.3478 141.4786-350.8881 177.8425-89.8476 22.6041-281.2506 33.7039-379.279 41.119-39.1761 3.5702-78.1938 10.1528-117.5283 10.7107-63.9312.9067-113.0032-29.5551-168.5635 24.2088-31.7872 30.7594-39.5784 80.8003-70.5206 112.4095-35.489 36.2538-209.5258 125.4536-245.2772 144.7701-80.4715 41.3659-148.9095 81.3215-236.1743 107.473-29.2568 8.7676-60.2912 21.108-90.3101 15.4781-30.6833-5.7545-51.2768-37.0781-80.687-47.548-46.7838-16.6548-58.5094-8.9505-93.4655 2.9739 2.862-3.2817 5.263-12.659 8.5861-9.8451 10.6986 9.0593 8.1837 29.4783-4.2754 35.2704-9.8633 4.5854-21.3219 4.315-31.9829 6.4725-173.3591 115.7452-9.6707 360.912 163.6884 245.1668 3.4599-1.2552 6.8651-2.6726 10.3796-3.7655 10.7452-3.3414 21.8971-5.4533 32.3843-9.5329 31.861-12.3942 40.2929-21.5444 69.6351-42.4149-2.934-3.0231-5.5127-6.4374-8.8021-9.0694-13.063-10.4524-34.5062-14.3596-40.1578-30.106-9.8347-27.4018-13.8311-60.7223-1.9864-87.3171 25.5873-57.451 143.4369-95.8094 185.4114-114.3597 40.2231-17.7762 80.5716-35.2673 120.8575-52.901 46.4313-23.1348 94.4683-43.294 139.2939-69.4044 37.7308-21.9779 67.596-57.3414 107.7502-74.4961 40.042-17.1067 87.896-9.1846 127.9729-26.2097 18.9042-8.0307 26.8476-31.1358 41.3217-45.7084 88.2283-88.8291 43.9822-60.7112 183.4982-70.8977 233.0993-76.4188 107.0404-55.9127 380.248-47.0493 61.7186-13.0261 110.9245-60.1758 167.6175-87.8301 93.469-45.5933 252.8533-104.5851 337.8756-174.2774 49.266-40.383 86.447-93.5876 129.6704-140.3814 37.1503-38.9937 74.5164-77.7828 111.4508-116.981 101.7055-107.9392 145.7893-158.1611 247.832-262.749 40.2496-41.2536 83.3062-79.8002 122.1265-122.4016 47.7924-52.4472 84.0178-114.6936 132.5289-166.5819 16.4113-28.188 33.2983-56.1044 49.2339-84.564 42.6895-76.24 48.029-97.8582 99.9517-169.2816 22.4273-30.8503 47.0837-60.0401 71.738-89.1416 110.7461-130.7222 84.0457-97.9089 220.6804-219.234 98.1809-66.454 203.1224-142.2746 309.9694-194.5479 105.1905-51.4628 214.7058-97.3052 335.106-89.4453 51.7659 3.3794 94.7276 47.1956 131.2544 77.3079 219.9529-33.839 172.0975-344.8994-47.8555-311.0605z" style="fill:#8cff4b;fill-opacity:1;fill-rule:evenodd;stroke-width:4;stroke-linecap:round"/><path d="M2489.756 588.17c.4036 47.696 4.6455 71.9146-11.0215 118.0448-6.4777 19.0733-20.4075 35.0814-26.6676 54.2272-12.979 39.6952-5.24 88.4031-30.7738 121.4515-23.7052 30.6816-245.3829 147.3415-271.4477 161.6139-47.0904 22.5179-93.8695 45.6985-141.271 67.5538-46.0382 21.2267-92.8025 40.8453-139.0198 61.6792-88.5226 39.9042-186.4708 87.5811-277.3109 122.3282-46.9209 17.9476-208.5302 69.7142-259.8055 86.3404-133.8571 45.595-93.8372 28.1805-222.2384 87.0004-36.2192 16.5918-72.0575 34.0026-108.0843 51.0083-45.2269 21.3484-135.2298 68.66-188.347 76.3054-27.8942 4.0149-56.2717-3.2124-84.4076-4.8185-18.2368 6.3313-36.5546 25.5536-54.7106 18.9938-23.282-8.4117-50.1169-31.5712-48.465-56.271 1.4465-21.6301 33.2609-39.2108 54.592-35.3456 46.8412 8.4875 78.7414 59.5307 125.587 67.9938 21.793 3.937-20.7688-42.664-40.545-52.6303-29.0209-14.6251-64.0866-10.8317-96.1299-16.2475-128.9273 90.4618-24.1364 22.5412-146.0878 88.7787-83.8336 45.534-115.536 91.7498-215.6732 62.6849-56.0932-16.2812-85.1822-68.2447-116.5251-110.3772-31.5923-8.0011-64.3618-25.459-95.2704.6422-17.6238 14.8826-23.3884 40.1413-38.8168 57.2894-23.397 26.0048-74.7691 56.9042-102.6956 76.3472-17.7618 12.3662-35.1386 25.2763-52.7078 37.9145l-36.4083 57.7925c-6.2761 38.2624-1.2669 80.2185-18.8284 114.7872-16.4114 32.3047-49.7255 53.0448-77.9663 75.747-26.4823 21.2884-141.9747 95.0218-178.8316 105.1691-28.6143 7.878-59.3103 2.3789-88.9654 3.5683-107.3356 23.5285-37.6072-2.6758-127.0625 61.381-21.1453 15.1418-46.4154 24.5932-65.7905 41.9427-27.007 24.1835-40.077 64.3681-72.0382 81.4768-69.9538 37.4461-113.903-15.1557-163.3172-49.0402l-19.337 274.8808c231.1728 123.9774 406.5033-202.9502 175.3305-326.9276l-23.9473 265.4791c-10.6353-59.0634-41.6002-116.1984 35.5024-155.7893 32.2782-16.5743 72.5512-4.4 108.3842-10.1083 53.3739-8.5026 100.1486-21.8817 143.8772-54.6344 19.133-14.3306 33.7145-33.8983 50.5717-50.8475 18.4094-22.2073 33.421-47.7403 55.2283-66.6219 25.02-21.6632 55.8601-35.5107 83.5913-53.5737 30.652-19.9656 61.2802-39.975 91.5542-60.5093 30.5384-20.7136 56.523-49.7377 90.8701-63.2254 271.558-106.6376 27.1884 38.5198 164.1414-47.3227 10.5441-10.5789 20.9592-21.2881 31.6324-31.7368 27.7218-27.1388 36.7475-44.9185 81.3056-42.5408 16.6596.889 30.6506 14.745 47.2367 16.5441 8.827.9574-.0873-29.7765 17.6395-19.9585 10.0813-22.2882 14.547-48.1027 30.2437-66.8646 47.3903-56.644 101.788-77.2652 176.2036-53.4865 42.3673 13.538 74.7358 48.5143 114.2584 68.9161 91.0752 47.0138 50.4518-10.4323 89.185 75.697-19.2721-4.462-40.111-4.5632-57.8164-13.3861-13.407-6.6809-45.89-37.3226-32.1182-31.4301 48.4166 20.7159 86.0803 68.4499 138.0815 76.7684 76.2788 12.2022 74.3009-63.3238 91.1647-101.0103 8.8214-19.7137 21.7416-37.3242 32.6124-55.9863 14.4034-22.1931 24.8278-47.5509 43.2102-66.5794 48.1134-49.8048 112.4904-75.5186 173.2825-104.4745 107.5436-51.224 216.3753-100.5243 330.1996-136.3728 40.7791-15.1504 81.4658-30.5518 122.3372-45.4513 44.8861-16.3631 90.8911-29.8147 134.9311-48.3348 46.3634-19.4973 89.3948-46.4075 135.9022-65.5588 15.3646-6.327 273.8765-93.4473 288.9705-100.1344 48.0222-21.2754 92.3345-50.0945 138.5017-75.1417 49.658-25.0916 101.6615-45.9996 148.9739-75.2748 43.1004-26.669 75.5593-69.7452 121.158-91.8728 44.4758-21.5827 97.5704-18.8977 143.706-36.6575 21.209-8.1644 36.9182-26.5144 55.2593-39.934 63.7985-46.679 27.4238-32.2807 101.5041-44.6602 125.3067-167.0756-110.9738-344.286-236.2805-177.2104Z" style="fill:#8cff4b;fill-opacity:1;fill-rule:evenodd;stroke-width:4;stroke-linecap:round"/><path d="M1114.9325 1011.9573c-87.5213 83.8674-89.3369 101.3564-206.3585 147.8118-39.335 15.6153-82.1041 20.7335-122.5325 33.2485-33.4957 10.3688-64.222 31.4965-99.0734 35.3516-115.4396-18.3835-60.091-17.9881-165.9612-5.4283 7.348 53.3014-56.2385 70.3456-67.6773 112.6232-6.2134 22.9644 7.749 47.9275 3.2836 71.2948-2.7544 14.4141-17.2888 23.8622-23.9648 36.9306-21.0709 41.2469 10.4935 19.7959-40.1975 39.2374-21.1216-7.0182-42.069 3.0839-63.0524 1.7532-54.2532-3.4403-45.7529-20.4608-103.0327.1492-34.6764 12.477-66.6103 39.4661-95.6241 61.3941-33.0115 80.4431-3.8207 39.0274-74.3732 90.005-22.7746 16.4558-41.1873 39.9165-66.863 51.3284-23.735 10.5492-54.4345-.4654-76.901 12.5689-431.4813 250.3301 259.7359-71.5591-197.1581 131.6397-67.9688 33.0012-116.6865 60.4715-188.9768 81.5248-28.2447 8.2258-57.8916 10.6867-86.459 17.7102-62.3205 15.322-89.7687 30.843-153.212 38.7967-22.0051 2.7587-44.3396 1.1573-66.5093 1.736-19.4235 2.7388-38.655 8.2719-58.2706 8.2166-18.8007-.053-37.0331-6.7877-55.7522-8.5382-70.2458-6.5689-55.1966 1.6498-127.875-3.9618-75.5089-5.8301-121.1476-16.8682-198.3528-31.2357l-145.8437-48.964c-9.5961-3.3184-14.289 10.2524-4.693 13.5708l147.1601 43.1077c31.7503 22.9303 63.5841 45.7454 95.2508 68.7909 26.3626 19.1854 50.3466 42.0443 78.8357 57.9009 32.535 18.1084 119.8097 44.4743 157.883 47.5356 41.9754 3.375 103.7513-10.839 144.4245-18.3783 22.2715-12.2177 44.172-25.1375 66.8146-36.6532 72.0514-36.6444 76.6174-31.0864 145.5031-75.925 24.6386-16.0375 46.532-36.052 71.1832-52.0702 68.3163-44.3919 107.6486-60.1702 182.1539-95.9903 283.2663-126.5814-64.0116 9.9364 222.4648-46.0688 25.8722-5.058 43.5729-32.066 69.1824-38.3193 30.7624-7.5114 63.594 2.4203 94.9822-1.7659 209.5028-27.9408-67.078-22.7598 166.7995-20.1298 6.4383-2.5215 14.107-3.0164 19.315-7.5647 23.4423-20.4722-19.8096-18.1719 25.0963-39.6368 12.8877-6.1603 28.971-.3925 42.5964-4.6806 20.9092-6.5805 39.8164-18.3477 59.7245-27.5215l76.4832-23.9211c18.7035-18.5005 36.4577-38.0129 56.1106-55.5016 22.978-20.4477 54.344-32.7303 71.6301-58.1721 10.2032-15.0172-1.6627-37.2763 4.759-54.2581 5.4686-14.4611 23.2864-21.6953 29.3424-35.9203 30.6777-72.0584-23.5458-15.0387 19.7086-54.7106-15.3292-47.8409-37.9-85.711 12.822-135.4757 24.835-24.3661 64.4787-26.3956 97.704-36.7186 40.1166-12.4642 80.0055-31.8526 122.0128-31.5468 119.7859.8722 119.7752 39.1818 179.1334 121.5519 195.6715 18.6354 222.0259-258.0859 26.3544-276.7212z" style="fill:#8cff4b;fill-opacity:1;fill-rule:evenodd;stroke-width:4;stroke-linecap:round"/><path d="m5 2043 485-484Z" style="mix-blend-mode:luminosity;fill:none;fill-opacity:1;fill-rule:evenodd;stroke:#c300a5;stroke-width:16;stroke-linecap:round;stroke-linejoin:round;stroke-dasharray:none;stroke-opacity:1"/><path d="M1548 500 2043 5Z" style="fill:none;fill-opacity:1;fill-rule:evenodd;stroke:url(#B);stroke-width:16;stroke-linecap:round;stroke-linejoin:round;stroke-dasharray:none;stroke-opacity:1"/><circle cx="1020" cy="1030" r="750" style="fill:url(#C);fill-rule:evenodd;stroke-width:4;stroke-linecap:round;fill-opacity:1"/><g style="display:inline;opacity:.982;mix-blend-mode:normal"><path d="M2762.7313 765.3648c-11.9654 45.0906.7615 15.858-29.0798 51.8186-58.0971 70.0105-52.8083 94.7502-181.3951 117.0774-58.0258 10.0754-119.0738 2.5424-176.321-11.287-63.8242-15.418-121.3518-50.1866-182.0276-75.28-103.0208-1.3538-146.9026 19.276-225.7253-41.0543-21.6467-16.5682-28.5463-50.6406-53.3259-62.0006-48.778-22.3618-119.3882 30.02-153.7017 46.9349-29.8382 14.7088-60.2489 28.2264-90.3733 42.3396-29.5048 3.788-58.8778 13.9247-88.5143 11.3642-55.3322-4.7804-89.6318-41.9635-144.1996-47.6652-18.6475-1.9484-39.9363-1.2846-55.4928 9.1807-6.7225 4.5225 9.8363 15.3894 7.4571 23.1343-5.9231 19.2816-20.4005 34.8034-30.6008 52.205-42.6983 17.6725-89.7516 42.1672-138.0082 40.6015-23.7364-.7701-46.2752-11.0574-68.7026-18.8693-19.2312-6.6986-35.9142-20.8747-55.9447-24.5476-51.7411-9.4875-88.712 18.218-133.6292 38.6752-29.951 11.5788-58.6289 27.2405-89.8529 34.7365-23.5883 5.663-173.132 16.0775-196.8948 18.0943-33.14 2.8126-66.1824 6.79-99.3602 9.1147-146.1652 10.2412-168.614 9.202-314.4082 12.9153-54.3968-.9017-109.0446-8.0017-163.1905-2.705-94.6304 9.2569-126.8347 52.0715-218.1678 29.275-26.8914-6.712-46.2027-44.2222-73.426-39.018-101.5122 88.0182-44.1503 63.618-169.1332 79.7857-54.7939 6.7451-145.826 19.9744-202.7918 19.6044-45.1717-.2935-90.1922-5.259-135.289-7.8778-50.24-2.9176-101.3437.9852-150.7215-8.7314-63.5298-12.5015-123.0594-40.5185-185.5568-57.442-55.9135-15.1407-112.948-25.788-169.4219-38.682-94.8858-3.0917-137.8236 11.5397-215.3211-39.462-23.8898-15.7221-36.5986-45.8465-61.6154-59.7051-17.8942-9.913-44.4409 4.1171-60.8292-8.126-72.0052-53.7924 3.7426-90.0578-69.6874-37.8195-46.7993 78.4201-59.8973-43.3115-41.0647-40.0316 46.2106 8.048 107.0667 28.7285 119.7617 73.884 33.6733 119.7753-16.363 141.7183-74.4933 174.5122 203.8797-99.1363 63.6799-387.4658-140.1999-288.3295-13.9496 10.0893-33.6239 15.1439-41.849 30.2679-66.6592 122.5703-134.3964 213.1625 44.2577 274.1476 22.5978 7.7139 39.534-26.7902 59.301-40.1853l56.2438 27.9049c17.9705 9.8848 33.953 34.3774 53.9114 29.6543 18.0941-4.2819 12.906-36.691 27.0124-48.8046 14.3198-12.2968 35.7512-12.267 53.0088-19.9118 23.5734-10.4426 44.082-29.085 69.3351-34.2842 82.473-16.9801 136.6158 19.4743 212.709 48.3631 210.7847 22.7203 147.7517 12.6101 364.882 50.2039 50.0491 8.6655 99.337 22.4639 149.882 27.484 114.0157 11.3241 226.4235-12.1951 340.2709-9.3227 30.8495-1.9263 62.1108-11.1592 92.5484-5.7787 35.5517 6.2845 64.9809 45.3371 100.6774 39.9354 26.8084-4.0567 28.2881-48.9459 51.4973-62.963 25.5672-15.441 57.8055-15.2733 87.1618-20.7791 139.8313-26.2257 137.6477-19.9775 290.7142-25.78 52.26 2.1335 104.5286 8.737 156.78 6.4004 53.036-2.3717 105.2192-14.279 157.9456-20.4744 35.0014-4.1126 162.279-16.0302 197.7988-17.1419 32.743-1.0247 65.9556-4.1438 98.2693 1.2394 31.8705 5.3094 61.3456 20.3074 92.0184 30.4612 35.442 14.3622 86.8975 43.7172 129.9722 34.1422 20.8969-4.6451 36.5451-23.0899 56.8472-29.8781 23.0139-7.6948 47.4258-11.1438 71.6151-13.0741 66.7187-5.3242 98.6698 3.3027 164.3668 13.0985 50.4625 11.2456 127.6595 36.8955 180.4972 13.9067 10.2821-4.4736-19.234-14.3489-22.3851-25.1102-5.3573-18.2956-8.0559-39.1905-1.707-57.166 26.4542-74.8998 59.8782-68.7306 127.604-92.9668l95.2755 13.7985c25.8708 9.0176 50.7774 21.5302 77.6123 27.0528 83.0887 17.0996 21.942-20.3124 112.5311-41.1457 76.4228-17.5754 159.6869 49.334 235.1812 5.8073 514.8719 241.73-134.254-32.0078 358.8557 85.8414 102.5083 24.4987 141.3527 83.5363 229.0692 117.9699 15.3078 6.0092 32.9904 3.4635 48.5421 8.8099 14.2053 4.8836 26.4048 14.3297 39.6071 21.4946 226.1589-75.3863 119.5466-395.2232-106.6122-319.837z" style="fill:#000;fill-rule:evenodd;stroke-width:4;stroke-linecap:round"/><path d="M-1190.4341 1000.3625c31.0176-24.1037 54.8893-57.4368 87.9092-78.8756 33.6411-21.8421 67.639-50.0955 107.5646-53.936 71.55-6.8824 143.0958 13.9968 214.4143 22.9647 451.5585 56.7805 18.791 15.4775 492.4369 55.2608 169.744-43.7878 163.5082-58.3108 311.196-51.9366 28.6512 1.2366 56.7086 11.5936 85.3712 10.6564 55.4971-1.8146 99.5213-26.8027 149.8005-45.9504 28.4882-10.8491 57.3383-20.7229 86.0074-31.0843 14.9324-.006 175.9525-.7512 187.258 2.1174 233.915 59.3528-68.0593 21.8624 140.038 80.6927 30.6162 8.6554 63.8409 1.0487 95.253 6.1023 38.3087 6.163 75.4185 18.2811 113.1277 27.4217 185.2937 51.0937 70.7096 25.2917 271.2216 55.546 47.9236 7.231 95.6776 15.5528 143.5851 22.89 44.8109 6.863 89.3181 16.9005 134.5644 19.7097 23.1832 1.4394 183.4723-7.7329 214.1554-9.3762 98.6832 2.7995 196.3683-21.5969 294.8453-19.5668 72.4437 1.4934 143.6466 25.0722 216.091 23.612 62.9477-1.2688 123.4208-26.93 186.1987-31.7205 47.1327-3.5966 94.4101 5.0434 141.6506 6.7027 36.0107 1.2648 72.0526 1.379 108.0788 2.0686 373.9236 25.8656-35.5035 8.1759 358.8254-9.7697 84.2239-3.833 169.0037-6.3566 252.9274 1.7153 77.1794 7.4233 150.8712 48.6987 228.2966 44.5696 293.7129-86.6231 153.3142-72.5092 418.7587-61.9693 37.6337-12.4083 73.2879-36.1972 112.9011-37.2247 28.7543-.7459 52.8239 22.944 80.0512 32.2196 20.2956 6.9142 41.6595 10.2253 62.2355 16.2538 11.0173 3.228 21.1572 13.4637 32.4672 11.4929 10.358-1.805 14.4476-15.6071 23.3397-21.2177 11.3646-7.1706 24.4705-11.1123 36.7057-16.6685 38.2616-2.2192 70.7814-24.6131 107.3019-32.5824 18.6249-4.0642 37.9384-5.902 56.9767-4.9295 17.4295.8903 34.104 7.4862 51.3009 10.4605 16.1538 2.7939 32.4974 4.3627 48.7034 6.8359 13.2667 2.0246 26.4712 4.4376 39.7068 6.6564 169.4127-32.3683 123.637-271.954-45.7757-239.5857-8.6273 8.6402-15.57 19.3824-25.8819 25.9206-11.7413 7.4443-25.9249 10.0501-38.8654 15.1314-15.1718 5.9575-30.3749 11.8387-45.4714 17.9846-17.5661 7.1514-33.6533 19.8934-52.5124 21.9057-42.1079 4.493-83.5023-23.3272-125.9255-16.798-7.59-.6041-110.5527-9.483-117.6101-7.2613-57.4067 18.0725-28.9904 50.1055-45.0522 91.9603-37.725 98.3063-52.8175 77.9566-154.6605 118.8751-100.2976 15.7726-327.5122 55.9223-418.9329 48.7031-78.1387-6.1704-149.8015-54.8357-228.1561-56.9066-85.5538-2.2613-167.3481 42.7279-252.9192 44.1915-63.1744 1.0804-123.978-24.4569-185.9671-36.6853-57.5783 6.111-115.1566 12.2218-172.735 18.3327-36.0403 1.759-72.0712 6.8296-108.121 5.277-47.5344-2.0473-94.3351-18.8438-141.831-16.0423-63.0489 3.7188-123.0052 33.7196-186.1417 35.3872-72.5229 1.9155-143.7034-23.0664-216.2319-24.7594-98.4928-2.299-196.2072 22.5233-294.9097 19.5796-61.2988 3.2715-152.9059 10.1685-212.6761 4.2322-44.9137-4.4608-88.461-18.6518-133.31-23.7221-48.3005-5.4605-97.3114-2.3806-145.6153-7.8111-123.2569-13.857-153.6-27.6694-269.2628-61.108-381.0547-136.3254 125.9967 58.427-183.2025-99.2463-65.3745-33.337-97.843-9.6448-166.8833-14.8737-212.563-16.0987 12.4628-25.8746-189.8668-10.2055-32.519-2.6643-148.4945-15.0543-184.259-7.289-157.8406 34.2705 30.0586 31.2905-135.9114 81.8888-66.2737 20.2045-265.5238-3.5422-308.0246-6.7062-84.4997-2.2518-168.9954-8.8495-253.4992-6.7553-180.0681 4.4625-280.1458 49.0461-454.8176-13.0987-38.1335-13.5672-62.3398-51.6416-93.7317-77.1913-80.9043-65.8477-37.9615-25.0942-102.5049-92.1375-218.9716 0-218.9716 309.6727 0 309.6727z" style="fill:#000;fill-rule:evenodd;stroke-width:4;stroke-linecap:round"/><path d="M2587.7001 393.2592c-27.81 18.3136-52.8933 41.663-83.4299 54.9409-129.4971 56.3074-46.1382-9.6975-175.2723 21.891-40.3226 9.8636-76.5538 32.1492-115.1868 47.338-36.7591 14.4522-74.0682 27.4683-110.9616 41.574-41.6669 15.9305-83.1431 32.3553-124.7146 48.533-93.8889 35.793-122.4809 41.9321-210.2229 95.4647-30.5408 18.6334-59.3878 40.038-87.4208 62.2661-25.3041 20.0644-46.8491 44.6182-72.3553 64.4251-38.4003 29.82-100.1821 64.732-142.5488 89.7912-54.3299 27.8918-86.7021 82.7332-135.7365 116.7534-28.778 19.9663-60.7548 35.4446-93.3893 48.1653-52.7395 20.5575-108.6616 32.0185-161.8691 51.3324-269.648 97.8803-56.5279 52.3775-358.0765 93.6075-68.7485 12.0336-172.3337 46.2584-245.6026 9.7935-97.9555-48.751-10.0237-80.8537-124.7074-81.5072-356.6727-2.0324 167.6142 51.5304-224.9831 2.8003-91.2129 3.3459-180.11-21.6741-270.6427-25.5225-44.5533-1.8939-89.1196 4.7073-133.7113 4.3035-40.9776-.3712-81.88-3.764-122.7591-6.6265-97.1068-6.7998-139.5628-11.9011-230.5157-21.4427-45.181-12.2404-153.8663-42.8673-200.3034-50.743-52.94-8.9786-136.9962-14.2963-191.312-9.5947-30.6517 2.6533-60.5748 10.8705-91.0109 15.3663-56.4259 8.3349-113.0302 15.4144-169.5454 23.1216-165.2894 17.3265-189.2553 25.0415-335.4124 25.4017-30.4598.075-68.0313 16.3659-91.3213-3.2652-34.1052-28.7474-36.0754-160.979-56.4754-121.3127-180.394 350.7632-91.4514 306.5416 36.2622 275.2285-.5411 4.785 3.1905 14.225-1.6233 14.355-173.8538 4.6959.9446-157.118 54.4007-278.0059-245.8486 24.8336-210.7285 372.516 35.1201 347.6824 39.4082-86.734 101.7891-166.3635 118.2247-260.202 6.7599-38.5953-96.6031-46.1156-115.8192-48.8357-6.9378-138.1508 7.2201 72.076-67.7969 214.8999-18.8661 35.9188-24.9484-88.5162-1.6125-121.7055 17.4916-24.8772 60.6764-6.6602 91.0661-5.5189 260.4383 9.7809-6.6345 40.2017 336.761-25.3458 57.1727-5.5191 114.5591-9.1518 171.5183-16.5574 62.5267-8.1295 115.2483-28.5376 179.0606-28.9058 32.7735-.189 65.4699 4.913 97.7526 10.5665 33.2037 5.8148 169.1609 42.212 201.0903 50.5876 42.3995 4.6803 202.6828 22.7157 231.1872 24.073 40.959 1.9503 82.061-3.3221 123.0107-1.1821 44.4406 2.3224 88.2116 13.9628 132.7091 14.5456 46.616.6106 92.8628-13.2373 139.428-10.9814 44.3418 2.1482 87.3239 16.0546 130.9858 24.0819 39.4928 5.2179 81.5323.758 118.4786 15.6538 79.369 31.9996 59.9988 89.0099 150.3018 88.3518 28.5601-.2081 53.1383-24.1295 81.6366-26.0188 309.2822-20.5043-162.8255 82.2167 245.069-23.3161 65.2501-5.7285 131.2118-5.9978 195.7504-17.1855 135.0872-23.4173 206.3081-58.7128 328.4324-115.8782 31.8584-14.9127 61.8149-33.8041 94.1178-47.7278 30.4459-13.1232 63.481-19.6979 93.7405-33.2454 26.7293-11.967 51.0697-28.68 76.6046-43.02 18.176-20.2936 36.9511-40.0662 54.5281-60.8808 19.0858-22.6013 35.1768-47.7426 55.4171-69.316 21.9337-23.3784 45.8375-44.9638 70.7401-65.1503 57.3431-46.4833 123.3378-89.0318 191.4637-117.7542 34.323-14.4709 71.0361-22.4449 106.5541-33.6673 20.1474-8.4487 203.9018-87.2068 233.1544-93.2896 37.0631-7.707 75.6083-4.616 113.4633-4.8671 53.582-.3555 111.4413-2.1835 155.2436 37.886 22.2383 20.3432 31.2435 51.5499 46.8653 77.3248 172.2046 39.7395 228.4048-203.7947 56.2002-243.5342z" style="fill:#000;fill-rule:evenodd;stroke-width:4;stroke-linecap:round"/><path d="M-1105.392 805.365c65.7926-44.488 86.7266-70.7275 172.4216-75.8385 35.0295-2.0892 157.2504 23.0413 191.905 36.9856 178.0311 71.636-27.1728 23.3345 151.6567 57.8615 315.3466-16.9595-170.6316 12.862 189.928-23.3446 38.145-3.8304 76.7363-.3327 114.9666-3.1905 38.7222-2.8945 77.2051-8.525 115.6406-14.0477 61.5318-8.8412 142.35-24.389 204.3472-35.8752 142.6055-2.4347 61.5699-16.2125 180.4107 35.5188 38.1213 16.5942 79.5832 26.1443 115.5001 47.0866 43.2442 25.2146 75.612 67.1693 120.0332 90.2473 90.096 46.8075 295.8154 104.7754 393.2054 134.4469 400.5807 64.0998-32.4983 5.4101 320.2125 24.857 39.8047 2.1947 78.8665 11.7052 118.2963 17.5808 30.3721 4.5259 62.5019 2.4635 91.1094 13.624 85.3281 61.1445 40.8256 40.025 131.2913 67.8317 140.6987-47.0293 130.2958-53.5035 282.0259-62.9661 45.6703-2.8482 91.6338 3.5136 137.2768.2565 73.2816-5.2295 145.406-26.7524 217.6564-38.2594 30.3641-4.836 61.074-7.1723 91.611-10.7585 121.239-5.0246 55.1103-.9499 175.3242-11.2243 44.6871-3.8193 89.38-7.5712 134.072-11.3329 46.4051-3.9059 92.65-11.6895 139.2192-11.6699 331.932.1403 35.5201 37.7869 361.8702-19.6385 68.326-15.3916 135.5079-37.2733 204.9781-46.1747 468.1063-59.98-125.114 66.8155 349.1753-35.1937 49.7229-10.6943 98.943-23.6542 148.0869-36.7545 53.5597-14.2774 105.3992-35.7124 159.9819-45.3675 43.7122-7.7322 88.677-4.307 133.0155-6.4604 30.7404-3.2586 61.8224-15.3883 92.2213-9.7756 26.7544 4.9397 46.2271 29.0964 71.1774 39.9443 16.7883 7.2992 91.4465 23.7023 110.6118 29.4878 14.0327 4.2361 29.5609 6.3072 41.3118 15.0693 13.6339 10.1662 21.3943 26.4428 32.0914 39.6642 13.7155 7.5484 26.3808 17.4429 41.1466 22.6452 8.5628 3.0169 36.2732 1.6993 27.1983 1.4343-22.6877-.6626-46.6443 4.9449-68.0415-2.627-17.8178-6.3053 24.7576-14.5968 37.0104-17.3252 219.328-8.5944 207.1736-318.771-12.1543-310.1765-5.7888-3.7115-12.0076-6.8253-17.3663-11.1344-3.2115-2.5825-3.9767-9.3082-8.0975-9.342-25.2116-.2072-50.2709 4.512-75.1401 8.658-6.323 1.0542 14.1359-3.2405 19.219.6649 10.4385 8.0199 15.4809 21.2947 23.2213 31.942-4.3505 10.1693-5.3208 22.5973-13.0516 30.5077-9.602 9.825-24.0009 13.3784-36.1345 19.821-16.5959 8.8119-32.333 19.6743-50.0481 25.9392-19.38 6.8537-42.3165 3.0564-60.2668 13.0734-160.9263 89.8032 43.4174 37.6324-156.3191 72.5738-42.937 10.0923-85.2722 23.2195-128.8111 30.2768-182.756 29.623-141.759 2.211-316.6753 42.1852-57.96 13.2458-113.8398 34.5089-171.5071 48.976-188.8354 47.3739-169.2964 36.3814-377.1624 52.2208-45.4469 3.8627-317.3719 27.6155-361.5465 28.7704-75.6399 1.9774-199.4924-11.3512-275.4233-12.0506-29.831-.2748-59.8431.5494-89.3661 4.8339-29.4363 4.2718-57.8618 13.8203-86.7926 20.7305-30.0203 6.7181-59.8214 14.504-90.0609 20.1541-33.5159 6.2623-67.3943 10.3987-101.0968 15.563-38.7579 5.9388-77.4135 12.5984-116.2843 17.7462-52.4218 6.9425-232.6404 30.1341-283.1927 18.7441-42.9591-9.6792-77.6116-41.6308-116.4174-62.4463-97.9622 6.8467-48.1178-3.3564-148.6749 34.5389-30.4235 3.9767-61.0704-7.085-91.7514-7.3705-39.9991-.3722-79.88 5.4786-119.8807 5.4014-138.0332-.2667-179.056-9.927-322.2907-27.1633-701.1626-366.4318 351.6541 171.5783-379.912-161.1188-45.4984-20.6915-84.891-52.8589-126.0152-81.2675-37.541-25.9334-67.9073-63.7057-109.85-81.6687-15.732-6.7375-183.9645-1.0733-191.5501-.9075-9.9397 1.7821-202.304 36.2852-203.7133 36.4758-38.2866 5.178-76.8573 8.124-115.3953 10.86-38.0971 2.7049-76.376 8.4845-114.449 5.4583-43.732-3.476-132.8725-33.007-177.23-46.6376-25.7397-.5755-51.5016-2.939-77.2192-1.7265-28.2728 1.333-56.133 10.8597-84.3967 9.346-38.189-2.045-157.2702-34.162-187.9383-53.1647-55.0803-34.129-89.4126-91.3711-125.6967-142.1381-174.0434-37.8355-227.5508 208.299-53.5075 246.1344z" style="fill:#000;fill-rule:evenodd;stroke-width:4;stroke-linecap:round"/></g><g style="display:inline;mix-blend-mode:difference;opacity:.97"><path d="M0 0h2048v2048H0Z" clip-path="url(#D)" style="fill:url(#E);fill-opacity:1;fill-rule:evenodd;stroke-width:4;stroke-linecap:round"/></g><g style="display:inline;opacity:.5;mix-blend-mode:soft-light"><circle cx="1092.1337" cy="887.94421" r="1600" style="fill:url(#F);fill-rule:evenodd;stroke-width:4;stroke-linecap:round"/></g><g style="display:inline;mix-blend-mode:lighten"><circle cx="306.11072" r="750" style="fill:url(#G);fill-opacity:1;fill-rule:evenodd;stroke-width:4;stroke-linecap:round"/></g><g style="display:inline;opacity:1;mix-blend-mode:lighten"><circle cx="1747.3376" cy="2048" r="750" style="display:inline;mix-blend-mode:normal;fill:url(#H);fill-opacity:1;fill-rule:evenodd;stroke-width:4;stroke-linecap:round"/></g><g style="display:inline"><text xml:space="preserve" x="742.59753" y="172.02951" style="font-style:normal;font-variant:normal;font-weight:300;font-stretch:normal;font-size:93.3333px;font-family:Urbanist;-inkscape-font-specification:&quot;Urbanist Light&quot;;letter-spacing:-13px;word-spacing:0;writing-mode:lr-tb;display:inline;mix-blend-mode:normal;fill:#2c064d;fill-opacity:1;fill-rule:evenodd;stroke:none;stroke-width:16;stroke-linecap:round;stroke-linejoin:round"><tspan x="742.59753" y="172.02951">ZERO</tspan></text><text xml:space="preserve" x="927.28375" y="172.0295" style="font-style:normal;font-variant:normal;font-weight:400;font-stretch:normal;font-size:93.3333px;font-family:Urbanist;-inkscape-font-specification:Urbanist;letter-spacing:-11px;word-spacing:0;writing-mode:lr-tb;mix-blend-mode:normal;fill:#2c064d;fill-opacity:1;fill-rule:evenodd;stroke:none;stroke-width:16;stroke-linecap:round;stroke-linejoin:round"><tspan x="927.28375" y="172.0295">DAY</tspan></text><text xml:space="preserve" x="1066.8099" y="171.95949" style="font-style:normal;font-variant:normal;font-weight:600;font-stretch:normal;font-size:93.3333px;font-family:Urbanist;-inkscape-font-specification:&quot;Urbanist Semi-Bold&quot;;letter-spacing:-8px;word-spacing:0;writing-mode:lr-tb;mix-blend-mode:lighten;fill:#4beb80;fill-opacity:1;fill-rule:evenodd;stroke:none;stroke-width:16;stroke-linecap:round;stroke-linejoin:round"><tspan x="1066.8099" y="171.95949">ANUBIS</tspan></text></g><g style="display:inline;mix-blend-mode:normal"><text xml:space="preserve" x="695.62006" y="1933.2104" style="font-style:normal;font-variant:normal;font-weight:700;font-stretch:normal;font-size:93.3333px;font-family:Urbanist;-inkscape-font-specification:&quot;Urbanist Bold&quot;;letter-spacing:40px;word-spacing:0;writing-mode:lr-tb;mix-blend-mode:difference;fill:#5cffe5;fill-opacity:1;fill-rule:evenodd;stroke:none;stroke-width:16;stroke-linecap:round;stroke-linejoin:round"><tspan x="695.62006" y="1933.2104">SYSTEMS</tspan></text><text xml:space="preserve" x="695.62006" y="1933.2104" style="font-style:normal;font-variant:normal;font-weight:700;font-stretch:normal;font-size:93.3333px;font-family:Urbanist;-inkscape-font-specification:&quot;Urbanist Bold&quot;;letter-spacing:40px;word-spacing:0;writing-mode:lr-tb;display:inline;opacity:.25;mix-blend-mode:color-burn;fill:#5cffe5;fill-opacity:1;fill-rule:evenodd;stroke:none;stroke-width:16;stroke-linecap:round;stroke-linejoin:round"><tspan x="695.62006" y="1933.2104">SYSTEMS</tspan></text></g></svg>