<svg xmlns="http://www.w3.org/2000/svg" xmlns:xlink="http://www.w3.org/1999/xlink" width="7112" height="4000" viewBox="0 0 7112 4000"><title>Prone To Oblivion</title><defs><linearGradient id="b"><stop offset="0" stop-color="#f00018"/><stop offset=".5" stop-color="#4e1cff"/><stop offset="1" stop-color="#2600ac"/></linearGradient><linearGradient id="a"><stop offset="0" stop-color="#321414"/><stop offset="1" stop-color="#141432"/></linearGradient><linearGradient xlink:href="#a" id="c" x1="-1472" x2="5640" y1="1080" y2="1080" gradientTransform="translate(-160)" gradientUnits="userSpaceOnUse"/><linearGradient xlink:href="#b" id="d" x1="-1632" x2="5480" y1="1080" y2="1080" gradientUnits="userSpaceOnUse"/></defs><path fill="url(#c)" fill-rule="evenodd" d="M-1632-920h7112v4000h-7112Z" transform="translate(1632 920)"/><path fill="url(#d)" fill-rule="evenodd" d="M-1632-920h7112v4000h-7112Z" transform="translate(1632 920)"/><path fill="#02060a" fill-rule="evenodd" d="M0 0h3840v2160H0Z" opacity=".799" style="mix-blend-mode:hard-light" transform="translate(1632 920)"/><g fill="#044af1" fill-rule="evenodd"><path d="m2321.4534 415.3285 3880 2440-1000-600z"/><path d="m6801.4534 735.3285-4880 1760-360 80z"/></g><g fill="#2632ff" fill-rule="evenodd" style="mix-blend-mode:difference"><path d="M1632 920h2922.202l1405.6051 1430.657Z"/><path d="M3478.0723 462.5078 3059.0612 3080H1632Z"/><path d="M3332 2840 1287.8633 1098.6348 5472 3080Z"/></g><g fill="#e43f58" fill-rule="evenodd" style="mix-blend-mode:hue"><path d="M3756.6397 552.3965 5472 2000 2465.0651 3400.2478Z"/><path d="M988.2585 552.3965 1632 3080 4554.202 920Z"/></g><g fill="#fd0033" fill-rule="evenodd" style="mix-blend-mode:exclusion"><path d="m559.0283 1822.9018 5298.501 771.7603L3188.1176 2220Z"/><path d="m4690.8568 444.646-584.997 806.7545-1640.7947 2148.8473Z"/><path d="M1786.6926 255.5728 2797.692 1520l1588.5976 2052.1892Z"/></g><path fill="#d2230f" fill-rule="evenodd" d="M-2151.4338 2070.9859c530.6236 385.057 1206.3535 564.849 1858.1725 494.4056 651.819-70.4435 1273.5342-390.453 1709.6391-879.9863 35.9143-40.3143 70.9512-82.2317 95.035-130.5541 24.0838-48.3223 36.5941-104.112 25.2-156.8875-7.7571-35.9295-26.4417-69.2356-52.1005-95.5553-25.6587-26.3198-58.134-45.7075-93.0722-57.1278-69.8765-22.8405-147.7596-13.3299-215.0373 16.3032-67.2777 29.6331-124.8139 78.1317-174.1945 132.5923-49.3807 54.4606-91.323 115.1287-134.548 174.5931C627.989 1898.4846 337.54 2201.4962-24.5781 2388.6462c-340.1331 175.7877-736.0948 241.467-1114.7677 184.9096-378.6728-56.5573-738.163-235.0685-1012.0879-502.5699z" opacity=".787" style="mix-blend-mode:hard-light" transform="rotate(9.8874 -1136.679 15036.6368)"/><path fill="#e00010" fill-rule="evenodd" d="M486.1258 2652.1892a17407.2391 17407.2391 0 0 1 414.7723-977.5271c127.1255-275.8846 265.3316-553.9448 480.2794-768.5855 107.4739-107.3203 233.6705-197.3567 374.6592-253.841 140.9888-56.4842 297.1793-78.4653 446.7798-52.2356 73.4403 12.8764 145.8243 37.1961 220.357 35.1602 81.9249-2.2378 160.4011-36.6487 227.2347-84.0824 66.8337-47.4337 123.4609-107.588 179.1464-167.7197 55.6855-60.1316 111.3249-121.0442 176.7198-170.4426 65.3948-49.3985 141.9368-87.155 223.5841-94.2549 55.8897-4.86 112.862 4.9347 164.3521 27.2068 51.4901 22.272 97.4568 56.8978 133.8955 99.5535 72.8772 85.3114 105.646 201.6898 96.0047 313.476-9.6414 111.7863-59.9292 218.3618-134.0343 302.6088-74.1051 84.247-171.1389 146.7671-275.6845 187.5021-209.0912 81.4699-441.4961 76.4476-664.5094 51.5174C2326.6692 1075.5949 2104.2558 1031.888 1880 1040c-398.3058 14.4079-787.4498 200.9608-1048.1243 502.4635-260.6746 301.5026-389.0434 713.5177-345.7499 1109.7257Z" opacity=".805" style="mix-blend-mode:normal" transform="rotate(10.7842 -2630.086 13795.2)"/><path fill="#e00010" fill-rule="evenodd" d="M-1978.6587 490.5425c257.9186 166.7448 566.9003 253.2922 873.9076 244.786 68.4061-1.8953 137.0046-8.4378 203.2526-25.5897 66.248-17.152 130.2649-45.2114 184.2347-87.2857 44.8262-34.946 81.958-78.8483 126.0211-114.7516 22.0316-17.9516 45.9026-33.933 72.0906-44.9713 26.188-11.0382 54.8298-17.0102 83.1513-14.6553 29.9775 2.4926 58.9804 14.3927 82.6289 32.9833 23.6485 18.5906 41.9454 43.734 53.1985 71.6308 22.5061 55.7935 15.9226 121.0742-11.4615 174.6424-27.384 53.5683-74.0708 95.8252-127.1343 124.175-53.0634 28.3497-112.3527 43.5031-171.9946 51.3954-85.7793 11.351-172.8777 8.1353-259.0215 0-397.1311-37.5045-783.7311-181.2703-1108.8734-412.3593Z" opacity=".982" style="mix-blend-mode:normal" transform="matrix(1.380005 .666529 -.726631 .852165 3196.5444 3027.6441)"/><g style="mix-blend-mode:difference"><path fill="#ff0037" fill-rule="evenodd" d="M-1405.7034 156.052h4.375v22.2656h22.2657v4.375h-26.6407zm54.5203 26.6406v-4.32l39.56-47.36h-39.56v-4.32h45.28v4.32l-39.56 47.36h39.56v4.32zm51.28 0v-56h33.76v4.32h-29.44v19.52h24.64v4.32h-24.64v23.52h29.44v4.32zm41.2 0v-56h18.24q4.44 0 8.04 2.16 3.6 2.12 5.68 5.8 2.12 3.68 2.12 8.24 0 4.24-1.8 7.64-1.76 3.4-4.8 5.6-3.04 2.16-6.8 2.72l13.76 23.84h-5l-13.68-23.56h-11.44v23.56zm4.32-27.88h13.64q3.24 0 5.92-1.56 2.68-1.6 4.28-4.32t1.6-6.2q0-3.44-1.6-6.16-1.6-2.76-4.28-4.32-2.68-1.6-5.92-1.6h-13.64zm62.44 28.92q-5.68 0-10.68-2.24-5-2.28-8.8-6.28-3.8-4-5.96-9.24-2.16-5.28-2.16-11.28 0-6 2.16-11.24 2.16-5.28 5.96-9.28 3.8-4 8.8-6.24 5-2.28 10.68-2.28 5.72 0 10.72 2.28 5 2.24 8.8 6.24 3.8 4 5.92 9.28 2.16 5.24 2.16 11.24t-2.16 11.28q-2.12 5.24-5.92 9.24t-8.8 6.28q-5 2.24-10.72 2.24zm0-4.32q4.88 0 9.08-1.96 4.24-1.96 7.4-5.36 3.2-3.44 5-7.92 1.8-4.48 1.8-9.48 0-5.08-1.84-9.56-1.8-4.48-5-7.88-3.2-3.4-7.4-5.32-4.2-1.96-9.04-1.96-4.88 0-9.12 1.96-4.2 1.96-7.4 5.4-3.16 3.4-4.96 7.88-1.8 4.48-1.8 9.48 0 5.08 1.8 9.56 1.84 4.48 5.04 7.92 3.2 3.4 7.4 5.32 4.24 1.92 9.04 1.92zm33.9999 3.28v-56h18.52q5.8 0 10.88 2.2 5.08 2.16 8.92 6.04 3.84 3.84 6 8.92 2.2 5.04 2.2 10.84t-2.2 10.88q-2.16 5.04-6 8.92-3.84 3.84-8.92 6.04-5.08 2.16-10.88 2.16zm4.32-4.32h14.2q4.92 0 9.2-1.84 4.28-1.84 7.52-5.08 3.28-3.28 5.12-7.56 1.84-4.28 1.84-9.2 0-4.92-1.84-9.2-1.84-4.28-5.12-7.52-3.28-3.28-7.56-5.12-4.28-1.84-9.16-1.84h-14.2zm63.28-51.68h5.68l20.4 56h-4.6l-4.6-12.64h-28.04l-4.6 12.64h-4.6zm-9.6 39.04h24.88l-12.44-34.12zm67.2801-39.04h5.08l-18.76 30.6v25.4h-4.32v-25.4l-18.72-30.6h5.08l15.8 25.88zm20.48 0h5.68l20.4 56h-4.6l-4.6-12.64h-28.04l-4.6 12.64h-4.6zm-9.6 39.04h24.88l-12.44-34.12zm41.36 16.96v-56h4.72l31.36 48.2v-48.2h4.32v56h-4.64l-31.44-48.2v48.2zm69.52 1.04q-6.72 0-11.56-3.28-4.8-3.28-7.4-8.8-2.56-5.56-2.56-12.32v-32.64h4.32v32.64q0 5.48 2 10.04 2 4.56 5.84 7.32 3.84 2.72 9.36 2.72 5.64 0 9.44-2.76 3.84-2.76 5.8-7.32 1.96-4.6 1.96-10v-32.64h4.32v32.64q0 5.08-1.48 9.52-1.48 4.4-4.28 7.76-2.76 3.36-6.76 5.24-3.96 1.88-9 1.88zm28.88-1.04v-56h18.44q4 0 7.24 1.64 3.28 1.6 5.2 4.72 1.96 3.08 1.96 7.6 0 2.72-1 5.12-1 2.36-2.56 4-1.56 1.6-3.2 1.96 2.44.68 4.28 2.24 1.84 1.52 3.08 3.64 1.24 2.08 1.84 4.44.6 2.36.6 4.72 0 4.84-2.04 8.44-2 3.56-5.36 5.52-3.36 1.96-7.48 1.96zm4.32-3.96h16.4q3.08 0 5.6-1.6 2.52-1.64 4-4.44 1.52-2.84 1.52-6.4 0-3.2-1.52-6-1.48-2.8-4-4.52-2.52-1.76-5.6-1.76h-16.4zm0-28.64h13.84q4.28 0 7.32-2.44 3.04-2.48 3.04-7.04 0-5.08-3.04-7.52-3.04-2.44-7.32-2.44h-13.84zm38.36 32.6v-56h4.32v56zm32.5201 1.04q-4.44 0-8.6-1.36-4.16-1.4-7.28-3.92-3.08-2.56-4.32-6.12l4.04-1.52q.96 2.72 3.48 4.68 2.56 1.92 5.88 2.92 3.36 1 6.8 1 4.08 0 7.64-1.4 3.56-1.4 5.76-3.88 2.2-2.52 2.2-5.96t-2.28-5.64q-2.28-2.24-5.88-3.52-3.56-1.32-7.44-2.04-5.68-1-10.16-2.64-4.48-1.68-7.12-4.72-2.6-3.04-2.6-8.16 0-4.76 2.76-8.24 2.8-3.48 7.32-5.4 4.52-1.92 9.8-1.92 4.28 0 8.4 1.36 4.12 1.32 7.28 3.88 3.16 2.56 4.56 6.24l-4.12 1.48q-.96-2.76-3.48-4.68t-5.88-2.92q-3.32-1-6.76-1-4.12-.04-7.68 1.4-3.52 1.4-5.72 3.92-2.16 2.52-2.16 5.88 0 3.88 2.04 6t5.56 3.2q3.52 1.04 7.96 1.88 5.28.92 9.8 2.84 4.56 1.88 7.32 5.04 2.8 3.12 2.8 7.76 0 4.72-2.8 8.24-2.76 3.48-7.28 5.4-4.52 1.92-9.84 1.92zm75.5603-27.7197h-4.375v-22.2656h-22.2656v-4.375h26.6406z" aria-label="⌞ZERODAYANUBIS⌝" font-family="Urbanist" font-size="80" font-weight="300" letter-spacing="-2" style="-inkscape-font-specification:&quot;Urbanist Light&quot;" transform="rotate(-90 1276 -356)" word-spacing="0"/></g><g opacity=".75" style="mix-blend-mode:color-burn"><path fill="#2d003c" fill-rule="evenodd" d="M3010 1108v-56h18.48q4.52 0 8.12 2.2 3.64 2.2 5.76 5.96 2.16 3.72 2.16 8.32 0 4.68-2.2 8.44-2.16 3.72-5.84 5.92-3.64 2.16-8 2.16h-11.76v23zm6.72-29.72h11.16q2.72 0 4.96-1.32 2.28-1.36 3.6-3.64 1.36-2.32 1.36-5.2 0-2.92-1.36-5.2-1.32-2.32-3.6-3.64-2.24-1.36-4.96-1.36h-11.16zm33.68 29.72v-56h19.68q4.48 0 8.08 2.2 3.64 2.2 5.76 5.96 2.16 3.72 2.16 8.32 0 4.04-1.6 7.36-1.6 3.32-4.4 5.56-2.76 2.2-6.28 3.04l13.6 23.56h-7.76l-13.36-23h-9.16v23zm6.72-29.72h12.28q2.72 0 5-1.32 2.28-1.36 3.6-3.64 1.36-2.32 1.36-5.2 0-2.92-1.36-5.2-1.32-2.32-3.6-3.64-2.28-1.36-5-1.36h-12.28zm61.48 30.76q-5.68 0-10.68-2.24-5-2.28-8.8-6.28-3.8-4-5.96-9.24Q3091 1086 3091 1080q0-6 2.16-11.24 2.16-5.28 5.96-9.28 3.8-4 8.8-6.24 5-2.28 10.68-2.28 5.72 0 10.72 2.28 5 2.24 8.8 6.24 3.8 4 5.92 9.28 2.16 5.24 2.16 11.24t-2.16 11.28q-2.12 5.24-5.92 9.24t-8.8 6.28q-5 2.24-10.72 2.24zm0-6.72q4.36 0 8.12-1.76 3.8-1.76 6.64-4.84 2.88-3.12 4.48-7.12 1.64-4.04 1.64-8.6t-1.64-8.6q-1.64-4.08-4.52-7.12-2.84-3.08-6.64-4.84-3.76-1.76-8.08-1.76-4.36 0-8.16 1.76-3.76 1.76-6.64 4.88-2.84 3.08-4.48 7.12-1.6 4-1.6 8.56 0 4.6 1.64 8.64 1.64 4.04 4.48 7.12 2.88 3.08 6.64 4.84 3.8 1.72 8.12 1.72zm33.4801 5.68v-56h7.28l27.96 43.84V1052h6.72v56h-7.24l-28-43.84V1108Zm49.56 0v-56h34.36v6.72h-27.64v15.92h22.64v6.72h-22.64v19.92h27.64v6.72zm100.72-56v6.72h-18.64V1108h-6.72v-49.28h-18.6V1052Zm28.7999 57.04q-5.68 0-10.68-2.24-5-2.28-8.8-6.28-3.8-4-5.96-9.24-2.16-5.28-2.16-11.28 0-6 2.16-11.24 2.16-5.28 5.96-9.28 3.8-4 8.8-6.24 5-2.28 10.68-2.28 5.72 0 10.72 2.28 5 2.24 8.8 6.24 3.8 4 5.92 9.28 2.16 5.24 2.16 11.24t-2.16 11.28q-2.12 5.24-5.92 9.24t-8.8 6.28q-5 2.24-10.72 2.24zm0-6.72q4.36 0 8.12-1.76 3.8-1.76 6.64-4.84 2.88-3.12 4.48-7.12 1.64-4.04 1.64-8.6t-1.64-8.6q-1.64-4.08-4.52-7.12-2.84-3.08-6.64-4.84-3.76-1.76-8.08-1.76-4.36 0-8.16 1.76-3.76 1.76-6.64 4.88-2.84 3.08-4.48 7.12-1.6 4-1.6 8.56 0 4.6 1.64 8.64 1.64 4.04 4.48 7.12 2.88 3.08 6.64 4.84 3.8 1.72 8.12 1.72zm76.8 6.72q-5.68 0-10.68-2.24-5-2.28-8.8-6.28-3.8-4-5.96-9.24-2.16-5.28-2.16-11.28 0-6 2.16-11.24 2.16-5.28 5.96-9.28 3.8-4 8.8-6.24 5-2.28 10.68-2.28 5.72 0 10.72 2.28 5 2.24 8.8 6.24 3.8 4 5.92 9.28 2.16 5.24 2.16 11.24t-2.16 11.28q-2.12 5.24-5.92 9.24t-8.8 6.28q-5 2.24-10.72 2.24zm0-6.72q4.36 0 8.12-1.76 3.8-1.76 6.64-4.84 2.88-3.12 4.48-7.12 1.64-4.04 1.64-8.6t-1.64-8.6q-1.64-4.08-4.52-7.12-2.84-3.08-6.64-4.84-3.76-1.76-8.08-1.76-4.36 0-8.16 1.76-3.76 1.76-6.64 4.88-2.84 3.08-4.48 7.12-1.6 4-1.6 8.56 0 4.6 1.64 8.64 1.64 4.04 4.48 7.12 2.88 3.08 6.64 4.84 3.8 1.72 8.12 1.72zm33.4801 5.68v-56h19.32q4.16 0 7.56 1.72 3.44 1.68 5.44 4.92 2 3.24 2 7.76 0 2.44-.84 4.72-.8 2.24-2.24 3.88-1.4 1.6-3.2 2.16 2.52.64 4.28 2.28 1.76 1.6 2.84 3.76 1.12 2.16 1.6 4.52.48 2.36.48 4.56 0 4.64-2.12 8.2-2.08 3.52-5.6 5.52-3.52 2-7.76 2zm6.72-5.92h14.44q2.76 0 5-1.4 2.28-1.44 3.64-3.92 1.36-2.48 1.36-5.6 0-2.76-1.36-5.2-1.36-2.48-3.64-4-2.24-1.52-5-1.52h-14.44zm0-27.44h11.96q3.68 0 6.28-2.16 2.64-2.2 2.64-6.12 0-4.24-2.64-6.32-2.6-2.12-6.28-2.12h-11.96zm35.6 33.36v-56h6.72v49.28h25.08v6.72zm39.8 0v-56h6.72v56zm34.1599 0-20.32-56h7.12l17.36 47.8 17.4-47.8h7.08l-20.32 56zm35.0802 0v-56h6.72v56zm41.5199 1.04q-5.68 0-10.68-2.24-5-2.28-8.8-6.28-3.8-4-5.96-9.24-2.16-5.28-2.16-11.28 0-6 2.16-11.24 2.16-5.28 5.96-9.28 3.8-4 8.8-6.24 5-2.28 10.68-2.28 5.72 0 10.72 2.28 5 2.24 8.8 6.24 3.8 4 5.92 9.28 2.16 5.24 2.16 11.24t-2.16 11.28q-2.12 5.24-5.92 9.24t-8.8 6.28q-5 2.24-10.72 2.24zm0-6.72q4.36 0 8.12-1.76 3.8-1.76 6.64-4.84 2.88-3.12 4.48-7.12 1.64-4.04 1.64-8.6t-1.64-8.6q-1.64-4.08-4.52-7.12-2.84-3.08-6.64-4.84-3.76-1.76-8.08-1.76-4.36 0-8.16 1.76-3.76 1.76-6.64 4.88-2.84 3.08-4.48 7.12-1.6 4-1.6 8.56 0 4.6 1.64 8.64 1.64 4.04 4.48 7.12 2.88 3.08 6.64 4.84 3.8 1.72 8.12 1.72zm33.4801 5.68v-56h7.28l27.96 43.84V1052h6.72v56h-7.24l-28-43.84V1108Z" aria-label="PRONE TO OBLIVION" font-family="Urbanist" font-size="80" font-weight="500" letter-spacing="-2" style="-inkscape-font-specification:&quot;Urbanist Medium&quot;" transform="translate(1632 920)" word-spacing="0"/></g></svg>